<svg xmlns="http://www.w3.org/2000/svg" width="30" height="30" viewBox="0 0 30 30">
  <g id="bell_1_" data-name="bell(1)" transform="translate(-2)">
    <g id="Group_7" data-name="Group 7" transform="translate(14 0)">
      <path id="Path_242" data-name="Path 242" d="M15.25,5.225A.7.7,0,0,1,14.5,4.6V2.5A1.4,1.4,0,0,0,13,1.25,1.4,1.4,0,0,0,11.5,2.5V4.6a.7.7,0,0,1-.75.625A.7.7,0,0,1,10,4.6V2.5A2.787,2.787,0,0,1,13,0a2.787,2.787,0,0,1,3,2.5V4.6A.7.7,0,0,1,15.25,5.225Z" transform="translate(-10 0)" fill="#7d7d7d"/>
    </g>
    <g id="Group_8" data-name="Group 8" transform="translate(11.75 25)">
      <path id="Path_243" data-name="Path 243" d="M13.75,25c-2.9,0-5.25-1.963-5.25-4.375A.7.7,0,0,1,9.25,20a.7.7,0,0,1,.75.625c0,1.723,1.683,3.125,3.75,3.125s3.75-1.4,3.75-3.125a.762.762,0,0,1,1.5,0C19,23.037,16.645,25,13.75,25Z" transform="translate(-8.5 -20)" fill="#7d7d7d"/>
    </g>
    <g id="Group_9" data-name="Group 9" transform="translate(2 3.75)">
      <path id="Path_244" data-name="Path 244" d="M29.75,25.5H4.25A2.091,2.091,0,0,1,2,23.625,1.762,1.762,0,0,1,2.788,22.2,8.19,8.19,0,0,0,6.5,15.547v-3.8C6.5,6.925,11.21,3,17,3s10.5,3.925,10.5,8.75v3.8a8.179,8.179,0,0,0,3.7,6.644,1.771,1.771,0,0,1,.8,1.434A2.09,2.09,0,0,1,29.75,25.5ZM17,4.25c-4.963,0-9,3.364-9,7.5v3.8a9.356,9.356,0,0,1-4.232,7.6.591.591,0,0,0-.268.479.7.7,0,0,0,.75.625h25.5a.7.7,0,0,0,.75-.625.589.589,0,0,0-.263-.475A9.364,9.364,0,0,1,26,15.547v-3.8c0-4.136-4.037-7.5-9-7.5Z" transform="translate(-2 -3)" fill="#7d7d7d"/>
    </g>
  </g>
</svg>
