<svg xmlns="http://www.w3.org/2000/svg" width="30" height="30" viewBox="0 0 30 30">
  <g id="diamond" transform="translate(0 -0.999)">
    <path id="Path_236" data-name="Path 236" d="M15,31a.609.609,0,0,1-.479-.243L.146,12.131a.732.732,0,0,1-.07-.766l5.04-10.01A.62.62,0,0,1,5.664,1H24.336a.617.617,0,0,1,.547.355l5.039,10.01a.729.729,0,0,1-.07.766L15.477,30.756A.6.6,0,0,1,15,31ZM1.38,11.61,15,29.259,28.62,11.61,23.966,2.364H6.034Z" fill="#7d7d7d"/>
    <path id="Path_237" data-name="Path 237" d="M29.122,9.5H.878A.575.575,0,0,1,.25,9a.575.575,0,0,1,.628-.5H29.122a.575.575,0,0,1,.628.5A.575.575,0,0,1,29.122,9.5Z" transform="translate(0 2.857)" fill="#7d7d7d"/>
    <path id="Path_238" data-name="Path 238" d="M17.062,9.219a.5.5,0,0,1-.409-.213L12,2.373,7.41,8.971A.5.5,0,1,1,6.59,8.4l5-7.186A.5.5,0,0,1,12,1h0a.5.5,0,0,1,.409.213l5.062,7.219a.5.5,0,0,1-.409.787Z" transform="translate(3.014)" fill="#7d7d7d"/>
    <path id="Path_239" data-name="Path 239" d="M15,31a.687.687,0,0,1-.648-.453L4.071,1.911a.688.688,0,0,1,1.3-.458L15,28.282,24.632,1.453a.689.689,0,0,1,.88-.413.679.679,0,0,1,.417.871L15.648,30.546A.687.687,0,0,1,15,31Z" transform="translate(0 0)" fill="#7d7d7d"/>
  </g>
</svg>
