<svg xmlns="http://www.w3.org/2000/svg" width="30" height="30" viewBox="0 0 30 30">
  <g id="user_1_" data-name="user(1)" transform="translate(0 0)">
    <path id="Path_245" data-name="Path 245" d="M95.693,14.451a9.286,9.286,0,0,0,6.124-2.117,6.412,6.412,0,0,0,0-10.218,9.916,9.916,0,0,0-12.247,0,6.412,6.412,0,0,0,0,10.218A9.289,9.289,0,0,0,95.693,14.451ZM91.059,3.36a7.5,7.5,0,0,1,9.267,0,4.851,4.851,0,0,1,0,7.731,7.5,7.5,0,0,1-9.267,0,4.851,4.851,0,0,1,0-7.731Zm0,0" transform="translate(-80.92)" fill="#7d7d7d"/>
    <path id="Path_246" data-name="Path 246" d="M29.927,255.894a15.051,15.051,0,0,0-.291-1.9,12.931,12.931,0,0,0-.559-1.906,8.711,8.711,0,0,0-.939-1.777,7.006,7.006,0,0,0-1.416-1.54,6.523,6.523,0,0,0-2.034-1.066,8.281,8.281,0,0,0-2.6-.392,2.948,2.948,0,0,0-1.408.5c-.422.23-.915.5-1.466.789a9.312,9.312,0,0,1-1.9.7,8.762,8.762,0,0,1-4.641,0,9.283,9.283,0,0,1-1.9-.7c-.546-.291-1.039-.556-1.468-.789a2.944,2.944,0,0,0-1.407-.5,8.27,8.27,0,0,0-2.6.393,6.518,6.518,0,0,0-2.034,1.066,7.008,7.008,0,0,0-1.416,1.539,8.726,8.726,0,0,0-.939,1.778A12.962,12.962,0,0,0,.363,254a14.948,14.948,0,0,0-.291,1.9c-.048.573-.072,1.169-.072,1.772a4.586,4.586,0,0,0,1.773,3.769,7.162,7.162,0,0,0,4.57,1.39H23.657a7.163,7.163,0,0,0,4.569-1.39A4.585,4.585,0,0,0,30,257.666c0-.6-.025-1.2-.073-1.772Zm-3.154,4.267a4.838,4.838,0,0,1-3.117.906H6.343a4.838,4.838,0,0,1-3.117-.906,2.98,2.98,0,0,1-1.119-2.5c0-.562.022-1.117.067-1.65a13.484,13.484,0,0,1,.263-1.707,11.43,11.43,0,0,1,.491-1.68,7.105,7.105,0,0,1,.764-1.445,5.188,5.188,0,0,1,1.041-1.138,4.335,4.335,0,0,1,1.353-.7,5.7,5.7,0,0,1,1.659-.267c.074.033.205.1.418.211.433.236.932.5,1.484.8a11.552,11.552,0,0,0,2.382.888,11.267,11.267,0,0,0,5.938,0,11.565,11.565,0,0,0,2.383-.889c.565-.3,1.05-.562,1.483-.8.213-.116.344-.178.418-.211a5.706,5.706,0,0,1,1.66.267,4.341,4.341,0,0,1,1.353.7,5.174,5.174,0,0,1,1.041,1.138,7.082,7.082,0,0,1,.765,1.445,11.4,11.4,0,0,1,.492,1.68,13.6,13.6,0,0,1,.263,1.708h0c.045.531.067,1.086.067,1.649a2.98,2.98,0,0,1-1.119,2.5Zm0,0" transform="translate(0 -232.825)" fill="#7d7d7d"/>
  </g>
</svg>
