<svg xmlns="http://www.w3.org/2000/svg" width="29" height="30" viewBox="0 0 29 30">
  <g id="verified" transform="translate(-40 0)">
    <path id="Path_235" data-name="Path 235" d="M68.172,4.858,55.015.09a1.524,1.524,0,0,0-1.03,0L40.828,4.858A1.182,1.182,0,0,0,40,5.94v5.8c0,7.981,5.527,15.161,13.993,18.177a1.525,1.525,0,0,0,1.015,0C63.473,26.9,69,19.718,69,11.737V5.94A1.182,1.182,0,0,0,68.172,4.858Zm-1.857,6.879c0,6.785-4.565,13.031-11.815,15.819-7.056-2.714-11.815-8.85-11.815-15.819V6.723L54.5,2.441,66.315,6.723Zm-13.3,3.95,5.771-5.037a1.485,1.485,0,0,1,1.9,0,1.07,1.07,0,0,1,0,1.657l-6.72,5.866a1.485,1.485,0,0,1-1.9,0L48.315,14.9a1.07,1.07,0,0,1,0-1.657,1.485,1.485,0,0,1,1.9,0Z" transform="translate(0 0)" fill="#7d7d7d"/>
  </g>
</svg>
