<svg xmlns="http://www.w3.org/2000/svg" xmlns:xlink="http://www.w3.org/1999/xlink" width="565" height="565" viewBox="0 0 565 565">
  <defs>
    <clipPath id="clip-path">
      <rect id="Rectangle_176" data-name="Rectangle 176" width="565" height="565" transform="translate(0.088 3267.915)" fill="#f80" opacity="0.05"/>
    </clipPath>
  </defs>
  <g id="Mask_Group_1" data-name="Mask Group 1" transform="translate(-0.088 -3267.915)" clip-path="url(#clip-path)">
    <g id="undraw_People_search_re_5rre" transform="translate(973.077 3321.869)">
      <path id="Path_461" data-name="Path 461" d="M1056.234,886.536a16.884,16.884,0,0,1-15.468-2.552c-5.418-4.258-7.118-11.273-8.5-17.77L1028.179,847l8.559,5.519c6.155,3.969,12.448,8.064,16.71,13.813s6.122,13.6,2.7,19.816" transform="translate(-659.476 -476.359)" fill="#e6e6e6"/>
      <path id="Path_462" data-name="Path 462" d="M1066.986,931.328c.866-5.909,1.757-11.893,1.15-17.865a27.028,27.028,0,0,0-5.786-14.732,25.649,25.649,0,0,0-6.714-5.7.586.586,0,0,0-.621.995,23.725,23.725,0,0,1,9.841,11.119c2.143,5.1,2.487,10.666,2.114,16.087-.223,3.278-.7,6.534-1.173,9.788a.59.59,0,0,0,.43.709.625.625,0,0,0,.757-.4Z" transform="translate(-670.96 -497.89)" fill="#f2f2f2"/>
      <path id="Path_302" data-name="Path 302" d="M748.694,484.747H390.63v-335.3H748.694Z" transform="translate(-383.688 -149.449)" fill="#fff"/>
      <path id="Path_303" data-name="Path 303" d="M748.694,484.747H390.63v-335.3H748.694ZM395.92,479.793H743.4V154.4H395.92Z" transform="translate(-383.688 -149.449)" fill="#e5e5e5"/>
      <rect id="Rectangle_177" data-name="Rectangle 177" width="155.057" height="4.523" transform="translate(146.517 52.457)" fill="#e5e5e5"/>
      <rect id="Rectangle_178" data-name="Rectangle 178" width="155.057" height="4.523" transform="translate(146.517 64.217)" fill="#e5e5e5"/>
      <rect id="Rectangle_179" data-name="Rectangle 179" width="155.057" height="4.523" transform="translate(146.517 75.977)" fill="#e5e5e5"/>
      <rect id="Rectangle_180" data-name="Rectangle 180" width="155.057" height="4.523" transform="translate(146.517 153.437)" fill="#e5e5e5"/>
      <rect id="Rectangle_181" data-name="Rectangle 181" width="155.057" height="4.523" transform="translate(146.517 165.196)" fill="#e5e5e5"/>
      <rect id="Rectangle_182" data-name="Rectangle 182" width="155.057" height="4.523" transform="translate(146.517 176.956)" fill="#e5e5e5"/>
      <rect id="Rectangle_183" data-name="Rectangle 183" width="155.057" height="4.523" transform="translate(146.517 254.415)" fill="#e5e5e5"/>
      <rect id="Rectangle_184" data-name="Rectangle 184" width="155.057" height="4.523" transform="translate(146.517 266.175)" fill="#e5e5e5"/>
      <rect id="Rectangle_185" data-name="Rectangle 185" width="155.057" height="4.523" transform="translate(146.517 277.935)" fill="#e5e5e5"/>
      <path id="Path_304" data-name="Path 304" d="M502.651,308.492a53.769,53.769,0,0,0-8.264-3.257l-.363-3.764-14.738-1.487-1.873,4.812-5.289,1.859a2.64,2.64,0,0,0-.537.262h-.006a2.445,2.445,0,0,0-1.118,1.633,2.353,2.353,0,0,0,.039.984l.28,1.073c.4.225.816.44,1.23.644l.263.126c.6.293,1.219.571,1.851.827.129.052.268.1.4.157.011.005.017.005.028.01.3.115.593.225.895.33a30.839,30.839,0,0,0,3.03.911,33.16,33.16,0,0,0,8.034.984c.99,0,1.968-.042,2.935-.131a32.9,32.9,0,0,0,6.508-1.23c.005,0,.011-.005.017-.005a31.806,31.806,0,0,0,3.908-1.45c.005-.005.017-.005.022-.01.285-.126.559-.262.839-.393l.134-.063c.224-.11.448-.22.671-.335.559-.288,1.107-.592,1.649-.916.151-.084.3-.173.447-.267.212-.131.425-.267.632-.408C503.753,309.074,503.21,308.776,502.651,308.492Z" transform="translate(-418.207 -219.998)" fill="#3f3d56"/>
      <path id="Path_305" data-name="Path 305" d="M473.032,316.921l-.922-3.9H469.7a.616.616,0,0,0-.073.005h-.006a5.458,5.458,0,0,0-2.426.785,5.272,5.272,0,0,0-1.3,1.089c.716.508,1.459.979,2.225,1.429l.034.016c.218.126.442.251.665.372.4.225.816.44,1.23.644l.263.126c.6.293,1.219.571,1.851.827.129.052.268.1.4.157.011.005.017.005.028.01.3.115.593.225.895.33Z" transform="translate(-416.247 -226.108)" fill="#3f3d56"/>
      <ellipse id="Ellipse_123" data-name="Ellipse 123" cx="10.614" cy="9.94" rx="10.614" ry="9.94" transform="translate(57.256 57.727)" fill="#ffb8b8"/>
      <path id="Path_306" data-name="Path 306" d="M481.861,259.46c1.1,1.218,2.958,1.561,4.674,1.7a46.923,46.923,0,0,0,11.954-.914c.243,2.205-.419,4.583.968,6.4a27.958,27.958,0,0,0,1.127-6.732,6.066,6.066,0,0,0-.4-2.884,2.82,2.82,0,0,0-2.413-1.666,6.265,6.265,0,0,1,2.7-1.08L497.1,252.7l.866-.832-6.1-.35,1.767-1.051a40.906,40.906,0,0,0-8.029-.237,7.248,7.248,0,0,0-3.551.924,2.318,2.318,0,0,0-.964,3.006,4.616,4.616,0,0,0-3.552,2.639,6.619,6.619,0,0,0-.27,3.387,22.744,22.744,0,0,0,1.344,5.325Z" transform="translate(-421.117 -196.634)" fill="#2f2e41"/>
      <path id="Path_307" data-name="Path 307" d="M504.437,239.253c-4.07-10.95-14.68-18.6-27.024-19.492s-24.08,5.151-29.893,15.388a27.667,27.667,0,0,0,3.092,31.812c.279.33.57.66.867.979.022.021.039.042.061.063a29.263,29.263,0,0,0,2.32,2.241c.213.183.436.372.66.55.425.356.861.7,1.314,1.021.179.131.352.262.537.387.716.508,1.459.979,2.225,1.429l.034.016c.218.126.442.251.665.372.4.225.816.44,1.23.644l.263.126c.6.293,1.219.571,1.851.827.129.052.268.1.4.157.011.005.017.005.028.01.3.115.593.225.895.33a30.844,30.844,0,0,0,3.03.911,33.159,33.159,0,0,0,8.034.984c.99,0,1.968-.042,2.935-.131a32.893,32.893,0,0,0,6.508-1.23c.006,0,.011-.005.017-.005a31.811,31.811,0,0,0,3.908-1.45c.005-.005.017-.005.022-.01.285-.126.559-.262.839-.393l.134-.063c.224-.11.447-.22.671-.335.559-.288,1.107-.592,1.649-.916.151-.084.3-.173.448-.267.212-.131.425-.267.632-.408.274-.178.548-.361.816-.55.084-.058.173-.115.257-.178C504.6,264.432,508.875,251.183,504.437,239.253ZM492.83,270.8c-.185.136-.375.267-.565.387s-.369.257-.559.372c-.162.11-.324.215-.492.314l-.05.031c-.123.079-.246.152-.369.225q-.7.408-1.409.785l-.151.078c-.212.11-.425.215-.637.319-.028.016-.062.026-.09.042l-.034.016c-.268.131-.542.257-.816.377a28.508,28.508,0,0,1-3.26,1.236c-.146.047-.291.094-.436.136a31.081,31.081,0,0,1-6.161,1.173c-.917.079-1.845.12-2.779.12a30.9,30.9,0,0,1-7.6-.932,28.914,28.914,0,0,1-3.729-1.183c-.062-.026-.129-.047-.19-.073s-.129-.047-.19-.073-.129-.052-.2-.084c-.526-.215-1.046-.45-1.554-.7l-.246-.12c-.621-.3-1.23-.628-1.823-.974-.173-.1-.352-.2-.52-.314-.045-.026-.084-.052-.129-.079-.4-.246-.794-.5-1.18-.77-.263-.183-.526-.366-.783-.555-.43-.3-.844-.628-1.247-.963-.212-.168-.419-.351-.621-.524a27.492,27.492,0,0,1-2.248-2.178c-.235-.251-.464-.5-.682-.764a2.035,2.035,0,0,1-.14-.162,26.154,26.154,0,0,1-2.576-30.657c5.873-9.76,17.468-15.222,29.338-13.819s21.652,9.392,24.75,20.212-1.1,22.321-10.63,29.1Z" transform="translate(-406.719 -182.36)" fill="#3f3d56"/>
      <path id="Path_308" data-name="Path 308" d="M504.438,429.3c-4.07-10.95-14.68-18.6-27.025-19.493s-24.081,5.151-29.893,15.388A27.667,27.667,0,0,0,450.612,457c.28.33.57.66.866.979.022.021.039.042.061.063a29.288,29.288,0,0,0,2.321,2.241c.212.183.436.372.66.55.425.356.861.7,1.314,1.021a30.747,30.747,0,0,0,2.762,1.817l.034.016c.621.361,1.252.7,1.9,1.016l.263.126c.6.293,1.219.571,1.851.827.129.052.268.1.4.157.011.005.017.005.028.01a31.71,31.71,0,0,0,3.925,1.241,33.16,33.16,0,0,0,8.034.984c.99,0,1.968-.042,2.935-.131a32.9,32.9,0,0,0,6.508-1.23c.006,0,.011-.005.017-.005a31.781,31.781,0,0,0,3.908-1.45c.005-.005.017-.005.022-.01.285-.126.559-.262.839-.393l.134-.063c.224-.11.447-.22.671-.335.559-.288,1.107-.592,1.649-.916.151-.084.3-.173.447-.267.492-.3.978-.628,1.448-.958.084-.058.173-.115.258-.178,10.745-7.638,15.016-20.887,10.578-32.817Z" transform="translate(-406.72 -271.425)" fill="#fff"/>
      <ellipse id="Ellipse_188" data-name="Ellipse 188" cx="4.668" cy="4.371" rx="4.668" ry="4.371" transform="translate(73.913 170.738)" fill="#2f2e41"/>
      <path id="Path_969" data-name="Path 969" d="M516.4,470.432a4.741,4.741,0,0,1,4.009,2.131,4.132,4.132,0,0,1,.1,4.315,4.146,4.146,0,0,0,.59-4.561,4.813,4.813,0,0,0-8.344-.241,4.781,4.781,0,0,1,3.645-1.644Z" transform="translate(-436.515 -299.573)" fill="#2f2e41"/>
      <ellipse id="Ellipse_189" data-name="Ellipse 189" cx="13.713" cy="12.841" rx="13.713" ry="12.841" transform="translate(56.146 149.419)" fill="#2f2e41"/>
      <path id="Path_970" data-name="Path 970" d="M479.343,435.49a14.375,14.375,0,0,1,19-1.347c-.112-.1-.224-.2-.339-.3a14.373,14.373,0,0,0-19.363,1,12.278,12.278,0,0,0,1.064,18.132l.078.065c.116.1.236.188.355.281a12.263,12.263,0,0,1-.8-17.831Z" transform="translate(-420.247 -281.197)" fill="#2f2e41"/>
      <ellipse id="Ellipse_190" data-name="Ellipse 190" cx="8.832" cy="8.27" rx="8.832" ry="8.27" transform="translate(60.91 158.451)" fill="#a0616a"/>
      <path id="Path_309" data-name="Path 309" d="M498.537,492.593v2.775c-.542.325-1.09.628-1.649.916-.224.115-.447.225-.671.335l-.134.063c-.28.131-.554.267-.839.393-.005.005-.017.005-.022.01a31.788,31.788,0,0,1-3.908,1.45c-.005,0-.011.005-.017.005a32.894,32.894,0,0,1-6.508,1.23c-.967.089-1.946.131-2.935.131a33.158,33.158,0,0,1-8.034-.984,31.7,31.7,0,0,1-3.925-1.241c-.011-.005-.017-.005-.028-.01-.129-.052-.268-.1-.4-.157-.632-.257-1.247-.534-1.851-.827l-.263-.126c-.643-.319-1.275-.654-1.9-1.016l-.034-.016a30.716,30.716,0,0,1-2.762-1.817c-.453-.325-.889-.665-1.314-1.021-.224-.178-.447-.366-.66-.55a29.314,29.314,0,0,1-2.32-2.241,10.046,10.046,0,0,1,.425-1.607l.005-.005a2.27,2.27,0,0,1,.117-.262,2.024,2.024,0,0,1,.106-.22c1-1.754,2.813-2.188,5.06-2.283,1.269-.052,2.672.005,4.154-.01.783-.005,1.593-.031,2.4-.1,5.116-.435,4.188-3.262,4.417-4.785.229-1.476,1.649-.2,1.744-.115l.005.005a19.123,19.123,0,0,0,9.281,1.523c.548-.063,1.1-.1,1.644-.115,1.443-.016,1.129.372.632.691a6.385,6.385,0,0,1-.755.4s-.229,1.309-.464,3.267c-.224,1.874,3.612,2.754,3.93,2.822a.036.036,0,0,0,.022.005,8.2,8.2,0,0,1,4.255.1h.005a4.836,4.836,0,0,1,3.176,3.382Z" transform="translate(-412.991 -304.324)" fill="#6c63ff"/>
      <path id="Path_310" data-name="Path 310" d="M474.169,500.1c0,.387-.011.759-.028,1.11-.005.209-.017.414-.028.607-.011-.005-.017-.005-.028-.01-.129-.052-.268-.1-.4-.157-.632-.257-1.247-.534-1.851-.827l-.263-.126c-.643-.319-1.275-.654-1.9-1.016.017-.183.045-.367.073-.55.061-.4.112-.812.146-1.215a15.917,15.917,0,0,0-1.594-8.251v-.005c-.112-.209-.179-.325-.179-.325a3.55,3.55,0,0,1,3.947,0,1.372,1.372,0,0,1,.386.314C473.856,491.2,474.236,496.39,474.169,500.1Z" transform="translate(-417.21 -308.467)" fill="#2f2e41"/>
      <path id="Path_311" data-name="Path 311" d="M520.161,502.78c-.023.586-.056,1.2-.1,1.822v.005c-.005.005-.017.005-.022.01a31.782,31.782,0,0,1-3.908,1.45c-.005,0-.011.005-.017.005l-.061-1.471-.006-.194-.3-7.162a1.159,1.159,0,0,1,.354-.884,1.327,1.327,0,0,1,.927-.372h2.834c.14,0,.241.267.308.749v.005A42.516,42.516,0,0,1,520.161,502.78Z" transform="translate(-437.813 -311.857)" fill="#2f2e41"/>
      <path id="Path_975" data-name="Path 975" d="M487.993,443.765v8.272h2.045l2.6-2.612-.348,2.612h9.041l-.559-2.612,1.118,2.612h1.441v-8.272Z" transform="translate(-425.804 -287.381)" fill="#2f2e41"/>
      <ellipse id="Ellipse_191" data-name="Ellipse 191" cx="0.697" cy="1.197" rx="0.697" ry="1.197" transform="translate(60.097 163.784)" fill="#a0616a"/>
      <ellipse id="Ellipse_192" data-name="Ellipse 192" cx="0.697" cy="1.197" rx="0.697" ry="1.197" transform="translate(77.993 163.784)" fill="#a0616a"/>
      <path id="Path_312" data-name="Path 312" d="M529.284,503.785c-.47.33-.956.654-1.448.958-.151.094-.3.183-.447.267-.542.325-1.09.628-1.649.916-.224.115-.447.225-.671.335v-5.77s.894.67,2.32,1.785c.179.141.363.288.559.445C528.361,503.048,528.809,503.4,529.284,503.785Z" transform="translate(-441.843 -313.967)" fill="#6c63ff"/>
      <path id="Path_313" data-name="Path 313" d="M504.438,429.3c-4.07-10.95-14.68-18.6-27.025-19.493s-24.081,5.151-29.893,15.388A27.667,27.667,0,0,0,450.612,457c.28.33.57.66.866.979.022.021.039.042.061.063a29.288,29.288,0,0,0,2.321,2.241c.212.183.436.372.66.55.425.356.861.7,1.314,1.021a30.747,30.747,0,0,0,2.762,1.817l.034.016c.621.361,1.252.7,1.9,1.016l.263.126c.6.293,1.219.571,1.851.827.129.052.268.1.4.157.011.005.017.005.028.01a31.71,31.71,0,0,0,3.925,1.241,33.16,33.16,0,0,0,8.034.984c.99,0,1.968-.042,2.935-.131a32.9,32.9,0,0,0,6.508-1.23c.006,0,.011-.005.017-.005a31.781,31.781,0,0,0,3.908-1.45c.005-.005.017-.005.022-.01.285-.126.559-.262.839-.393l.134-.063c.224-.11.447-.22.671-.335.559-.288,1.107-.592,1.649-.916.151-.084.3-.173.447-.267.492-.3.978-.628,1.448-.958.084-.058.173-.115.258-.178,10.745-7.638,15.016-20.887,10.578-32.817ZM492.831,460.84c-.185.136-.375.267-.565.387s-.369.257-.559.372c-.162.11-.324.215-.492.314-.14.089-.28.173-.419.257q-.7.408-1.409.785l-.151.079c-.212.11-.425.215-.637.319-.028.016-.062.026-.09.042l-.034.016c-.268.131-.542.257-.816.377a28.505,28.505,0,0,1-3.26,1.236c-.145.047-.291.094-.436.136a31.084,31.084,0,0,1-6.161,1.173c-.917.079-1.845.12-2.779.12a30.908,30.908,0,0,1-7.6-.932,28.929,28.929,0,0,1-3.729-1.183c-.129-.047-.257-.1-.38-.147-.067-.026-.129-.052-.2-.084-.526-.215-1.045-.45-1.554-.7l-.246-.12c-.621-.3-1.23-.628-1.823-.974-.218-.126-.436-.257-.648-.393-.671-.414-1.325-.859-1.963-1.325-.431-.3-.844-.628-1.247-.963-.212-.168-.419-.351-.621-.524a27.528,27.528,0,0,1-2.248-2.178c-.235-.251-.464-.5-.682-.764a2.018,2.018,0,0,1-.14-.162,26.154,26.154,0,0,1-2.576-30.657c5.873-9.76,17.468-15.222,29.338-13.819s21.652,9.392,24.75,20.212-1.1,22.321-10.63,29.1Z" transform="translate(-406.72 -271.425)" fill="#3f3d56"/>
      <ellipse id="Ellipse_124" data-name="Ellipse 124" cx="12.203" cy="11.427" rx="12.203" ry="11.427" transform="translate(56.276 258.691)" fill="#2f2e41"/>
      <path id="Path_333" data-name="Path 333" d="M4.929.212c2.7.089,4.943,1.8,5.01,3.827S7.87,7.635,5.17,7.546.227,5.744.16,3.719,2.229.124,4.929.212Z" transform="translate(49.964 262.277) rotate(-45)" fill="#2f2e41"/>
      <path id="Path_334" data-name="Path 334" d="M3.62.116C5.6.164,7.255,2.442,7.319,5.2s-1.488,4.961-3.468,4.913S.216,7.791.152,5.029,1.64.068,3.62.116Z" transform="translate(70.382 259.898) rotate(-66.869)" fill="#2f2e41"/>
      <path id="Path_314" data-name="Path 314" d="M515.471,694.891l-1.438-2.119a5.8,5.8,0,0,0-7.446-2.69,5.158,5.158,0,0,0-2.872,6.973l.409,1.373.465,1.558a33.749,33.749,0,0,0,5.554-1.135.026.026,0,0,0,.014-.007,30.92,30.92,0,0,0,3.912-1.452c.007-.007.014-.007.021-.013.282-.125.557-.257.839-.389a1.243,1.243,0,0,0,.134-.066c.225-.106.451-.218.67-.33s.444-.231.655-.356Z" transform="translate(-432.396 -402.606)" fill="#cacaca"/>
      <ellipse id="Ellipse_127" data-name="Ellipse 127" cx="10.357" cy="9.698" rx="10.357" ry="9.698" transform="translate(58.509 263.148)" fill="#ffb6b6"/>
      <path id="Path_315" data-name="Path 315" d="M503.974,693.243a21.349,21.349,0,0,0-4.208-4.778,6.4,6.4,0,0,0-4.1-1.465h-14.59a6.352,6.352,0,0,0-4.486,1.818,5.459,5.459,0,0,0-1.4,5.614,5.982,5.982,0,0,0,.387.9l.719,1.346c.056.02.113.046.169.066.014.007.021.007.028.013.3.112.592.224.9.33a30.584,30.584,0,0,0,3.031.911,32.422,32.422,0,0,0,5.046.851c.994.086,1.988.132,2.989.132s1.966-.046,2.939-.132c.317-.026.634-.059.952-.092a33.734,33.734,0,0,0,5.554-1.135.025.025,0,0,0,.014-.007,30.918,30.918,0,0,0,3.912-1.452c.007-.007.014-.007.021-.013.282-.125.557-.257.839-.389a1.262,1.262,0,0,0,.134-.066c.225-.106.451-.218.67-.33s.444-.231.655-.356.437-.238.656-.363C504.531,694.147,504.256,693.685,503.974,693.243Z" transform="translate(-420.151 -401.374)" fill="#cacaca"/>
      <path id="Path_316" data-name="Path 316" d="M482.535,689.889a5.81,5.81,0,0,0-7.485,2.521l-1.3,1.835-.62.878-.944,1.333c.2.1.387.2.585.3l.261.125c.606.29,1.219.568,1.854.825.07.033.148.059.225.092.056.02.113.046.169.066.014.007.021.007.028.013.3.112.592.224.9.33a30.608,30.608,0,0,0,3.031.911,32.43,32.43,0,0,0,5.046.852l.493-1.564.479-1.492a5.15,5.15,0,0,0-2.721-7.022Z" transform="translate(-418.968 -402.495)" fill="#cacaca"/>
      <path id="Path_317" data-name="Path 317" d="M480.582,646.888a14.766,14.766,0,0,0,8.05,2.33,8.962,8.962,0,0,1-3.421,1.318,30.292,30.292,0,0,0,11.6.061,7.857,7.857,0,0,0,2.429-.781,2.905,2.905,0,0,0,1.5-1.877c.255-1.362-.879-2.6-2.056-3.433a15.992,15.992,0,0,0-12.745-2.385,7.11,7.11,0,0,0-3.775,2,3.06,3.06,0,0,0-.318,3.824Z" transform="translate(-422.599 -380.142)" fill="#2f2e41"/>
      <path id="Path_318" data-name="Path 318" d="M504.442,619.336c-4.069-10.951-14.679-18.6-27.025-19.5s-24.082,5.151-29.9,15.388a27.668,27.668,0,0,0,3.095,31.814c.275.33.571.66.867.977a.554.554,0,0,0,.056.066,28.786,28.786,0,0,0,2.326,2.237c.211.185.43.376.656.554.423.356.86.693,1.318,1.016.176.132.352.264.536.389.712.508,1.459.977,2.22,1.432a.055.055,0,0,1,.035.013c.219.125.444.251.67.37s.43.238.642.35.387.2.585.3l.26.125c.606.29,1.219.568,1.854.825.07.033.148.059.225.092.056.02.113.046.169.066.014.007.021.007.028.013.3.112.592.224.9.33a30.574,30.574,0,0,0,3.031.911,32.419,32.419,0,0,0,5.046.851c.994.086,1.988.132,2.989.132s1.966-.046,2.939-.132c.317-.026.634-.059.952-.092a33.734,33.734,0,0,0,5.554-1.135.026.026,0,0,0,.014-.007,30.938,30.938,0,0,0,3.912-1.452c.007-.007.014-.007.021-.013.282-.125.557-.257.839-.389a1.261,1.261,0,0,0,.134-.066c.225-.106.451-.218.67-.33s.444-.231.655-.356.437-.238.656-.363l.338-.2c.155-.086.3-.172.451-.271.211-.125.423-.264.627-.4.275-.178.55-.363.818-.554a3.074,3.074,0,0,0,.261-.178c10.737-7.643,15.006-20.885,10.579-32.815Zm-11.608,31.541c-.183.139-.374.271-.564.389s-.374.257-.564.376c-.162.106-.324.211-.493.31a.309.309,0,0,1-.05.033c-.12.079-.247.152-.367.224-.085.046-.169.1-.254.145-.247.145-.493.284-.747.416-.134.079-.275.152-.409.224l-.148.079c-.219.112-.43.211-.642.317-.028.02-.063.026-.084.046a.056.056,0,0,0-.035.013c-.268.132-.543.257-.817.376a28.312,28.312,0,0,1-3.263,1.234c-.141.046-.289.1-.43.139a31.241,31.241,0,0,1-5.519,1.109c-.211.026-.43.046-.648.066-.916.079-1.839.119-2.777.119-.832,0-1.67-.033-2.5-.1a30.845,30.845,0,0,1-5.1-.832,28.247,28.247,0,0,1-3.728-1.188c-.064-.026-.127-.046-.19-.073s-.127-.046-.19-.073-.127-.053-.2-.086c-.458-.185-.916-.389-1.36-.6-.064-.033-.127-.059-.19-.092l-.247-.119c-.148-.073-.3-.145-.437-.218-.472-.238-.937-.495-1.388-.759-.169-.1-.352-.2-.522-.31l-.127-.079c-.395-.251-.789-.5-1.177-.772-.261-.185-.529-.363-.782-.554-.43-.3-.846-.627-1.248-.964-.212-.165-.423-.35-.62-.521a27.045,27.045,0,0,1-2.248-2.178c-.233-.251-.465-.5-.684-.766-.049-.053-.092-.106-.141-.165a26.158,26.158,0,0,1-2.578-30.661c5.873-9.762,17.47-15.225,29.341-13.822s21.655,9.392,24.754,20.214-1.1,22.324-10.631,29.1Z" transform="translate(-406.721 -360.486)" fill="#3f3d56"/>
      <path id="Path_319" data-name="Path 319" d="M498.807,354.166c-30.229-23.886-75.252-20.967-101.677,6.592s-24.694,69.789,3.91,95.37,73.734,25.259,101.918-.727L592.75,526.35a7.066,7.066,0,0,0,9.507-.746,6.044,6.044,0,0,0-.8-8.9l-.01-.008-89.792-70.949c21.617-29.053,16.048-68.742-12.851-91.58Zm-5.789,84.748c-19.533,21.677-54.135,24.422-77.284,6.131s-26.081-50.693-6.547-72.37,54.135-24.423,77.284-6.131h0C509.621,384.835,512.552,417.237,493.019,438.914Z" transform="translate(-378.395 -237.817)" fill="#3f3d56"/>
      <path id="Path_320" data-name="Path 320" d="M424.93,478.561c-21.816-17.239-25.863-47.266-9.306-69.041q-1.573,1.483-3.041,3.107c-19.534,21.677-16.6,54.079,6.547,72.37s57.751,15.547,77.284-6.131q1.465-1.626,2.759-3.33C479.036,494.483,446.747,495.8,424.93,478.561Z" transform="translate(-387.591 -271.332)" opacity="0.3"/>
      <path id="Path_321" data-name="Path 321" d="M886.4,632.713a6.763,6.763,0,0,0,1.582-5.814,7.135,7.135,0,0,0-3.745-4.868L867.867,559.3l-11.94,3.569,17.673,62.3a6.883,6.883,0,0,0,2.821,9.092,7.969,7.969,0,0,0,9.975-1.552Z" transform="translate(-584.964 -341.528)" fill="#ffb6b6"/>
      <path id="Path_322" data-name="Path 322" d="M495.486,442.577l-8.726,7.049-12.207,9.854-5.392-25.832-.564-2.686-.444-2.132,12.369-20.176,10.311.554.7.04.014.146.162,1.353,2.115,17.806.049.43Z" transform="translate(-202.513 -191.517)" fill="#3f3d56"/>
      <path id="Path_323" data-name="Path 323" d="M406.091,774.967h-8.64l-4.111-31.21h12.753Z" transform="translate(-170.15 -348.564)" fill="#ffb6b6"/>
      <path id="Path_324" data-name="Path 324" d="M776.85,957.457H748.989v-.33c0-5.608,4.855-10.154,10.844-10.155h17.018Z" transform="translate(-538.705 -523.211)" fill="#2f2e41"/>
      <path id="Path_325" data-name="Path 325" d="M565.081,776.209h-8.64L552.33,745h12.753Z" transform="translate(-238.926 -349.146)" fill="#ffb6b6"/>
      <path id="Path_326" data-name="Path 326" d="M935.84,958.7H907.979v-.33c0-5.608,4.855-10.154,10.844-10.155h17.018Z" transform="translate(-607.48 -523.793)" fill="#2f2e41"/>
      <path id="Path_327" data-name="Path 327" d="M874.563,753.714l-23.259,3.3L817.467,649.778l-35.938,107.9-26.078-3.3,33.831-125.4v-9.9l4.581-14.85-.479-4.019L790.05,572.1l-1.445-12.19-.094-.787a2.7,2.7,0,0,1,2.25-2.915h0l10.854-2.138h17.74l10.466,2.7.719.185.324.086L830.7,558.3l-2.453,19.259-.134,1.056-2.368,18.566-.521,4.072c20.439,13.86,21.144,27.72,21.144,27.72Z" transform="translate(-541.501 -339.075)" fill="#2f2e41"/>
      <ellipse id="Ellipse_128" data-name="Ellipse 128" cx="17.311" cy="16.21" rx="17.311" ry="16.21" transform="translate(249.531 174.222)" fill="#ffb6b6"/>
      <path id="Path_335" data-name="Path 335" d="M.014.084l34.5.282.04,4.625L.054,4.709Z" transform="translate(250.754 262.568) rotate(-7.451)" fill="#3f3d56"/>
      <path id="Path_328" data-name="Path 328" d="M730.733,633.064a7.38,7.38,0,0,1,.928.665l33.87-8.085,2.311-7.651,12.787,1.756-2.685,13.918a5.5,5.5,0,0,1-4.958,4.312l-39.547,3.9a7.493,7.493,0,0,1-7.287,3.933,7.3,7.3,0,0,1-6.506-4.991,6.69,6.69,0,0,1,2.683-7.464,7.813,7.813,0,0,1,8.4-.292Z" transform="translate(-525.887 -369.034)" fill="#ffb6b6"/>
      <path id="Path_329" data-name="Path 329" d="M816.981,561.979l-5.991-4.29c-1.62-.575-3.839,1.059-4.229,2.64l-8.458,32.34,17.62,11.88,2.467-3.63Z" transform="translate(-560.038 -340.717)" fill="#3f3d56"/>
      <g id="Group_12" data-name="Group 12" transform="translate(252.646 214.991)" opacity="0.2">
        <path id="Path_330" data-name="Path 330" d="M862.317,576.109q-2.243.834-4.567,1.452c-.493.139-1,.271-1.5.4a49.439,49.439,0,0,1-10.107,1.531,33.984,33.984,0,0,1-4.412-.112,26.338,26.338,0,0,1-4.645-.858l-.155-.04A20.761,20.761,0,0,1,828.508,574a15.953,15.953,0,0,1-1.487-1.551,13.388,13.388,0,0,1-3.214-10.91,8.8,8.8,0,0,1,.24-1.036,15.894,15.894,0,0,1,1.05-2.706c.19-.409.4-.812.627-1.208l7.964-2.521h15.167l10.466,2.7.7.04.014.145.324.086L860.2,558.3Z" transform="translate(-823.646 -554.065)"/>
      </g>
      <path id="Path_331" data-name="Path 331" d="M816.376,475.571c-3.237-.372-6.79-.109-9.313,1.826s-3.338,5.958-.949,8.038c2.115,1.841,5.422,1.408,8.255,1.931a10.657,10.657,0,0,1,8.728,10c-.042,6.715-6.924,11.8-8.16,18.414-.844,4.514,1.19,9.265,4.7,12.454a22.951,22.951,0,0,0,13.216,5.379A43.492,43.492,0,0,0,847.38,532.2a41.806,41.806,0,0,0,13.415-5.536c3.987-2.691,7.255-6.485,8.535-10.928a13.4,13.4,0,0,0-2.937-12.949c-3.777-3.906-10.061-5.25-13.328-9.541-3.663-4.81-2.307-11.66-5.271-16.874-1.979-3.482-5.726-5.856-9.721-7.107a46.113,46.113,0,0,0-12.469-1.619,17.585,17.585,0,0,0-6.555.671c-2.062.755-3.874,2.477-3.981,4.548A2.677,2.677,0,0,0,816.376,475.571Z" transform="translate(-562.799 -298.56)" fill="#2f2e41"/>
      <path id="Path_332" data-name="Path 332" d="M905.645,967.285H637.115a.661.661,0,1,1,0-1.32h268.53a.661.661,0,1,1,0,1.32Z" transform="translate(-490.006 -532.113)" fill="#cacaca"/>
    </g>
  </g>
</svg>
