<svg xmlns="http://www.w3.org/2000/svg" width="1015.36" height="618.29" viewBox="0 0 1015.36 618.29">
  <g id="undraw_teamwork_hpdk" transform="translate(0 0)">
    <path id="Path_266" data-name="Path 266" d="M1165.677,681.837H153.011a1.615,1.615,0,0,1,0-3.185H1165.674a1.615,1.615,0,0,1,0,3.185Z" transform="translate(-151.662 -63.683)" fill="#3f3d56"/>
    <ellipse id="Ellipse_72" data-name="Ellipse 72" cx="7.323" cy="8.65" rx="7.323" ry="8.65" transform="translate(310.138 59.537)" fill="#f2f2f2"/>
    <ellipse id="Ellipse_73" data-name="Ellipse 73" cx="7.323" cy="8.65" rx="7.323" ry="8.65" transform="translate(280.953 59.537)" fill="#f2f2f2"/>
    <ellipse id="Ellipse_74" data-name="Ellipse 74" cx="7.323" cy="8.65" rx="7.323" ry="8.65" transform="translate(251.769 59.537)" fill="#f2f2f2"/>
    <ellipse id="Ellipse_75" data-name="Ellipse 75" cx="7.323" cy="8.65" rx="7.323" ry="8.65" transform="translate(222.584 59.537)" fill="#f2f2f2"/>
    <ellipse id="Ellipse_76" data-name="Ellipse 76" cx="7.323" cy="8.65" rx="7.323" ry="8.65" transform="translate(310.138 95.649)" fill="#f2f2f2"/>
    <ellipse id="Ellipse_77" data-name="Ellipse 77" cx="7.323" cy="8.65" rx="7.323" ry="8.65" transform="translate(280.953 95.649)" fill="#f2f2f2"/>
    <ellipse id="Ellipse_78" data-name="Ellipse 78" cx="7.323" cy="8.65" rx="7.323" ry="8.65" transform="translate(251.769 95.649)" fill="#f2f2f2"/>
    <ellipse id="Ellipse_79" data-name="Ellipse 79" cx="7.323" cy="8.65" rx="7.323" ry="8.65" transform="translate(222.584 95.649)" fill="#f2f2f2"/>
    <ellipse id="Ellipse_80" data-name="Ellipse 80" cx="7.323" cy="8.65" rx="7.323" ry="8.65" transform="translate(310.138 131.762)" fill="#f2f2f2"/>
    <ellipse id="Ellipse_81" data-name="Ellipse 81" cx="7.323" cy="8.65" rx="7.323" ry="8.65" transform="translate(280.953 131.762)" fill="#f2f2f2"/>
    <ellipse id="Ellipse_82" data-name="Ellipse 82" cx="7.323" cy="8.65" rx="7.323" ry="8.65" transform="translate(251.769 131.762)" fill="#f2f2f2"/>
    <ellipse id="Ellipse_83" data-name="Ellipse 83" cx="7.323" cy="8.65" rx="7.323" ry="8.65" transform="translate(222.584 131.762)" fill="#f2f2f2"/>
    <ellipse id="Ellipse_84" data-name="Ellipse 84" cx="7.323" cy="8.65" rx="7.323" ry="8.65" transform="translate(310.138 167.874)" fill="#f2f2f2"/>
    <ellipse id="Ellipse_85" data-name="Ellipse 85" cx="7.323" cy="8.65" rx="7.323" ry="8.65" transform="translate(280.953 167.874)" fill="#f2f2f2"/>
    <ellipse id="Ellipse_86" data-name="Ellipse 86" cx="7.323" cy="8.65" rx="7.323" ry="8.65" transform="translate(251.769 167.874)" fill="#f2f2f2"/>
    <ellipse id="Ellipse_87" data-name="Ellipse 87" cx="7.323" cy="8.65" rx="7.323" ry="8.65" transform="translate(222.584 167.874)" fill="#f2f2f2"/>
    <ellipse id="Ellipse_88" data-name="Ellipse 88" cx="7.323" cy="8.65" rx="7.323" ry="8.65" transform="translate(310.138 203.987)" fill="#f2f2f2"/>
    <ellipse id="Ellipse_89" data-name="Ellipse 89" cx="7.323" cy="8.65" rx="7.323" ry="8.65" transform="translate(280.953 203.987)" fill="#f2f2f2"/>
    <ellipse id="Ellipse_90" data-name="Ellipse 90" cx="7.323" cy="8.65" rx="7.323" ry="8.65" transform="translate(251.769 203.987)" fill="#f2f2f2"/>
    <ellipse id="Ellipse_91" data-name="Ellipse 91" cx="7.323" cy="8.65" rx="7.323" ry="8.65" transform="translate(222.584 203.987)" fill="#f2f2f2"/>
    <ellipse id="Ellipse_92" data-name="Ellipse 92" cx="7.323" cy="8.65" rx="7.323" ry="8.65" transform="translate(310.138 240.1)" fill="#f2f2f2"/>
    <ellipse id="Ellipse_93" data-name="Ellipse 93" cx="7.323" cy="8.65" rx="7.323" ry="8.65" transform="translate(280.953 240.1)" fill="#f2f2f2"/>
    <ellipse id="Ellipse_94" data-name="Ellipse 94" cx="7.323" cy="8.65" rx="7.323" ry="8.65" transform="translate(251.769 240.1)" fill="#f2f2f2"/>
    <ellipse id="Ellipse_95" data-name="Ellipse 95" cx="7.323" cy="8.65" rx="7.323" ry="8.65" transform="translate(222.584 240.1)" fill="#f2f2f2"/>
    <path id="Path_267" data-name="Path 267" d="M375.19,585.483v2.675c.007,9.23,6.34,16.711,14.155,16.719H491.257c7.816,0,14.152-7.487,14.154-16.719v-2.675a18.509,18.509,0,0,0-3.284-10.7,15.942,15.942,0,0,0-2.389-2.675s-56.029-1.5-56.029-3.344H389.345c-7.813.013-14.144,7.491-14.154,16.719Z" transform="translate(-122.076 -100.771)" fill="#ccc"/>
    <rect id="Rectangle_173" data-name="Rectangle 173" width="14.721" height="112.351" transform="translate(311.684 503.441)" fill="#ccc"/>
    <path id="Path_268" data-name="Path 268" d="M488.562,683.044c0,1.879-22.307.727-49.824.727s-49.824,1.152-49.824-.727,22.307-16.777,49.824-16.777S488.562,681.165,488.562,683.044Z" transform="translate(-120.26 -67.863)" fill="#ccc"/>
    <path id="Path_269" data-name="Path 269" d="M465.969,616.664a16.466,16.466,0,0,0,2.081-11.907,14.189,14.189,0,0,0-6.392-9.529l-31.2-125.572L406.7,483.4l38.139,119.112c-2.4,6.749-.148,14.551,5.243,18.162s12.216,1.888,15.887-4.009Z" transform="translate(-117.905 -134.22)" fill="#a0616a"/>
    <path id="Path_270" data-name="Path 270" d="M438.267,498.381l-26.591,8.5A4.769,4.769,0,0,1,407.2,506a6.7,6.7,0,0,1-2.362-4.583L401.62,469.2c-2.162-9.546,2.636-19.355,10.718-21.909s16.386,3.114,18.549,12.66l10.954,29.633a7.511,7.511,0,0,1-.082,5.364,5.784,5.784,0,0,1-3.492,3.431Z" transform="translate(-118.646 -141.975)" fill="#6c63ff"/>
    <path id="Path_271" data-name="Path 271" d="M313.516,460.833H327.4L334,418.3h-20.49Z" transform="translate(41.497 141.18)" fill="#a0616a"/>
    <path id="Path_272" data-name="Path 272" d="M462.051,664.962h27.341c9.623,0,17.423,9.214,17.423,20.58v.668l-44.763,0Z" transform="translate(-110.579 -68.304)" fill="#2f2e41"/>
    <path id="Path_273" data-name="Path 273" d="M490.373,690.988a4.362,4.362,0,0,1-.487-.027l-19.212-1.652a5.06,5.06,0,0,1-3.837-2.778,6.974,6.974,0,0,1-.477-5.286l25.712-68.232a5.449,5.449,0,0,0-.222-3.743,4.1,4.1,0,0,0-2.5-2.354c-12.09-3.733-43.111-13.673-69.964-25.3-11.5-4.983-18.751-12.184-21.536-21.4-3.672-12.154,1.76-23.238,1.993-23.7l.182-.364,25.268,2.713,27.393,2.752,60.03,38.022c10.431,6.663,14.778,21.674,9.986,34.487l-27.676,73.306a5.131,5.131,0,0,1-4.65,3.567Z" transform="translate(-119.246 -111.781)" fill="#2f2e41"/>
    <ellipse id="Ellipse_96" data-name="Ellipse 96" cx="27.812" cy="32.85" rx="27.812" ry="32.85" transform="translate(282.625 226.38)" fill="#a0616a"/>
    <path id="Path_274" data-name="Path 274" d="M306.516,459.833H320.4L327,417.3h-20.49Z" transform="translate(40.57 140.843)" fill="#a0616a"/>
    <path id="Path_275" data-name="Path 275" d="M455.051,663.962h27.341c9.623,0,17.423,9.214,17.423,20.58v.668l-44.763,0Z" transform="translate(-111.506 -68.641)" fill="#2f2e41"/>
    <path id="Path_276" data-name="Path 276" d="M483.373,693.988a4.375,4.375,0,0,1-.487-.027l-19.212-1.652a5.06,5.06,0,0,1-3.837-2.778,6.974,6.974,0,0,1-.476-5.286l25.712-68.232a5.449,5.449,0,0,0-.222-3.743,4.1,4.1,0,0,0-2.5-2.354c-12.09-3.733-43.111-13.673-69.964-25.3-11.5-4.983-18.751-12.184-21.536-21.4-3.672-12.154,1.76-23.238,1.994-23.7l.182-.364,25.268,2.713,27.393,2.752,60.03,38.022c10.431,6.663,14.778,21.674,9.986,34.487l-27.676,73.306a5.131,5.131,0,0,1-4.65,3.567Z" transform="translate(-120.172 -110.769)" fill="#2f2e41"/>
    <path id="Path_277" data-name="Path 277" d="M438.748,454.206l-29.441-12.038s-18.482,16.772-9.6,58.38a120.543,120.543,0,0,1-3.85,64.629,72.587,72.587,0,0,1-2.966,7.4s32.838,46.813,63.412,12.038l-11.89-67.544S463.093,472.262,438.748,454.206Z" transform="translate(-119.734 -143.498)" fill="#2f2e41"/>
    <path id="Path_278" data-name="Path 278" d="M434.061,460.053c-3.958-7-7.082-16.7-2.724-23.361,4.3-6.573,12.787-5.6,19.375-8.513,9.177-4.051,14.5-16.785,12.839-28.189s-9.41-20.858-18.643-24.726-19.645-2.61-28.686,1.844a48.655,48.655,0,0,0-24.682,29.527c-4,13.437-1.863,29.57,6.442,39.9,8.9,11.072,22.88,14.023,35.808,13.844" transform="translate(-120.171 -166.856)" fill="#2f2e41"/>
    <path id="Path_279" data-name="Path 279" d="M421.051,397.961c-4.988,4.8-12.6,2.666-17.952-1.543s-9.7-10.2-15.492-13.5c-10.213-5.818-22.561-1.95-32.5,4.494s-18.751,15.348-29.25,20.405-23.9,5.307-31.847-4.242c-4.008,13.717-.3,28.931,9.267,38.033s22.942,10.138,33.435,2.589c11.5-8.277,17.859-25.632,30.762-30.2,7.14-2.528,14.807-.492,22.023,1.713s14.741,4.588,22.023,2.711,14.094-9.607,13.168-18.344Z" transform="translate(-133.032 -164.46)" fill="#2f2e41"/>
    <path id="Path_280" data-name="Path 280" d="M486.227,643.292a264.194,264.194,0,0,1,0-68.18c.386-2.777,2.415-4.817,4.8-4.823h45.15a4.582,4.582,0,0,1,3.8,2.175,6.6,6.6,0,0,1,.914,4.955,161.032,161.032,0,0,0,0,63.565,6.6,6.6,0,0,1-.914,4.955,4.582,4.582,0,0,1-3.8,2.175h-45.15c-2.383-.006-4.412-2.046-4.8-4.823Z" transform="translate(-107.672 -100.256)" fill="#6c63ff"/>
    <path id="Path_281" data-name="Path 281" d="M520.974,597.387H497.282c-1.875,0-3.4-1.8-3.4-4.013v-1.567c0-2.215,1.522-4.01,3.4-4.012h23.693c1.875,0,3.4,1.8,3.4,4.012v1.567c0,2.215-1.522,4.011-3.4,4.013Z" transform="translate(-106.366 -94.348)" fill="#fff"/>
    <path id="Path_282" data-name="Path 282" d="M520.974,609.732H497.282c-1.875,0-3.4-1.8-3.4-4.013v-1.568c0-2.215,1.522-4.01,3.4-4.013h23.693c1.875,0,3.4,1.8,3.4,4.013v1.568c0,2.215-1.522,4.011-3.4,4.013Z" transform="translate(-106.366 -90.182)" fill="#fff"/>
    <path id="Path_283" data-name="Path 283" d="M506.457,608.343a16.729,16.729,0,0,0-.5-12.143,12.627,12.627,0,0,0-8.205-7.341L440.977,476.477,420.88,496.8,483,600.876c-.9,7.243,2.935,14.133,8.918,16.038s12.228-1.776,14.535-8.57Z" transform="translate(-116.029 -131.918)" fill="#a0616a"/>
    <path id="Path_284" data-name="Path 284" d="M453.688,501.235l-23.949,16.08a4.72,4.72,0,0,1-4.525.468,6,6,0,0,1-3.256-3.74L412.032,483.8c-4.113-8.605-1.541-19.519,5.744-24.377s16.525-1.82,20.638,6.785l16.875,25.461a7.347,7.347,0,0,1,1.055,5.218,6.49,6.49,0,0,1-2.656,4.353Z" transform="translate(-117.459 -138.457)" fill="#2f2e41"/>
    <path id="Path_285" data-name="Path 285" d="M728.229,519.614H268.49c-4.065,0-7.36,3.892-7.36,8.694s3.3,8.694,7.36,8.694h13.022V726.259c0,4.8,3.3,8.694,7.36,8.694s7.36-3.892,7.36-8.694V553.707L378.75,730.362c2.033,4.158,6.534,5.583,10.054,3.182s4.727-7.718,2.694-11.876L305.239,537H699.354v.113L613.148,721.669c-2.033,4.158-.827,9.475,2.694,11.876s8.022.976,10.054-3.182L699.354,573.1V726.259c0,4.8,3.3,8.694,7.36,8.694s7.36-3.892,7.36-8.694V541.585L716.216,537h12.013c4.065,0,7.36-3.892,7.36-8.694s-3.3-8.694-7.36-8.694Z" transform="translate(-137.173 -117.359)" fill="#3f3d56"/>
    <rect id="Rectangle_174" data-name="Rectangle 174" width="97.383" height="9.363" rx="3.5" transform="translate(307.398 396.905)" fill="#ccc"/>
    <path id="Path_286" data-name="Path 286" d="M571.27,543.539H470.49c-4.063-.005-7.356-3.895-7.36-8.694V469.308c0-4.8,3.3-8.688,7.36-8.694H571.27c4.063.005,7.356,3.895,7.36,8.694v65.538C578.626,539.645,575.334,543.534,571.27,543.539Z" transform="translate(-110.436 -137.272)" fill="#ccc"/>
    <ellipse id="Ellipse_97" data-name="Ellipse 97" cx="6.794" cy="8.025" rx="6.794" ry="8.025" transform="translate(403.649 356.78)" fill="#fff"/>
    <path id="Path_287" data-name="Path 287" d="M626.55,463.657V228.925c.005-5.553,3.815-10.054,8.517-10.06H792.158c4.7.006,8.512,4.507,8.517,10.06V463.657c-.005,5.553-3.815,10.054-8.517,10.06H635.068C630.366,473.711,626.555,469.211,626.55,463.657ZM635.067,221.1c-3.657,0-6.62,3.505-6.624,7.824V463.657c0,4.319,2.967,7.82,6.624,7.824H792.158c3.657,0,6.62-3.505,6.624-7.824V228.925c0-4.319-2.967-7.82-6.624-7.824Z" transform="translate(-88.806 -218.864)" fill="#e6e6e6"/>
    <path id="Path_288" data-name="Path 288" d="M711.215,312.894V264.7c0-2.777,1.908-5.027,4.258-5.03h34.579c2.351,0,4.256,2.253,4.259,5.03v48.2c0,2.777-1.908,5.027-4.259,5.03H715.474c-2.351,0-4.256-2.253-4.259-5.03Z" transform="translate(-77.6 -205.094)" fill="#6c63ff"/>
    <path id="Path_289" data-name="Path 289" d="M651.88,329.608v-48.2c0-2.777,1.908-5.027,4.259-5.03h34.579c2.351,0,4.256,2.253,4.258,5.03v48.2c0,2.777-1.908,5.027-4.258,5.03H656.139C653.788,334.634,651.883,332.384,651.88,329.608Z" transform="translate(-85.453 -199.453)" fill="#ccc"/>
    <path id="Path_290" data-name="Path 290" d="M699.515,380.587v-48.2c0-2.777,1.908-5.027,4.258-5.03h34.579c2.351,0,4.256,2.253,4.259,5.03v48.2c0,2.777-1.908,5.027-4.258,5.03H703.773c-2.351,0-4.256-2.253-4.258-5.03Z" transform="translate(-79.148 -182.247)" fill="#ff6584"/>
    <ellipse id="Ellipse_98" data-name="Ellipse 98" cx="7.323" cy="8.65" rx="7.323" ry="8.65" transform="translate(876.757 7.16)" fill="#f2f2f2"/>
    <ellipse id="Ellipse_99" data-name="Ellipse 99" cx="7.323" cy="8.65" rx="7.323" ry="8.65" transform="translate(876.757 41.632)" fill="#f2f2f2"/>
    <ellipse id="Ellipse_100" data-name="Ellipse 100" cx="7.323" cy="8.65" rx="7.323" ry="8.65" transform="translate(876.757 76.104)" fill="#f2f2f2"/>
    <ellipse id="Ellipse_101" data-name="Ellipse 101" cx="7.323" cy="8.65" rx="7.323" ry="8.65" transform="translate(876.757 110.576)" fill="#f2f2f2"/>
    <ellipse id="Ellipse_102" data-name="Ellipse 102" cx="7.323" cy="8.65" rx="7.323" ry="8.65" transform="translate(846.184 7.16)" fill="#f2f2f2"/>
    <ellipse id="Ellipse_103" data-name="Ellipse 103" cx="7.323" cy="8.65" rx="7.323" ry="8.65" transform="translate(846.184 41.632)" fill="#f2f2f2"/>
    <ellipse id="Ellipse_104" data-name="Ellipse 104" cx="7.323" cy="8.65" rx="7.323" ry="8.65" transform="translate(846.184 76.104)" fill="#f2f2f2"/>
    <ellipse id="Ellipse_105" data-name="Ellipse 105" cx="7.323" cy="8.65" rx="7.323" ry="8.65" transform="translate(846.184 110.576)" fill="#f2f2f2"/>
    <ellipse id="Ellipse_106" data-name="Ellipse 106" cx="7.323" cy="8.65" rx="7.323" ry="8.65" transform="translate(815.61 7.16)" fill="#f2f2f2"/>
    <ellipse id="Ellipse_107" data-name="Ellipse 107" cx="7.323" cy="8.65" rx="7.323" ry="8.65" transform="translate(815.61 41.632)" fill="#f2f2f2"/>
    <ellipse id="Ellipse_108" data-name="Ellipse 108" cx="7.323" cy="8.65" rx="7.323" ry="8.65" transform="translate(815.61 76.104)" fill="#f2f2f2"/>
    <ellipse id="Ellipse_109" data-name="Ellipse 109" cx="7.323" cy="8.65" rx="7.323" ry="8.65" transform="translate(815.61 110.576)" fill="#f2f2f2"/>
    <ellipse id="Ellipse_110" data-name="Ellipse 110" cx="7.323" cy="8.65" rx="7.323" ry="8.65" transform="translate(785.036 7.16)" fill="#f2f2f2"/>
    <ellipse id="Ellipse_111" data-name="Ellipse 111" cx="7.323" cy="8.65" rx="7.323" ry="8.65" transform="translate(785.036 41.632)" fill="#f2f2f2"/>
    <ellipse id="Ellipse_112" data-name="Ellipse 112" cx="7.323" cy="8.65" rx="7.323" ry="8.65" transform="translate(785.036 76.104)" fill="#f2f2f2"/>
    <ellipse id="Ellipse_113" data-name="Ellipse 113" cx="7.323" cy="8.65" rx="7.323" ry="8.65" transform="translate(785.036 110.576)" fill="#f2f2f2"/>
    <ellipse id="Ellipse_114" data-name="Ellipse 114" cx="7.323" cy="8.65" rx="7.323" ry="8.65" transform="translate(754.462 7.16)" fill="#f2f2f2"/>
    <ellipse id="Ellipse_115" data-name="Ellipse 115" cx="7.323" cy="8.65" rx="7.323" ry="8.65" transform="translate(754.462 41.632)" fill="#f2f2f2"/>
    <ellipse id="Ellipse_116" data-name="Ellipse 116" cx="7.323" cy="8.65" rx="7.323" ry="8.65" transform="translate(754.462 76.104)" fill="#f2f2f2"/>
    <ellipse id="Ellipse_117" data-name="Ellipse 117" cx="7.323" cy="8.65" rx="7.323" ry="8.65" transform="translate(754.462 110.576)" fill="#f2f2f2"/>
    <ellipse id="Ellipse_118" data-name="Ellipse 118" cx="7.323" cy="8.65" rx="7.323" ry="8.65" transform="translate(723.889 7.16)" fill="#f2f2f2"/>
    <ellipse id="Ellipse_119" data-name="Ellipse 119" cx="7.323" cy="8.65" rx="7.323" ry="8.65" transform="translate(723.889 41.632)" fill="#f2f2f2"/>
    <ellipse id="Ellipse_120" data-name="Ellipse 120" cx="7.323" cy="8.65" rx="7.323" ry="8.65" transform="translate(723.889 76.104)" fill="#f2f2f2"/>
    <ellipse id="Ellipse_121" data-name="Ellipse 121" cx="7.323" cy="8.65" rx="7.323" ry="8.65" transform="translate(723.889 110.576)" fill="#f2f2f2"/>
    <path id="Path_291" data-name="Path 291" d="M823.545,486.991a17.131,17.131,0,0,1,.73-12,12.983,12.983,0,0,1,8.065-7.346,10.312,10.312,0,0,1,1.643-.316L861.5,410.354l-6.949-14.1,17.3-15.762,13.234,21.71a17.117,17.117,0,0,1-.295,17.8l-37.781,57.13q.206.681.352,1.384a16.929,16.929,0,0,1-1.879,11.824,12.326,12.326,0,0,1-8.72,6.218,10.283,10.283,0,0,1-1.525.113c-5.228-.02-9.893-3.881-11.693-9.679Z" transform="translate(-62.831 -164.314)" fill="#ffb8b8"/>
    <path id="Path_292" data-name="Path 292" d="M626.775,466.848H612.892l-6.6-63.248h20.489Z" transform="translate(80.249 136.217)" fill="#ffb8b8"/>
    <path id="Path_293" data-name="Path 293" d="M605.333,447.384h26.774V467.3H588.476C588.476,456.3,596.023,447.384,605.333,447.384Z" transform="translate(77.891 150.995)" fill="#2f2e41"/>
    <path id="Path_294" data-name="Path 294" d="M727.775,466.848H713.892l-6.6-63.248h20.489Z" transform="translate(93.617 136.217)" fill="#ffb8b8"/>
    <path id="Path_295" data-name="Path 295" d="M706.333,447.384h26.774V467.3H689.476C689.476,456.3,697.023,447.384,706.333,447.384Z" transform="translate(91.259 150.995)" fill="#2f2e41"/>
    <path id="Path_296" data-name="Path 296" d="M874.138,390.609,842.97,404.6l-7.609-24.967c-2.086-6.845.306-14.469,5.664-18.056h0c5.425-3.631,12.28-2.05,16.15,3.724Z" transform="translate(-61.267 -171.354)" fill="#6c63ff"/>
    <path id="Path_297" data-name="Path 297" d="M780.669,694.863l-26.14-7.042c-2.884-.783-4.767-4.062-4.317-7.516C760.7,601.781,770.792,555.8,796.8,497.4c.363-1.089,4.424-23.19,7.074-37.832-.063-3.337,1.979-6.212,4.772-6.72l48.742-8.86a5.427,5.427,0,0,1,2.289-.407l.487.109-.006.566a.708.708,0,0,1-.685.709l-.648.118a7.647,7.647,0,0,1,2.01,1.614c21.356,30.339,32.461,129.791,46.566,239.661a6.665,6.665,0,0,1-1.476,4.878,5.257,5.257,0,0,1-4.006,2.141l-31.142.9c-2.83.075-5.268-2.338-5.7-5.642L844.1,545.45A4.971,4.971,0,0,0,840.334,541a4.373,4.373,0,0,0-4.724,2.906c-16.922,40.707-32.7,75.91-48.246,146.144-.634,2.929-2.867,4.98-5.427,4.984a4.861,4.861,0,0,1-1.269-.169Z" transform="translate(-72.447 -143.023)" fill="#2f2e41"/>
    <path id="Path_298" data-name="Path 298" d="M799.99,489.689a7,7,0,0,1-2.359-4.747c-3.992-44.017-1.211-78.464,8.5-105.308,3.465-9.381,10.378-16.369,18.76-18.965l25.195-1.5.13.074c11.674,6.754,18.218,21.75,16.1,36.9-8.1,25.23-14.889,51.5-9.714,72.688a7.954,7.954,0,0,1-.548,5.328,5.711,5.711,0,0,1-3.528,3.088l-47.988,13.483a4.938,4.938,0,0,1-4.548-1.04Z" transform="translate(-66.395 -171.511)" fill="#6c63ff"/>
    <path id="Path_299" data-name="Path 299" d="M797.5,428.112l-48.323-45.029a10.563,10.563,0,0,1-1.173.409,10.959,10.959,0,0,1-9.985-2.263,15.223,15.223,0,0,1-5.239-10.344c-.667-6.8,2.713-13.244,8.163-15.566a10.765,10.765,0,0,1,10.155.921,14.654,14.654,0,0,1,6.181,9.562,16.528,16.528,0,0,1,.259,1.942l48.1,32.779,11.971-8.141L830.88,412.89l-18.587,15.648a10.9,10.9,0,0,1-14.788-.426Z" transform="translate(-74.756 -173.101)" fill="#ffb8b8"/>
    <path id="Path_300" data-name="Path 300" d="M827.834,415.574l-27.571-22.146,12.957-21.677c3.552-5.943,10.213-8,15.772-4.869h0c5.628,3.169,8.462,10.71,6.675,17.766Z" transform="translate(-65.813 -169.398)" fill="#6c63ff"/>
    <ellipse id="Ellipse_122" data-name="Ellipse 122" cx="27.812" cy="32.85" rx="27.812" ry="32.85" transform="translate(747.469 110.839)" fill="#ffb8b8"/>
    <path id="Path_301" data-name="Path 301" d="M830.708,332.865c-7.148,5.779-16.534,11.719-23.835,5.565-4.794-4.041-6.3-11.523-4.36-18.09,3.5-11.808,13.1-17.007,22.285-20.992,11.94-5.18,24.941-9.3,37.267-5.591s23.22,17.806,20.995,32.6c-1.789,11.9-11.29,21.795-9.941,33.771,1.357,12.054,12.834,18.4,22.966,20.553s21.47,2.847,28.751,11.443c9.289,10.966,6.969,30.566-1.771,42.144s-21.93,16.826-34.711,20.394c-16.934,4.727-35.249,7.211-51.332-.634s-28.6-28.963-23.94-48.765c1.968-8.365,6.6-15.434,11.084-22.316s9.017-14.079,10.726-22.522c1.424-7.036.37-15.206-3.58-20.484a6.785,6.785,0,0,1-.673-6.937Z" transform="translate(-65.625 -194.069)" fill="#2f2e41"/>
  </g>
</svg>
