<svg id="undraw_back_home_nl5c" xmlns="http://www.w3.org/2000/svg" width="875.17" height="638.363" viewBox="0 0 875.17 638.363">
  <rect id="Rectangle_106" data-name="Rectangle 106" width="108.796" height="1.839" transform="translate(125.257 159.915)" fill="#f2f2f2"/>
  <rect id="Rectangle_107" data-name="Rectangle 107" width="1.554" height="17.011" transform="translate(154.787 143.363)" fill="#f2f2f2"/>
  <rect id="Rectangle_108" data-name="Rectangle 108" width="1.554" height="17.011" transform="translate(202.191 143.363)" fill="#f2f2f2"/>
  <rect id="Rectangle_109" data-name="Rectangle 109" width="108.796" height="1.839" transform="translate(87.955 67.961)" fill="#f2f2f2"/>
  <rect id="Rectangle_110" data-name="Rectangle 110" width="1.554" height="17.011" transform="translate(165.666 69.34)" fill="#f2f2f2"/>
  <rect id="Rectangle_111" data-name="Rectangle 111" width="1.554" height="17.011" transform="translate(118.263 69.34)" fill="#f2f2f2"/>
  <rect id="Rectangle_112" data-name="Rectangle 112" width="108.796" height="1.839" transform="translate(260.474 196.696)" fill="#f2f2f2"/>
  <rect id="Rectangle_113" data-name="Rectangle 113" width="1.554" height="17.011" transform="translate(290.004 180.145)" fill="#f2f2f2"/>
  <rect id="Rectangle_114" data-name="Rectangle 114" width="1.554" height="17.011" transform="translate(337.408 180.145)" fill="#f2f2f2"/>
  <rect id="Rectangle_115" data-name="Rectangle 115" width="108.796" height="1.839" transform="translate(223.173 104.743)" fill="#f2f2f2"/>
  <rect id="Rectangle_116" data-name="Rectangle 116" width="1.554" height="17.011" transform="translate(300.884 106.122)" fill="#f2f2f2"/>
  <rect id="Rectangle_117" data-name="Rectangle 117" width="1.554" height="17.011" transform="translate(253.48 106.122)" fill="#f2f2f2"/>
  <rect id="Rectangle_118" data-name="Rectangle 118" width="108.796" height="1.839" transform="translate(217.733 509.339)" fill="#f2f2f2"/>
  <rect id="Rectangle_119" data-name="Rectangle 119" width="1.554" height="17.011" transform="translate(247.263 492.788)" fill="#f2f2f2"/>
  <rect id="Rectangle_120" data-name="Rectangle 120" width="1.554" height="17.011" transform="translate(294.667 492.788)" fill="#f2f2f2"/>
  <rect id="Rectangle_121" data-name="Rectangle 121" width="108.796" height="1.839" transform="translate(180.432 417.385)" fill="#f2f2f2"/>
  <rect id="Rectangle_122" data-name="Rectangle 122" width="1.554" height="17.011" transform="translate(258.143 418.765)" fill="#f2f2f2"/>
  <rect id="Rectangle_123" data-name="Rectangle 123" width="1.554" height="17.011" transform="translate(210.739 418.765)" fill="#f2f2f2"/>
  <rect id="Rectangle_124" data-name="Rectangle 124" width="108.796" height="1.839" transform="translate(167.998 310.719)" fill="#f2f2f2"/>
  <rect id="Rectangle_125" data-name="Rectangle 125" width="1.554" height="17.011" transform="translate(197.528 294.167)" fill="#f2f2f2"/>
  <rect id="Rectangle_126" data-name="Rectangle 126" width="1.554" height="17.011" transform="translate(244.932 294.167)" fill="#f2f2f2"/>
  <rect id="Rectangle_127" data-name="Rectangle 127" width="108.796" height="1.839" transform="translate(130.696 218.765)" fill="#f2f2f2"/>
  <rect id="Rectangle_128" data-name="Rectangle 128" width="1.554" height="17.011" transform="translate(208.408 220.145)" fill="#f2f2f2"/>
  <rect id="Rectangle_129" data-name="Rectangle 129" width="1.554" height="17.011" transform="translate(161.004 220.145)" fill="#f2f2f2"/>
  <rect id="Rectangle_130" data-name="Rectangle 130" width="108.796" height="1.839" transform="translate(89.509 450.489)" fill="#f2f2f2"/>
  <rect id="Rectangle_131" data-name="Rectangle 131" width="1.554" height="17.011" transform="translate(119.04 433.937)" fill="#f2f2f2"/>
  <rect id="Rectangle_132" data-name="Rectangle 132" width="1.554" height="17.011" transform="translate(166.443 433.937)" fill="#f2f2f2"/>
  <rect id="Rectangle_133" data-name="Rectangle 133" width="108.796" height="1.839" transform="translate(52.208 358.535)" fill="#f2f2f2"/>
  <rect id="Rectangle_134" data-name="Rectangle 134" width="1.554" height="17.011" transform="translate(129.919 359.914)" fill="#f2f2f2"/>
  <rect id="Rectangle_135" data-name="Rectangle 135" width="1.554" height="17.011" transform="translate(82.515 359.914)" fill="#f2f2f2"/>
  <rect id="Rectangle_136" data-name="Rectangle 136" width="108.796" height="1.839" transform="translate(631.157 159.915)" fill="#f2f2f2"/>
  <rect id="Rectangle_137" data-name="Rectangle 137" width="1.554" height="17.011" transform="translate(660.687 143.363)" fill="#f2f2f2"/>
  <rect id="Rectangle_138" data-name="Rectangle 138" width="1.554" height="17.011" transform="translate(708.091 143.363)" fill="#f2f2f2"/>
  <rect id="Rectangle_139" data-name="Rectangle 139" width="108.796" height="1.839" transform="translate(593.855 67.961)" fill="#f2f2f2"/>
  <rect id="Rectangle_140" data-name="Rectangle 140" width="1.554" height="17.011" transform="translate(671.567 69.34)" fill="#f2f2f2"/>
  <rect id="Rectangle_141" data-name="Rectangle 141" width="1.554" height="17.011" transform="translate(624.163 69.34)" fill="#f2f2f2"/>
  <rect id="Rectangle_142" data-name="Rectangle 142" width="108.796" height="1.839" transform="translate(766.374 196.696)" fill="#f2f2f2"/>
  <rect id="Rectangle_143" data-name="Rectangle 143" width="1.554" height="17.011" transform="translate(795.903 180.145)" fill="#f2f2f2"/>
  <rect id="Rectangle_144" data-name="Rectangle 144" width="1.554" height="17.011" transform="translate(843.307 180.145)" fill="#f2f2f2"/>
  <rect id="Rectangle_145" data-name="Rectangle 145" width="108.796" height="1.839" transform="translate(729.073 104.743)" fill="#f2f2f2"/>
  <rect id="Rectangle_146" data-name="Rectangle 146" width="1.554" height="17.011" transform="translate(806.783 106.122)" fill="#f2f2f2"/>
  <rect id="Rectangle_147" data-name="Rectangle 147" width="1.554" height="17.011" transform="translate(759.38 106.122)" fill="#f2f2f2"/>
  <rect id="Rectangle_148" data-name="Rectangle 148" width="108.796" height="1.839" transform="translate(723.633 509.339)" fill="#f2f2f2"/>
  <rect id="Rectangle_149" data-name="Rectangle 149" width="1.554" height="17.011" transform="translate(753.163 492.788)" fill="#f2f2f2"/>
  <rect id="Rectangle_150" data-name="Rectangle 150" width="1.554" height="17.011" transform="translate(800.566 492.788)" fill="#f2f2f2"/>
  <rect id="Rectangle_151" data-name="Rectangle 151" width="108.796" height="1.839" transform="translate(686.332 417.385)" fill="#f2f2f2"/>
  <rect id="Rectangle_152" data-name="Rectangle 152" width="1.554" height="17.011" transform="translate(764.043 418.765)" fill="#f2f2f2"/>
  <rect id="Rectangle_153" data-name="Rectangle 153" width="1.554" height="17.011" transform="translate(716.639 418.765)" fill="#f2f2f2"/>
  <rect id="Rectangle_154" data-name="Rectangle 154" width="108.796" height="1.839" transform="translate(673.898 310.719)" fill="#f2f2f2"/>
  <rect id="Rectangle_155" data-name="Rectangle 155" width="1.554" height="17.011" transform="translate(703.428 294.167)" fill="#f2f2f2"/>
  <rect id="Rectangle_156" data-name="Rectangle 156" width="1.554" height="17.011" transform="translate(750.832 294.167)" fill="#f2f2f2"/>
  <rect id="Rectangle_157" data-name="Rectangle 157" width="108.796" height="1.839" transform="translate(636.596 218.765)" fill="#f2f2f2"/>
  <rect id="Rectangle_158" data-name="Rectangle 158" width="1.554" height="17.011" transform="translate(714.308 220.145)" fill="#f2f2f2"/>
  <rect id="Rectangle_159" data-name="Rectangle 159" width="1.554" height="17.011" transform="translate(666.904 220.145)" fill="#f2f2f2"/>
  <rect id="Rectangle_160" data-name="Rectangle 160" width="108.796" height="1.839" transform="translate(595.41 450.489)" fill="#f2f2f2"/>
  <rect id="Rectangle_161" data-name="Rectangle 161" width="1.554" height="17.011" transform="translate(624.94 433.937)" fill="#f2f2f2"/>
  <rect id="Rectangle_162" data-name="Rectangle 162" width="1.554" height="17.011" transform="translate(672.344 433.937)" fill="#f2f2f2"/>
  <rect id="Rectangle_163" data-name="Rectangle 163" width="108.796" height="1.839" transform="translate(558.108 358.535)" fill="#f2f2f2"/>
  <rect id="Rectangle_164" data-name="Rectangle 164" width="1.554" height="17.011" transform="translate(635.819 359.914)" fill="#f2f2f2"/>
  <rect id="Rectangle_165" data-name="Rectangle 165" width="1.554" height="17.011" transform="translate(588.416 359.914)" fill="#f2f2f2"/>
  <rect id="Rectangle_166" data-name="Rectangle 166" width="151.148" height="253.792" transform="translate(282.04)" fill="#3f3d56"/>
  <rect id="Rectangle_167" data-name="Rectangle 167" width="151.148" height="253.792" transform="translate(475.93 304.367)" fill="#3f3d56"/>
  <rect id="Rectangle_168" data-name="Rectangle 168" width="151.148" height="253.792" transform="translate(475.93)" fill="#3f3d56"/>
  <rect id="Rectangle_169" data-name="Rectangle 169" width="151.148" height="253.792" transform="translate(282.04 304.367)" fill="#3f3d56"/>
  <rect id="Rectangle_170" data-name="Rectangle 170" width="748.756" height="2.06" transform="translate(74.155 557.36)" fill="#2f2e41"/>
  <path id="Path_248" data-name="Path 248" d="M148.391,693.889h-8.548v85.517s55.175,21.15,108.8,0V693.889Z" transform="translate(-59.852 -150.442)" fill="#3f3d56"/>
  <ellipse id="Ellipse_53" data-name="Ellipse 53" cx="53.621" cy="9.655" rx="53.621" ry="9.655" transform="translate(79.991 534.251)" fill="#3f3d56"/>
  <ellipse id="Ellipse_54" data-name="Ellipse 54" cx="53.621" cy="9.655" rx="53.621" ry="9.655" transform="translate(79.991 534.251)" opacity="0.1"/>
  <path id="Path_249" data-name="Path 249" d="M267.592,572.41c-13.527,59.167-59.859,95.811-59.859,95.811s-24.4-59.285-10.874-118.453,59.859-95.811,59.859-95.811S281.118,513.242,267.592,572.41Z" transform="translate(-71.649 -131.137)" fill="#3f3d56"/>
  <path id="Path_250" data-name="Path 250" d="M129.529,572.41c13.527,59.167,59.859,95.811,59.859,95.811s24.4-59.285,10.874-118.453S140.4,453.957,140.4,453.957,116,513.242,129.529,572.41Z" transform="translate(-56.642 -131.137)" fill="#6c63ff"/>
  <path id="Path_251" data-name="Path 251" d="M129.672,564.891c37.118,42.755,41.651,108.479,41.651,108.479s-55.646-3.6-92.763-46.35S36.909,518.541,36.909,518.541,92.555,522.136,129.672,564.891Z" transform="translate(-36.909 -136.333)" fill="#3f3d56"/>
  <path id="Path_252" data-name="Path 252" d="M251.527,564.891c-37.118,42.755-41.651,108.479-41.651,108.479s55.646-3.6,92.763-46.35,41.652-108.479,41.652-108.479S288.645,522.136,251.527,564.891Z" transform="translate(-75.461 -136.333)" fill="#3f3d56"/>
  <ellipse id="Ellipse_55" data-name="Ellipse 55" cx="17.096" cy="20.23" rx="17.096" ry="20.23" transform="translate(117.293 302.528)" fill="#6c63ff"/>
  <ellipse id="Ellipse_56" data-name="Ellipse 56" cx="2.331" cy="2.759" rx="2.331" ry="2.759" transform="translate(339.547 133.333)" fill="#fff"/>
  <ellipse id="Ellipse_57" data-name="Ellipse 57" cx="27.199" cy="32.184" rx="27.199" ry="32.184" transform="translate(303.8 38.621)" fill="#fff"/>
  <ellipse id="Ellipse_58" data-name="Ellipse 58" cx="0.777" cy="0.92" rx="0.777" ry="0.92" transform="translate(373.74 114.023)" fill="#fff"/>
  <ellipse id="Ellipse_59" data-name="Ellipse 59" cx="0.777" cy="0.92" rx="0.777" ry="0.92" transform="translate(510.512 160)" fill="#fff"/>
  <ellipse id="Ellipse_60" data-name="Ellipse 60" cx="0.777" cy="0.92" rx="0.777" ry="0.92" transform="translate(501.963 434.941)" fill="#fff"/>
  <ellipse id="Ellipse_61" data-name="Ellipse 61" cx="0.777" cy="0.92" rx="0.777" ry="0.92" transform="translate(337.993 498.389)" fill="#fff"/>
  <ellipse id="Ellipse_62" data-name="Ellipse 62" cx="0.777" cy="0.92" rx="0.777" ry="0.92" transform="translate(567.241 192.183)" fill="#fff"/>
  <ellipse id="Ellipse_63" data-name="Ellipse 63" cx="0.777" cy="0.92" rx="0.777" ry="0.92" transform="translate(559.47 114.942)" fill="#fff"/>
  <ellipse id="Ellipse_64" data-name="Ellipse 64" cx="0.777" cy="0.92" rx="0.777" ry="0.92" transform="translate(533.048 363.217)" fill="#fff"/>
  <ellipse id="Ellipse_65" data-name="Ellipse 65" cx="0.777" cy="0.92" rx="0.777" ry="0.92" transform="translate(491.084 225.287)" fill="#fff"/>
  <ellipse id="Ellipse_66" data-name="Ellipse 66" cx="0.777" cy="0.92" rx="0.777" ry="0.92" transform="translate(497.301 95.632)" fill="#fff"/>
  <ellipse id="Ellipse_67" data-name="Ellipse 67" cx="0.777" cy="0.92" rx="0.777" ry="0.92" transform="translate(568.018 43.218)" fill="#fff"/>
  <ellipse id="Ellipse_68" data-name="Ellipse 68" cx="0.777" cy="0.92" rx="0.777" ry="0.92" transform="translate(339.547 415.631)" fill="#fff"/>
  <ellipse id="Ellipse_69" data-name="Ellipse 69" cx="0.777" cy="0.92" rx="0.777" ry="0.92" transform="translate(406.379 485.516)" fill="#fff"/>
  <ellipse id="Ellipse_70" data-name="Ellipse 70" cx="0.777" cy="0.92" rx="0.777" ry="0.92" transform="translate(320.896 346.666)" fill="#fff"/>
  <ellipse id="Ellipse_71" data-name="Ellipse 71" cx="0.777" cy="0.92" rx="0.777" ry="0.92" transform="translate(340.324 225.287)" fill="#fff"/>
  <path id="Path_253" data-name="Path 253" d="M438.934,242.891l92.088-46.961v12.432Z" transform="translate(-97.833 -15.765)" fill="#fff" opacity="0.1"/>
  <path id="Path_254" data-name="Path 254" d="M763.582,88.41V127l-151.148,56.68v-18.2Z" transform="translate(-136.504 -7.114)" fill="#fff" opacity="0.1"/>
  <path id="Path_255" data-name="Path 255" d="M533.883,495.189l46.984-30.63v4.257C554.593,483.869,534.8,494.692,533.883,495.189Z" transform="translate(-147.678 -131.99)" fill="#fff" opacity="0.1"/>
  <path id="Path_256" data-name="Path 256" d="M649.871,433.889h11.851q-6.166,3.766-12.379,7.476v-7.126Z" transform="translate(-173.413 -129.522)" fill="#fff" opacity="0.1"/>
  <path id="Path_257" data-name="Path 257" d="M765.392,367.889c-.358,2.437-3.07,5.894-7.585,10.115h-7.934Z" transform="translate(-195.82 -124.211)" fill="#fff" opacity="0.1"/>
  <path id="Path_258" data-name="Path 258" d="M821.34,547.249v6.492c-40.348,23.825-77.206,43.972-78.457,44.653Z" transform="translate(-194.262 -138.643)" fill="#fff" opacity="0.1"/>
  <path id="Path_259" data-name="Path 259" d="M720.589,555.989a9.789,9.789,0,0,0-4.691-8.668l.249-3.756H698.782l2.019,24.369h13.73l.183-2.758C718.188,564.013,720.587,560.261,720.589,555.989Zm-5.778,7.734.962-14.509a10.56,10.56,0,0,1,2.369,7.519A10.03,10.03,0,0,1,714.81,563.722Z" transform="translate(-184.432 -138.347)" fill="#6c63ff"/>
  <path id="right_hand" data-name="right hand" d="M700.79,535.506s20.532,17.353,13.688,24.294-20.532-20.823-20.532-20.823Z" transform="translate(-183.354 -137.698)" fill="#ffb9b9"/>
  <path id="left_leg" data-name="left leg" d="M580.717,564.287s3.911,57.843,4.888,65.942,1.955,80.981,3.911,89.079,3.911,27.764,3.911,27.764h11.732s-.978-35.863,1.955-49.745,1.955-52.059,1.955-52.059,5.866-68.255,2.933-77.51S580.717,564.287,580.717,564.287Z" transform="translate(-158.117 -139.87)" fill="#ffb9b9"/>
  <path id="left_shoe" data-name="left shoe" d="M597.98,759.448s-4.888,3.471-4.888,5.784.978,8.1,0,10.412-7.821,11.569-3.911,13.883,21.509,0,21.509,0-.978-16.2-1.955-17.353.978-12.726.978-12.726Z" transform="translate(-159.737 -155.717)" fill="#2f2e41"/>
  <path id="right_leg" data-name="right leg" d="M667.984,562.881s1.242,58.01.988,66.184,5.239,80.776,4.013,89.072-1.426,28.1-1.426,28.1l-11.667,1.457s-2.209-35.786-6.357-49.228-6.563-51.529-6.563-51.529-11.888-67.15-9.793-76.718S667.984,562.881,667.984,562.881Z" transform="translate(-170.646 -139.883)" fill="#ffb9b9"/>
  <path id="right_shoe" data-name="right shoe" d="M674,758.942s5.169,2.844,5.375,5.145-.254,8.175.924,10.354,8.8,10.533,5.121,13.32-21.39,2.672-21.39,2.672-.464-16.228.405-17.5-2.1-12.534-2.1-12.534Z" transform="translate(-176.307 -155.676)" fill="#2f2e41"/>
  <path id="pants" d="M592.871,470.085s-7.822,1.157-10.755,20.824-13.688,69.412-4.888,72.883,35.2,10.412,36.174,8.1,2.933-8.1,2.933-8.1-2.933,10.412.977,10.412,42.04-6.941,41.063-10.412-2.933-28.922-2.933-28.922-5.866-42.8-11.732-49.745a20.981,20.981,0,0,1-4.888-15.039Z" transform="translate(-156.583 -132.434)" fill="#2f2e41"/>
  <path id="left_hand" data-name="left hand" d="M579.179,459.911s12.71-3.471,14.665,1.157-4.888,11.569-7.821,11.569-7.822-3.471-7.822-3.471Z" transform="translate(-157.556 -131.515)" fill="#ffb9b9"/>
  <ellipse id="head" cx="17.598" cy="20.824" rx="17.598" ry="20.824" transform="translate(449.021 186.897)" fill="#ffb9b9"/>
  <path id="neck" d="M622.471,343.891s-2.1,18.486-4.057,18.486,14.665,10.412,14.665,10.412l12.71-2.314,3.911-6.941s-6.065-11.147-6.065-20.4S622.471,343.891,622.471,343.891Z" transform="translate(-166.483 -121.904)" fill="#ffb9b9"/>
  <path id="upper_body" data-name="upper body" d="M618.991,364.2s-2.933-2.314-3.911-2.314h-7.821c-.978,0-13.688,3.471-13.688,3.471l-7.821,52.059s13.688,26.608,3.911,47.432c0,0,2.933-2.314,16.621-1.157s38.13,4.628,39.107,4.628.978-9.255,0-11.569.978-1.157.978-6.941,2.933-16.2,2.933-16.2l13.688-59s-17.6-11.569-20.531-10.412-11.732,4.627-13.688,3.471S618.991,364.2,618.991,364.2Z" transform="translate(-159.239 -123.729)" fill="#ff6584"/>
  <path id="left_arm" data-name="left arm" d="M583.728,366.813l-2.933-1.157s-5.866-1.157-12.71,5.784-32.263,27.765-32.263,27.765-9.777,9.255-6.844,19.667,7.822,35.863,22.487,34.706c0,0,8.8,13.882,13.688,11.569s8.8-11.569,5.866-12.726S560.264,439.7,560.264,439.7l9.777-21.981h2.933l10.755-6.941Z" transform="translate(-146.462 -124.026)" fill="#ff6584"/>
  <path id="right_arm" data-name="right arm" d="M672.692,374.47l7.821,1.157s6.844,3.471,5.866,18.51,5.866,83.295,2.933,91.393c0,0,9.777,39.334,7.822,40.49s-13.687,8.1-12.71,3.471-10.755-37.02-10.755-37.02a51.53,51.53,0,0,1-7.821-41.647V431.156Z" transform="translate(-176.766 -124.741)" fill="#ff6584"/>
  <path id="Path_260" data-name="Path 260" d="M665.407,344.957c-2.181-3.65-4.865-6.84-7.166-10.384-5.307-8.173-7.143-19.062-14.265-25.33-7.047-6.2-18.23-12.305-27.049-11.816-11.622.644-20.841,11.313-28.853,21.3L569.707,341.61c-4.429,5.519-9.022,11.378-10.618,18.751-1.534,7.086-.037,14.7,2.772,21.215a50.561,50.561,0,0,0,12,16.952c6.148-10.018,14.762-23.85,14.762-23.85l2.005,34.406c10.417,4.085,21.606,4.888,32.583,3.985l3.251-14.107,3.413,13.326c13.118-2.058,26.3-7.417,34.417-19.53C673.27,379.367,673.747,358.915,665.407,344.957Z" transform="translate(-153.159 -118.54)" fill="#2f2e41"/>
  <path id="Path_261" data-name="Path 261" d="M601.5,341.375c-1.814-10.779.146-21.947,6.24-30.5,11.258-15.8,32.334-16.688,47.074-1.982a45.452,45.452,0,0,1,12.083,22.369,45.689,45.689,0,0,0-12.545-24.736c-14.74-14.705-35.816-13.818-47.074,1.982C600.731,317.69,598.953,329.883,601.5,341.375Z" transform="translate(-162.501 -118.431)" fill="#2f2e41"/>
  <path id="Path_262" data-name="Path 262" d="M556.929,396.67c-1.814-10.779.146-21.947,6.24-30.5,11.258-15.8,32.334-16.688,47.074-1.982a45.453,45.453,0,0,1,12.083,22.369,45.693,45.693,0,0,0-12.545-24.737c-14.74-14.705-35.816-13.818-47.074,1.982C556.165,372.985,554.388,385.179,556.929,396.67Z" transform="translate(-152.567 -122.88)" fill="#2f2e41"/>
  <path id="Path_263" data-name="Path 263" d="M658.32,339.011a27.728,27.728,0,0,1,25.037,10.346c12.182,14.81,10.856,39.715-2.961,55.627a35.449,35.449,0,0,1-20,12.029,34.871,34.871,0,0,0,22.037-12.34c13.817-15.912,15.142-40.817,2.961-55.627A27.736,27.736,0,0,0,658.32,339.011Z" transform="translate(-175.414 -121.847)" fill="#2f2e41"/>
  <path id="Path_264" data-name="Path 264" d="M712.9,499.282a4.258,4.258,0,0,0-4.811,2.237,8.166,8.166,0,0,0-.777,2.268,13.859,13.859,0,0,0,3.34,12.163,21.513,21.513,0,0,1,2.137,2.146,8.219,8.219,0,0,1,1.177,6.472,11.158,11.158,0,0,1-3.207,5.612,2.957,2.957,0,0,0-.788,1c-.526,1.331.83,2.6,1.175,4.009" transform="translate(-186.274 -134.772)" fill="#fff" opacity="0.1"/>
</svg>
