<svg id="visual" viewBox="0 0 900 600" width="900" height="600" xmlns="http://www.w3.org/2000/svg" xmlns:xlink="http://www.w3.org/1999/xlink" version="1.1"><path d="M0 546L10.7 548.5C21.3 551 42.7 556 64.2 557.7C85.7 559.3 107.3 557.7 128.8 552C150.3 546.3 171.7 536.7 193 532.2C214.3 527.7 235.7 528.3 257 533.3C278.3 538.3 299.7 547.7 321.2 551.8C342.7 556 364.3 555 385.8 553.5C407.3 552 428.7 550 450 545C471.3 540 492.7 532 514.2 529.5C535.7 527 557.3 530 578.8 535.3C600.3 540.7 621.7 548.3 643 545.3C664.3 542.3 685.7 528.7 707 524.2C728.3 519.7 749.7 524.3 771.2 524.8C792.7 525.3 814.3 521.7 835.8 522.8C857.3 524 878.7 530 889.3 533L900 536" fill="none" stroke-linecap="round" stroke-linejoin="miter" stroke="#dee4ff" stroke-width="40"></path></svg>