<svg xmlns="http://www.w3.org/2000/svg" width="802.846" height="427.014" viewBox="0 0 802.846 427.014"><path d="M333.494,741.811s-109.734-116.619-32.784-225.4c28.713-40.594,102.015-63.388,169.4-44.9,39.8,10.928,100.172,9.31,159.143-86.968,80.441-131.3,414.318-71.6,349.145,158.454-27.453,96.9,74.868,101.311,24.184,199.03Z" transform="translate(-240.713 -315.987)" fill="#ebf3fa"/><path d="M966.922,824.84,727.9,1024.8,602.137,917.675C578.6,938.4,542.247,970.4,505.675,1002.5c-24.991,21.941-45.229,39.668-61.621,54.032L329.83,1056.4c31.676-26.968,159.213-139.027,245.136-214.784l26.272-23.158,127.128,108.3,186.6-156.108Z" transform="translate(-280.057 -632.636)" fill="#d5e5fb"/><path d="M1991.89,336.3l113.838,114.184,32.158-130.439Z" transform="translate(-1387.248 -222.89)" fill="#d5e5fb"/><path d="M874.588,1376.042a213.459,213.459,0,0,0-2.428-25.893c-1.748-10.111-3.339-15.927-3.339-15.988-.231-.889-3.558-4.49-10.955-4.377s-6.7,4.829-6.7,4.829h0a1.519,1.519,0,0,0,.055.419,226.609,226.609,0,0,1,6.566,56.658c0,.446-.055,1.214-.021,1.73,0,0,17.145.443,17.148,0C875.5,1390.643,875.21,1382.945,874.588,1376.042Z" transform="translate(-643.13 -1022.042)" fill="#b7d3f3"/><path d="M881.131,1391.533c0,.443-.237.8-.522.8h0c-.285,0-.51-.361-.513-.8h-14.7c0,.443-.237.8-.522.8h0c-.3,0-.519-.373-.516-.82a222.56,222.56,0,0,0-1.214-25.1,197.326,197.326,0,0,0-5.616-31.378,1.517,1.517,0,0,1-.055-.419s-.7-4.717,6.7-4.829,10.728,3.488,10.958,4.377c0,.046.911,3.339,2.088,9.261.392,1.961.817,4.21,1.251,6.727a209.823,209.823,0,0,1,2.428,25.893C881.51,1382.945,881.729,1388.755,881.131,1391.533Z" transform="translate(-647.517 -1022.042)" fill="#d2e3fc"/><path d="M876.575,1525.057h57.6s-1.342-5.415-34.708-4.62C875.871,1521.011,876.575,1525.057,876.575,1525.057Z" transform="translate(-660.834 -1154.768)" fill="#c5dcf8"/><path d="M861.14,1594.464c6.678-33.81,4.96-54.557,4.954-54.818-.018-.522.941-.993,1.457-1.011s2.829-.155,3.093.3c.352.583,1.7,26.145-8.257,55.55Z" transform="translate(-650.086 -1167.474)" fill="#b7d3f3"/><path d="M1015.91,1594.464c-6.678-33.81-4.96-54.557-4.951-54.818,0-.522-.944-.993-1.46-1.011s-2.826-.155-3.093.3c-.349.583-1.7,26.145,8.26,55.55Z" transform="translate(-751.076 -1167.474)" fill="#b7d3f3"/><path d="M1051.024,1594.464c-6.678-33.81-4.963-54.557-4.954-54.818.015-.522-.944-.993-1.46-1.011s-2.826-.155-3.093.3c-.349.583-1.694,26.145,8.26,55.55Z" transform="translate(-775.529 -1167.474)" fill="#b7d3f3"/><path d="M896.49,1594.464c6.678-33.81,4.96-54.557,4.951-54.818,0-.522.944-.993,1.46-1.011s2.826-.155,3.093.3c.349.583,1.694,26.145-8.26,55.55Z" transform="translate(-674.706 -1167.474)" fill="#b7d3f3"/><rect width="59.961" height="3.136" rx="1.568" transform="translate(214.596 368.886)" fill="#b7d3f3"/><path d="M1052.191,1360.667l19.148-4.146,1.126,2.732s-21.121,12.591-23.106,11.984S1052.191,1360.667,1052.191,1360.667Z" transform="translate(-780.837 -1040.664)" fill="#ffb27d"/><path d="M1001.422,1620.394a1.7,1.7,0,0,0-.3,1.821h0c.437,1.214,1.888,2.568,3.573,3.919.216.173.407.334.574.479.043.036.088.076.128.115l.1.088c1.569,1.448.98,1.779,3.8,4.717,3.218,3.339,5.434,3.409,6.071,3.105.531-.261-.552-2.037-1.752-4.031-.058-.1-.115-.194-.176-.3l-.477-.8c-1.405-2.4-1.044-3.53-.713-7.1.273-2.9,4.52-16.228,4.52-16.228l-6.165-1.062s-1.858,10.609-3.9,12.242c-1.093.871-2.319.883-3.369,1.518-.073.046-.149.091-.219.14A8.044,8.044,0,0,0,1001.422,1620.394Z" transform="translate(-747.476 -1213.794)" fill="#ffb27d"/><path d="M1001.422,1652.012a1.7,1.7,0,0,0-.3,1.821h0a13.07,13.07,0,0,0,3.579,3.907c.213.176.4.34.568.492.042.036.088.076.128.115l.1.088c1.569,1.448.98,1.779,3.8,4.717,3.218,3.339,5.434,3.409,6.071,3.105.531-.261-.552-2.037-1.752-4.031a13.712,13.712,0,0,1-5.734-4.229c-1.94-2.471-3.23-5.649-4.553-7.489-.073.046-.149.091-.219.14A8.038,8.038,0,0,0,1001.422,1652.012Z" transform="translate(-747.476 -1245.412)" fill="#3e66ff"/><path d="M1154.948,1612.266c.38,1.9,3.093,1.584,6.126.844s2.31.14,6.624-.337,5.622-2.085,5.767-2.732c.118-.571-2.013-.771-4.3-1.035-.285-.03-.574-.067-.865-.1-2.58-.325-4.471-1.988-6.815-3.357-2.222-1.3-5.537-6.575-5.537-6.575l-5.916.468s3.105,4.717,4.307,6.766a7.177,7.177,0,0,1,.58,4.031A7.664,7.664,0,0,0,1154.948,1612.266Z" transform="translate(-851.283 -1209.518)" fill="#ffb27d"/><path d="M1172.18,1636.134c3.036-.741,2.31.14,6.623-.337s5.622-2.085,5.768-2.732c.118-.571-2.013-.771-4.3-1.035l-.021.046a12.142,12.142,0,0,1-6.177,1.918c-2.926.073-6.026-.768-8.047-.735a7.661,7.661,0,0,0,.046,2.025C1166.434,1637.181,1169.147,1636.878,1172.18,1636.134Z" transform="translate(-862.39 -1232.542)" fill="#3e66ff"/><path d="M1122.87,1347.125s1.409-3.454,2.96-3.594,6.484-.911,6.836-.212a4.878,4.878,0,0,1-1.059,4.159c-1.059.917-7.61,2.4-7.61,2.4Z" transform="translate(-832.368 -1031.269)" fill="#ffb27d"/><path d="M1044.976,1496.337l-12.749,34.3a11.71,11.71,0,0,1-3.837-.352,16.312,16.312,0,0,1-3.709-1.821s3.163-32.948,8.964-39.8S1044.976,1496.337,1044.976,1496.337Z" transform="translate(-763.984 -1131.418)" fill="#2a5fc8"/><path d="M909.221,1449.2s36.636-12.388,44.807-9.753,32.7,51.446,32.7,51.446a4.743,4.743,0,0,1-2.064,1.3,19.454,19.454,0,0,1-4.808.495s-22.141-18.978-24.776-24.512-3.688-10.806-6.326-10.281-34,12.916-41.116,5.537-5.255-16.969-5.255-16.969Z" transform="translate(-678.658 -1098.162)" fill="#3e66ff"/><path d="M924.427,1181.374a8.691,8.691,0,0,0-4.808-.911,2.256,2.256,0,0,1,1.014-.483,7.466,7.466,0,0,0-2.662.7c-11.45-4.411-13.25,12.446-13.007,16.365s.267,8.424-5.464,11.939c-11.231,6.912-1.758,18.978-1.758,18.978.088.052,5.233,8.776,5.233,8.776-.3-3.166,14.315-19.867,21.935-24.87,1.855-2.732,2.513-7.555,2.562-7.935a20.406,20.406,0,0,1-1.56,7.179C932.38,1205.157,928.625,1183.759,924.427,1181.374Z" transform="translate(-672.977 -917.689)" fill="#b5453c"/><path d="M969.624,1260c.039,0-3.679,1.946-6.475,1.181-2.629-.716-4.347-4.125-4.31-4.134,1.114-.222,1.433-1.751,1.412-8.326l.5.1,8.466,1.676s-.191,2.665-.2,5.16C969.014,1257.775,969.141,1259.775,969.624,1260Z" transform="translate(-718.128 -965.587)" fill="#ffb27d"/><path d="M973.576,1250.681s-.191,2.665-.2,5.16c-4.738-.134-7.243-4.456-8.269-6.851Z" transform="translate(-722.496 -965.775)" fill="#ed975d"/><path d="M955.032,1206.077a24.973,24.973,0,0,1-3.078-7.285c-.425-2.392.8-11.271,9.714-9.99a12.112,12.112,0,0,1,5.027,1.9c1.937,1.305,4.732,4.131,1.606,11.875l-.81,2.617Z" transform="translate(-713.283 -923.769)" fill="#b5453c"/><path d="M972.167,1219s-11.207.185-11.231-6.8-1.457-11.659,5.7-12.072,8.551,2.249,9.107,4.578S975.084,1218.773,972.167,1219Z" transform="translate(-719.496 -931.718)" fill="#ffb27d"/><path d="M963.541,1196.41s-3.069,8.2-7.78,9.41-6.751-.052-6.751-.052a13.332,13.332,0,0,0,4.362-7.892S961.225,1192.509,963.541,1196.41Z" transform="translate(-711.283 -928.166)" fill="#b5453c"/><path d="M994.37,1198.793s2.292,1.821,2.85,3.606.81,5.437,1.879,5.312c0,0,2.31-5.567-.3-8.715C996.058,1195.655,994.37,1198.793,994.37,1198.793Z" transform="translate(-742.874 -929.885)" fill="#b5453c"/><path d="M901.132,1309.243c-1.1-4.635,2.656-13.63,6.581-21.076,3.561-6.751,7.258-12.227,7.589-12.03,9.392,5.576,10.242.941,10.242.941h0s8.533,1.132,10.949,5.291c3,5.16,6.235,19.582,9.453,22.311-.495,1.518-.282,2.316.24,4.189.112.4.237.783.373,1.144a21.838,21.838,0,0,0,1.615,3.315c-1.636,1-4.793,2.884-7.118,1.518-3.546-2.076-6.314-8.393-7.871-10.91v-.027c-3.385,19.157,1.214,23.519-1.114,25.538-2.459,2.125-5.974-1.014-13.705,2.337-5.072,2.2-12.109,5.379-16.847,5.935-2.483.3-4.338-.143-4.942-1.821C894.806,1331.035,903.242,1318.083,901.132,1309.243Z" transform="translate(-674.594 -984.679)" fill="#3e66ff"/><path d="M990,1247.149s.206.886,2.428.75c0,0,1.855-.112,1.8-1.09A6.005,6.005,0,0,0,990,1247.149Z" transform="translate(-739.831 -964.098)" fill="#fff"/><path d="M896.543,1383.385c.607,1.676,2.459,2.125,4.942,1.821,3.278-1.43,17.445-6.918,17.3-10.624-.237-5.5-2.732-5.679-.968-12.476,1.412-5.464-11.678-15.6-13.763-17.806-3.928,7.446-4.034,7.8-2.929,12.446C903.221,1365.558,894.786,1378.51,896.543,1383.385Z" transform="translate(-674.574 -1032.154)" fill="#2a5fc8"/><path d="M889.23,1316.064a20.777,20.777,0,0,1,6.851-6.329c-.395-1.023,10.567-14.461,10.567-16.544s2.926-17.041,2.926-17.041-9.137.565-12.3,4.975C893.322,1286.641,885.105,1307.868,889.23,1316.064Z" transform="translate(-668.864 -984.691)" fill="#3e66ff"/><path d="M898.4,1386.79l18.253,4.763-1.712,3.075s-22.214-.155-23.392-1.518S898.4,1386.79,898.4,1386.79Z" transform="translate(-671.183 -1061.745)" fill="#ffb27d"/><path d="M1017.75,1367.76c1.557,2.516,4.326,8.833,7.871,10.91,2.325,1.357,5.482-.531,7.118-1.518a21.837,21.837,0,0,1-1.615-3.315c-1.305.3-2.9.68-3.925.99C1025.2,1375.422,1017.75,1367.76,1017.75,1367.76Z" transform="translate(-759.157 -1048.492)" fill="#163560"/><path d="M970.585,1399.493s5.734-1.624,7.1-1.245,6.041,3.479,5.385,4.319-4.781-.5-6.678-.249-3.363,1.19-4.729.986a15.688,15.688,0,0,1-2.793-.738Z" transform="translate(-725.115 -1069.685)" fill="#ffb27d"/><path d="M974.52,1397.141a21.556,21.556,0,0,0,3.6-2.261.225.225,0,0,1,.349.04c.212.337.413.99-.571,1.636A5.292,5.292,0,0,1,974.52,1397.141Z" transform="translate(-729.05 -1067.333)" fill="#ffb27d"/><path d="M1000.433,1424.175H973.69a2.125,2.125,0,0,1,2.125-2.125h24.612Z" transform="translate(-728.472 -1086.302)" fill="#ed7d2b"/><path d="M872.307,1017.11h41.347l-9.917,29.126H862.12Z" transform="translate(-600.422 -708.363)" fill="#ed7d2b"/><path d="M915.664,1017.11l-9.92,29.126H864.13l10.184-29.126Z" transform="translate(-601.822 -708.363)" fill="#f99746"/><path d="M1116.939,1375.556a2.687,2.687,0,0,1-2.48,2.016,1.55,1.55,0,0,1-1.551-2.016,2.692,2.692,0,0,1,2.48-2.016A1.553,1.553,0,0,1,1116.939,1375.556Z" transform="translate(-825.389 -1052.517)" fill="#f9ddbf"/><path d="M1113.77,1333.072l-9.92,29.111H1076.29c18.256-6.229,23.115-25.228,23.932-29.123Z" transform="translate(-799.927 -1024.326)" fill="#ed893e"/><path d="M802.6,1528.432a1.071,1.071,0,0,0,1.059-.871l5.194-29.445,7.467-42.336,2.088-11.839-5.318-.152-.911,6.872-6.481,48.292-3.843,28.625a.75.75,0,0,0,.744.853Z" transform="translate(-608.792 -1101.443)" fill="#95c0f4"/><path d="M835.84,1450.705a7.623,7.623,0,0,1,4.153,5.115l2.088-11.839-5.318-.152Z" transform="translate(-632.466 -1101.471)" fill="#78acea"/><path d="M1203.989,1528.432a1.071,1.071,0,0,1-1.059-.871l-5.191-29.445-7.47-42.336-2.089-11.839,5.318-.152.911,6.872,6.484,48.292,3.84,28.625a.75.75,0,0,1-.744.853Z" transform="translate(-877.853 -1101.443)" fill="#95c0f4"/><path d="M1194.421,1450.705a7.623,7.623,0,0,0-4.153,5.115l-2.089-11.839,5.318-.152Z" transform="translate(-877.853 -1101.471)" fill="#78acea"/><rect width="142.736" height="9.295" rx="4.647" transform="translate(329.745 347.161) rotate(180)" fill="#78acea"/><rect width="802.846" height="2.131" rx="1.065" transform="translate(0 424.579)" fill="#2e3552"/><path d="M1901.407,1412.71s-3.533,4.383-2.428,4.981,4.022,1.715,4.711,1.011.911-5.871.911-5.871Z" transform="translate(-1372.738 -1079.797)" fill="#ffb27d"/><path d="M1899.733,1413a5.176,5.176,0,0,0-2.013,1.254c-.568.753-1.821,1.9-1.518,2.213s2.125-1.084,2.125-1.084Z" transform="translate(-1370.921 -1079.999)" fill="#ffb27d"/><path d="M1920.677,1219.88s-3.983,37.085-4.338,38.141c-.076.228-.389,1.4-.829,3.09-.628,2.428-1.518,5.88-2.355,9.176-1.266,4.978-2.428,9.574-2.428,9.574l-3.46-1.141s-.179-18.022.71-22.159,3.737-29.648,5.16-33.087S1920.677,1219.88,1920.677,1219.88Z" transform="translate(-1378.649 -945.501)" fill="#aec3ff"/><path d="M1865.252,1454.193l-21.725-5.7a5.33,5.33,0,0,1-3.791-6.49l2.468-9.41a5.327,5.327,0,0,1,6.49-3.792l21.725,5.7a5.33,5.33,0,0,1,3.794,6.49l-2.471,9.41A5.33,5.33,0,0,1,1865.252,1454.193Z" transform="translate(-1331.507 -1090.886)" fill="#a02e2e"/><path d="M1851.573,1430.335l-2.5,9.522a5.342,5.342,0,0,0,1.3,5.024,5.159,5.159,0,0,0,1.427,1.075h0a5.275,5.275,0,0,0,1.081.428l21.686,5.688a5.352,5.352,0,0,0,6.514-3.807l2.5-9.525a5.352,5.352,0,0,0-3.807-6.514l-7.467-1.958.531-2.031a1.761,1.761,0,0,0-1.254-2.149l-.82-.216-4.553-1.19-1.129-.3a1.751,1.751,0,0,0-1.333.185,1.733,1.733,0,0,0-.813,1.072l-.534,2.031-4.326-1.135c-.173-.046-.343-.079-.513-.106h0a5.346,5.346,0,0,0-4.641,1.536h0A5.283,5.283,0,0,0,1851.573,1430.335Zm19.667-.358-7.762-2.037.534-2.031a.659.659,0,0,1,.8-.468l1.949.51,3.576.938.965.252a.7.7,0,0,1,.182.079.665.665,0,0,1,.3.726Z" transform="translate(-1338.012 -1087.885)" fill="#bc3f3f"/><path d="M1904.088,1426.368s.965-1.624.607-2.192-1.663,1.685-1.663,1.685.889-1.934.558-2.252-1.709,1.918-1.709,1.918.847-1.879.549-1.943-1.308,1.581-1.308,1.581.525-1.408.045-1.339-1.518,1.348-1.518,1.348Z" transform="translate(-1373.355 -1087.366)" fill="#ffb27d"/><path d="M1924.871,1315.971c-.628,2.428-1.518,5.88-2.355,9.176a35.722,35.722,0,0,1-1.663-7.285c-.8-6.135,1.66-19.212,1.66-19.212Z" transform="translate(-1388.009 -1000.361)" fill="#9db0f4"/><path d="M2079.373,1407.68s3.852,3.13,4.329,4.107a20.968,20.968,0,0,1,1.609,5.768c-.063,1.172-2.95-2.668-3.8-2.978s.886,1.575.692,1.979-2-.911-2.692-1.348-1.172-3.357-2.2-4.951S2079.373,1407.68,2079.373,1407.68Z" transform="translate(-1496.939 -1076.294)" fill="#ffb27d"/><path d="M1918.09,1692.129h19.2c1.375-.932-.37-10.054-.37-10.054s-5.242-1.991-6.147,2.055-6.678,5.324-9.729,5.819C1918.973,1690.29,1918.3,1691.425,1918.09,1692.129Z" transform="translate(-1386.197 -1267.056)" fill="#233862"/><path d="M2011.91,1692.129h19.206c1.375-.932-.373-10.054-.373-10.054s-5.239-1.991-6.144,2.055-6.678,5.324-9.714,5.819C2012.781,1690.29,2012.119,1691.425,2011.91,1692.129Z" transform="translate(-1451.538 -1267.056)" fill="#233862"/><path d="M1935.11,1406.31s.862,10.77,1.876,23.717c1.378,17.585,5.1,61.184,5.1,61.184s2.428,2.079,7.838.941a170.758,170.758,0,0,0,5.971-32.207l.064-.85c1.281-17.475,3.269-54.275,3.269-54.275Z" transform="translate(-1398.051 -1074.302)" fill="#3e66ff"/><path d="M1934.14,1397.47s1.157,14.492,2.17,27.438l18.908,29.918.064-.85c1.281-17.475,3.269-54.275,3.269-54.275Z" transform="translate(-1397.375 -1069.183)" fill="#2a5fc8"/><path d="M1952.29,1382.34s13.714,34.137,18.1,47.078c3.124,9.216,11.93,41.55,11.93,41.55a8.851,8.851,0,0,0,7.048-1.087s3.278-33.036-3.339-42.352c-3.509-4.942-.871-51.37-15.108-51.768S1952.29,1382.34,1952.29,1382.34Z" transform="translate(-1410.016 -1054.054)" fill="#3e66ff"/><path d="M1960.587,1275.777c-5.716,3.227-30.216,3.154-31.348.607-2.535-5.655-3.172-34.386-1.976-43.2,0,0,.607-13.544,1.976-12.946,9.049-4.159,23.7-.383,23.7-.383,3.946,1.163,3.609,10.187,4.711,22.86q.213,2.45.474,5.094c.78,7.826,1.916,16.814,3.643,26.3C1961.871,1274.748,1961.437,1275.3,1960.587,1275.777Z" transform="translate(-1392.179 -944.391)" fill="#aec3ff"/><path d="M1968.436,1195.579c-.152,2.428-3.312,2.149-7.109,1.281s-2.428-3.105-2.428-3.105.055-1.721.3-3.785c.088-.75.2-1.548.343-2.322.067-.376.14-.753.225-1.111.5-2.125,7.589-.076,7.54.5C1967.167,1188.582,1968.287,1193.676,1968.436,1195.579Z" transform="translate(-1414.451 -921.622)" fill="#ffb27d"/><path d="M1797.5,908.755l-.3-3.345,4.2.792-1.618,2.987Z" transform="translate(-1251.656 -630.57)" fill="#233862"/><path d="M1953.993,1207.29l-2.513,3.822a5.558,5.558,0,0,0,2.183,4.055l3.439-3.2S1954.877,1211.121,1953.993,1207.29Z" transform="translate(-1409.451 -936.733)" fill="#9db0f4"/><path d="M1970,1213.361a8.95,8.95,0,0,0,2.088,3.728s5.364-1.442,6.642-4.192l-2.793-3.606S1975.8,1212.019,1970,1213.361Z" transform="translate(-1422.35 -938.126)" fill="#9db0f4"/><path d="M1968.587,1192.109a13.158,13.158,0,0,1-8.147,1.73c.088-.75.2-1.548.343-2.322.932-.225,1.715-.367,1.715-.367Z" transform="translate(-1415.692 -925.493)" fill="#e2915a"/><path d="M1965.68,1155.586c-1.67,4.593-7.762,3.421-10.354,2.683-.732-.206-1.184-.38-1.184-.38-.8-.364-1.047-1.764-.977-3.53.137-3.5,1.518-8.433,2.31-9.623,1.193-1.791,3.181-3.609,9.107-1.075S1967.82,1149.7,1965.68,1155.586Z" transform="translate(-1410.617 -891.55)" fill="#ffb27d"/><path d="M1972.041,1145.69c-1.864,1.518-5.871,4.335-5.871,4.335a7.279,7.279,0,0,0,.99-2.046,1.958,1.958,0,0,0,.073-.692,3.831,3.831,0,0,1,.549-2.125c.243-.4.331-.807.024-1.1-.507-.48-1.372-.039-1.94.349a1.147,1.147,0,0,1-1.248.033h0c-1.591-1,.167-2.756-1.126-4.216s-6.9-1.66-6.678-2.574c-1.912-1.081-.707-5.069-.671-5.282a20.687,20.687,0,0,0,6.174-.607c2.783-.7,5.852,1.09,6.824,1.821a1.578,1.578,0,0,0-.155-.68,1.451,1.451,0,0,1,.413.911c.042.042.061.073.049.082a1.821,1.821,0,0,1,.877.2s-.237-.076-.349.067a.306.306,0,0,1-.049.036C1973.644,1136.835,1973.589,1144.436,1972.041,1145.69Z" transform="translate(-1412.416 -884.024)" fill="#233862"/><path d="M1958.744,1181.372s-.3.58-1.821.1c0,0-1.266-.4-1.056-1.072A4.272,4.272,0,0,1,1958.744,1181.372Z" transform="translate(-1412.49 -918)" fill="#fff"/><path d="M1956.458,1232.42s-3.357,42.4-3.309,45.933,3.719,7.267,3.719,7.267,2.923-3.2,3.494-6.581-1.618-46.186-1.618-46.186Z" transform="translate(-1410.614 -954.235)" fill="#3e66ff"/><path d="M2013.17,1223.51s5.415,1.3,9.7,9.522,7.665,24.818,9.714,29.2,3.448,18.171,3.448,18.171l-3.239,1.588s-7.813-14.133-8.97-18.769c-.625-2.507-10.181-22.581-10.181-22.581Z" transform="translate(-1452.415 -948.03)" fill="#aec3ff"/><path d="M2021.208,1326.559h0c-10.2-1.466-7.285-35.212-6.478-35.355s3.734,6.035,3.734,6.035l.279,1.369c.78,7.826,1.915,16.814,3.643,26.3C2022.492,1325.53,2022.058,1326.083,2021.208,1326.559Z" transform="translate(-1452.801 -995.173)" fill="#9db0f4"/><path d="M2422.285,1646.383s4.25,3.876,3.418,6.63-4.66,4.59-5.179,7.956-2.589,5.2-4.453,5.2h-8.888s-1.372-2.368,1.94-3.081,4.553-4.669,4.359-8.342a67.844,67.844,0,0,1,.3-8.566l7.042-1.63Z" transform="translate(-1726.629 -1241.262)" fill="#233862"/><path d="M2228.731,1675.776s.762,8.821-1.1,9.738l-23.859-.049s0-2.753,3.831-3.366,10.563-2.853,11.7-7.853S2228.731,1675.776,2228.731,1675.776Z" transform="translate(-1585.158 -1260.631)" fill="#233862"/><path d="M2219.6,1268.29s1.257,15.46,2.732,34.043c2.01,25.243,4.426,56.251,4.666,62.125.413,10.2,2.073,26.515,2.073,26.515s3.946,3.876,11.8,2.243a263.153,263.153,0,0,0,9.022-47.937c.03-.4.061-.81.094-1.214,1.864-25.089,4.763-77.916,4.763-77.916Z" transform="translate(-1596.183 -977.726)" fill="#3e66ff"/><path d="M2219.6,1268.29s1.257,15.46,2.732,34.043l27.566,42.947c.03-.4.061-.81.094-1.214,1.864-25.089,4.763-77.916,4.763-77.916Z" transform="translate(-1596.183 -977.726)" fill="#2a5fc8"/><path d="M2238.53,1256.079s22.681,55.987,37.595,82.3,19.576,33.655,19.576,33.655,8.545-3.366,9.322-5.661c0,0-5.7-50.8-15.691-63.178-5.643-6.982-10.512-22.521-10.269-29.867.422-12.667-4.335-27.347-4.335-27.347Z" transform="translate(-1609.367 -963.679)" fill="#3e66ff"/><path d="M2167.451,1282s-4.25,5.734-4.553,7.264-.677,6.982-.17,8.594,3.148-4.772,4.216-5.506-.668,2.507-.252,3,2.456-1.991,3.26-2.838.425-5.094,1.284-7.677S2167.451,1282,2167.451,1282Z" transform="translate(-1556.401 -988.765)" fill="#ffb27d"/><path d="M2195.114,1007.42s-5.722,53.276-6.232,54.794c-.113.331-.562,2.019-1.193,4.444-.911,3.464-2.173,8.445-3.382,13.177-1.821,7.155-3.788,13.356-3.788,13.356a5.016,5.016,0,0,1-2.948.379,3.12,3.12,0,0,1-2.192-1.336s.209-26.157,1.487-32.119,5.367-42.591,7.434-47.521S2195.114,1007.42,2195.114,1007.42Z" transform="translate(-1565.386 -797.534)" fill="#fff"/><path d="M2202.156,1145.51c-.911,3.464-2.173,8.445-3.382,13.177a51.363,51.363,0,0,1-2.392-10.448c-1.15-8.8,2.386-27.6,2.386-27.6Z" transform="translate(-1579.853 -876.386)" fill="#dceaff"/><path d="M2253.469,1087.779c-8.214,4.632-43.408,4.529-45.038.892-3.643-8.123-4.553-49.4-2.835-62.061,0,0,.889-19.458,2.835-18.6,13-5.971,34.04-.546,34.04-.546,5.673,1.67,5.188,14.634,6.769,32.841.2,2.343.431,4.79.683,7.316,1.12,11.231,2.75,24.16,5.224,37.783C2255.314,1086.3,2254.689,1087.1,2253.469,1087.779Z" transform="translate(-1585.846 -795.992)" fill="#fff"/><path d="M2264.772,972.491c-.219,3.479-4.757,3.084-10.218,1.84s-3.479-4.462-3.479-4.462.079-2.471.425-5.437c.125-1.075.282-2.222.489-3.339.1-.546.2-1.081.328-1.6.713-3.063,10.9-.106,10.828.716C2262.95,962.44,2264.55,969.756,2264.772,972.491Z" transform="translate(-1617.86 -763.209)" fill="#ffb27d"/><path d="M2091.588,698.418l-.428-4.808,6.041,1.141-2.325,4.292Z" transform="translate(-1456.384 -483.062)" fill="#233862"/><path d="M2244,989.33l-3.609,5.491a7.986,7.986,0,0,0,3.133,5.828l4.936-4.6S2245.268,994.836,2244,989.33Z" transform="translate(-1610.662 -784.935)" fill="#dceaff"/><path d="M2267,998.059s1.023,3.67,3,5.355c0,0,7.71-2.073,9.547-6.019l-4.016-5.185S2275.326,996.132,2267,998.059Z" transform="translate(-1629.195 -786.941)" fill="#dceaff"/><path d="M2264.962,967.514a18.914,18.914,0,0,1-11.7,2.486c.125-1.075.282-2.222.489-3.339,1.342-.328,2.465-.531,2.465-.531Z" transform="translate(-1619.626 -768.778)" fill="#e2915a"/><path d="M2260.775,915.057c-2.4,6.6-11.15,4.914-14.874,3.855-1.05-.3-1.7-.546-1.7-.546-1.15-.522-1.518-2.532-1.405-5.069.2-5.024,2.183-12.118,3.321-13.827,1.712-2.571,4.553-5.185,13.053-1.545S2263.85,906.6,2260.775,915.057Z" transform="translate(-1612.324 -720.027)" fill="#ffb27d"/><path d="M2269.924,900.924c-2.68,2.186-8.436,6.229-8.436,6.229a10.444,10.444,0,0,0,1.424-2.938,2.988,2.988,0,0,0,.106-.993,5.489,5.489,0,0,1,.786-3.036c.349-.568.476-1.16.033-1.578-.729-.686-1.97-.055-2.783.5a1.645,1.645,0,0,1-1.794.046h0c-2.289-1.433.24-3.946-1.621-6.056s-9.914-2.383-9.589-3.7c-2.75-1.554-1.017-7.285-.969-7.589a29.751,29.751,0,0,0,8.873-.88c4-1,8.405,1.563,9.8,2.623a2.205,2.205,0,0,0-.225-.977,2.067,2.067,0,0,1,.607,1.3c.061.061.088.1.07.115a2.635,2.635,0,0,1,1.26.288s-.34-.106-.5.1a.207.207,0,0,1-.07.055C2272.225,888.187,2272.149,899.109,2269.924,900.924Z" transform="translate(-1614.916 -709.285)" fill="#bc3f3f"/><path d="M2250.865,952.112s-.431.829-2.6.14c0,0-1.821-.577-1.518-1.536A6.228,6.228,0,0,1,2250.865,952.112Z" transform="translate(-1615.069 -758.035)" fill="#fff"/><path d="M2247.532,1025.44s-4.821,60.914-4.754,65.989,5.343,10.442,5.343,10.442,4.2-4.6,5.021-9.456-2.325-66.35-2.325-66.35Z" transform="translate(-1612.325 -810.084)" fill="#3e66ff"/><path d="M2340.573,1160.686h0c-14.653-2.125-10.454-50.6-9.3-50.793s5.364,8.669,5.364,8.669l.4,1.964c1.12,11.231,2.75,24.16,5.224,37.783C2342.419,1159.205,2341.794,1160.01,2340.573,1160.686Z" transform="translate(-1672.95 -868.899)" fill="#dceaff"/><path d="M2404.666,1331.089l-30.984,9.016a7.658,7.658,0,0,1-9.465-5.2l-3.907-13.426a7.659,7.659,0,0,1,5.2-9.465l30.98-9.016a7.659,7.659,0,0,1,9.468,5.2l3.907,13.426A7.662,7.662,0,0,1,2404.666,1331.089Z" transform="translate(-1693.972 -1003.179)" fill="#a02e2e"/><path d="M2373.746,1314.427l3.946,13.581a7.682,7.682,0,0,0,5.3,5.236,7.56,7.56,0,0,0,2.553.27h0a7.591,7.591,0,0,0,1.639-.3l30.926-9a7.686,7.686,0,0,0,5.218-9.5l-3.946-13.581a7.686,7.686,0,0,0-9.5-5.218l-10.649,3.1-.841-2.9a2.535,2.535,0,0,0-3.136-1.721l-1.166.34-6.478,1.885-1.612.471a2.532,2.532,0,0,0-1.721,3.133l.844,2.9-6.171,1.794a7.038,7.038,0,0,0-.71.246h0a7.689,7.689,0,0,0-4.587,5.321h0A7.612,7.612,0,0,0,2373.746,1314.427Zm23.981-14.962-11.064,3.236-.841-2.9a.944.944,0,0,1,.64-1.169l2.781-.807,5.1-1.487,1.378-.4a.907.907,0,0,1,.279-.036.945.945,0,0,1,.89.677Z" transform="translate(-1703.324 -997.324)" fill="#bc3f3f"/><path d="M2422.264,1277.543s-.959,8.032.841,7.917,6.208-.977,6.508-2.362-3.375-7.838-3.375-7.838Z" transform="translate(-1737.151 -984.071)" fill="#ffb27d"/><path d="M2419.217,1282.71a7.452,7.452,0,0,0-1.5,3.06c-.118,1.348-.774,3.7-.158,3.855s1.745-2.932,1.745-2.932Z" transform="translate(-1733.873 -989.259)" fill="#ffb27d"/><path d="M2329,1012.64s7.78,1.864,13.933,13.681,11.01,35.652,13.963,41.945,5.16,25.167,5.16,25.167a2.886,2.886,0,0,1-2.043,1.281,9.713,9.713,0,0,1-2.489.161s-11.568-18.517-13.229-25.195c-.911-3.6-14.625-32.441-14.625-32.441Z" transform="translate(-1672.375 -801.169)" fill="#fff"/><path d="M472.2,1345.8l-1.166-8.4,4.9-4.092,1.545,11.116Z" transform="translate(-328.048 -928.58)" fill="#ffb27d"/><path d="M648.248,1690.753H628.28a10.99,10.99,0,0,1,.565-5.352c1-2.216,2.556-3.585,2.7-5.282,1.269,1.308,2.832,2.149,5.719,1.761.352.574,2.283,3.643,3.464,4.49C642.028,1687.308,647.85,1686.974,648.248,1690.753Z" transform="translate(-487.836 -1266.035)" fill="#233862"/><path d="M624.305,1291.773c-1.305,10.5-2.374,20.408-3.242,29.636-4.647,49.175-3.734,79.227-3.734,79.227s-.337.889-3.218.911a16.5,16.5,0,0,1-3.224-.346s-10.4-32.113-9.6-50.39a28.117,28.117,0,0,1,.814-5.916c2.5-9.349-9.237-45.1,3.515-58.422S624.906,1286.953,624.305,1291.773Z" transform="translate(-467.906 -987.95)" fill="#f99746"/><path d="M624.305,1291.778c-1.305,10.5-2.374,20.408-3.242,29.636l-19.776,29.405a28.118,28.118,0,0,1,.813-5.916c2.5-9.349-9.237-45.1,3.515-58.422S624.906,1286.958,624.305,1291.778Z" transform="translate(-467.906 -987.955)" fill="#ed7d2b"/><path d="M730.46,961.35s-.48-2.4-1.023-4.232c-.24-.81,1.433-6.135,2.589-6.787s4.168,2.929,3.318,5.68c-.44,1.415-1.16,6.016-1.16,6.016Z" transform="translate(-558.346 -757.72)" fill="#ffb27d"/><path d="M726.46,974.791s-.628-1.393-1.2-1.618-1.175-2.5-1.594-3.4c0,0,.4-.589,1.108.17.431.461,1.387,1.821,1.387,1.821Z" transform="translate(-554.346 -771.161)" fill="#ffb27d"/><path d="M445.137,1002.016a10.5,10.5,0,0,0-.443,1.129v-.343c0-.844-3.163-5.446-4.462-5.734s-3.127,4.022-1.518,6.4c.835,1.214,2.869,5.412,2.869,5.412l3.363-1.736s.194-1.518.671-1.9.392-2.732.528-3.722C446.148,1001.531,445.589,1001.084,445.137,1002.016Z" transform="translate(-355.45 -790.315)" fill="#ffb27d"/><path d="M529.612,1656.789c-.282-2.689-.352-9.771-.352-9.771s7.215-2.307,6.948-.723c-1.305,7.786-.95,11.641-.95,11.641l-2.917,1.742Z" transform="translate(-418.949 -1242.09)" fill="#ffb27d"/><path d="M565.567,1311.828s-27.875,76.425-33.363,109.558a5.549,5.549,0,0,1-3.643.583,4.073,4.073,0,0,1-3.427-2.2s-5.036-39.726,4.975-53.516c6.875-9.477-2.966-51.091,13.053-54.427S565.567,1311.828,565.567,1311.828Z" transform="translate(-415.194 -1008.506)" fill="#f99746"/><path d="M540.476,1038.536h0a.573.573,0,0,0-.024-.1c-.161-.674-.34-1.336-.531-1.991h0a44.754,44.754,0,0,0-2.028-5.613,29.431,29.431,0,0,0-1.336-2.665l-.2-.355h0c-1.078-1.821-2.182-3.063-3.184-3.448a9.545,9.545,0,0,0-5.245-.219,2.4,2.4,0,0,1,1-.668,7.988,7.988,0,0,0-2.711,1.154c-12.84-2.872-12.091,15.29-11.231,19.406s-3.263,6.117-9.107,10.321c-11.125,8.035-10.928,16.556-10.928,16.556.1.043.209.091.325.149.446-1.1,1.4-3.19,2.392-3.643a43.513,43.513,0,0,0-1.068,4.313c1.694.935,4.04,2.38,6.587,4.013h0c3.409,2.18,7.167,4.69,10.181,6.727a6.885,6.885,0,0,1-.073-2.68l.959,2.975.128.389c1.922,1.3,3.439,2.346,4.21,2.881l.212.146.346.237c-.258-1.05.865-3.791,2.75-7.246.128-.24.264-.486.4-.735.607-1.093,1.287-2.243,2.019-3.43.264-.428.531-.856.807-1.293h0c.222-.352.446-.7.677-1.056h0q.82-1.266,1.688-2.544c1.49-2.2,3.072-4.392,4.632-6.4a56.185,56.185,0,0,1,6.356-7.127c.061-.124.118-.252.17-.382a12.637,12.637,0,0,0,.689-2.2c.052-.228.1-.461.143-.692a30.083,30.083,0,0,0,.467-5.443,30.914,30.914,0,0,1-.067,5.485c-.036.3-.076.571-.121.826h0a10.723,10.723,0,0,1-.337,1.445,7.405,7.405,0,0,0,.81-1.248,8.706,8.706,0,0,0,.422-.932C542.182,1049.625,541.778,1043.9,540.476,1038.536Z" transform="translate(-395.053 -808.719)" fill="#163560"/><path d="M609.691,1109.645c.046,0-3.594,2.644-6.678,2.274-2.9-.346-5.264-3.691-5.224-3.7,1.144-.41,1.245-2.085.182-9.055l.549.024,9.243.443s.216,2.856.607,5.519C608.689,1107.38,609.139,1109.481,609.691,1109.645Z" transform="translate(-466.676 -861.426)" fill="#ffb27d"/><path d="M609.43,1099.683s.216,2.856.607,5.519c-5.045.607-8.381-3.582-9.847-5.962Z" transform="translate(-468.348 -861.482)" fill="#ed975d"/><path d="M585.724,1052.024a26.689,26.689,0,0,1-4.411-7.234c-.829-2.471-.935-12.075,8.724-12.142a12.98,12.98,0,0,1,5.631,1.214c2.258,1.084,5.67,3.643,3.576,12.342l-.446,2.9Z" transform="translate(-454.96 -815.103)" fill="#163560"/><path d="M594.141,1180.554a39.154,39.154,0,0,1-27.125,3.473c-.179-.046-12.446-2-12.446-2,.213-.577,1.8-10.044,2-10.573,2.677-6.915,7.574-44.434,11.665-46.286,1.044,1.138,4.028,1.915,6.584,1.691,2.941-.261,3.928-1.518,3.682-2.9,3.257,1.539,5.767,2.969,5.767,2.969C587.247,1131.388,594.141,1180.554,594.141,1180.554Z" transform="translate(-436.576 -878.698)" fill="#fff"/><path d="M604.863,1063.176s-11.857,1.964-12.968-5.44-3.388-12.142,4.137-13.7,9.41,1.038,10.391,3.418S607.917,1062.475,604.863,1063.176Z" transform="translate(-461.729 -822.704)" fill="#ffb27d"/><path d="M594.033,1039.3s-1.961,9.17-6.766,11.2-7.167,1.011-7.167,1.011a14.288,14.288,0,0,0,3.382-9.043S590.976,1035.531,594.033,1039.3Z" transform="translate(-454.357 -818.954)" fill="#163560"/><path d="M623.73,1040.574s2.732,1.578,3.591,3.375,1.718,5.64,2.829,5.339c0,0,1.575-6.268-1.679-9.2C625.026,1036.983,623.73,1040.574,623.73,1040.574Z" transform="translate(-484.743 -819.405)" fill="#163560"/><path d="M667.419,985.855a7.611,7.611,0,0,0-2.125-.656,6.6,6.6,0,0,0-1.864.2s-3.339,20.793-3.594,21.9-14.349,17-18.149,16.923c-3.433-.058-7.5,2.592-8.257,3.1,0,0,8,16.9,8.393,20.08.434,3.454,4.575,56.667,4.575,56.667s-.246,2.474,4.377,1.144,5.768-2.428,5.768-2.428-4.25-41.89-5.139-54.919a25.084,25.084,0,0,0-.814-4.857,4.918,4.918,0,0,1,.8-4.183c5.846-8.029,15.08-21.033,15.593-23.8C667.759,1010.953,667.419,985.855,667.419,985.855Z" transform="translate(-491.498 -782.056)" fill="#3e66ff"/><path d="M539.158,1690.753H519.19a10.989,10.989,0,0,1,.565-5.352c1-2.216,2.556-3.585,2.7-5.282,1.269,1.308,2.829,2.149,5.716,1.761.352.574,2.283,3.643,3.464,4.49C532.938,1687.308,538.757,1686.974,539.158,1690.753Z" transform="translate(-411.86 -1266.035)" fill="#233862"/><path d="M504.527,1078.976c-.674-4.14-9.264-20.769-9.264-20.769s-5.434-1.624-9.006-.328-22.071-9.149-22.663-10.111-10.5-19.427-10.5-19.427a2.273,2.273,0,0,0-2.125.209,2.407,2.407,0,0,0-1.308,2s7.646,23.24,9.68,26.837c1.214,2.167,11.535,9.714,19.534,15.369a5.011,5.011,0,0,1,2.076,4.769c-1.075,7.947-1.348,12.424-2.583,26.06-1.026,11.313-1.418,33.218-1.418,33.218s8.946,3.1,15.12,3.506,7.522-6.1,7.522-6.1S505.219,1083.235,504.527,1078.976Z" transform="translate(-363.512 -811.992)" fill="#3e66ff"/><path d="M624.59,1093.66a5.284,5.284,0,0,0,3.142.607c1.163-.176,1.43-1.557,1.43-1.557a4.587,4.587,0,0,0-2.1,0A8.919,8.919,0,0,0,624.59,1093.66Z" transform="translate(-485.342 -856.849)" fill="#fff"/><path d="M1866.592,602.028s-5.549-9.859,0-11.866,8.056-.155,8.32,2.088-2.125,11.1-2.125,11.1Z" transform="translate(-1348.614 -506.338)" fill="#ffb27d"/><path d="M1704.567,688.582a179.259,179.259,0,0,1-27.812,2.856,154.82,154.82,0,0,1-21.376-.962c-1.682-.191-3.3-.41-4.857-.644-16.392-2.483-25.422-6.888-25.422-6.888s14.965-31.327,27.056-30.125c14.2,1.4,38.223,14.13,40.606,10.567,2.689-4.022,4.942-38.512,4.942-38.512,6.286-4.3,10.042.234,10.042.234S1720.036,685.78,1704.567,688.582Z" transform="translate(-1182.145 -529.821)" fill="#f99746"/><path d="M1765.478,799.509a179.257,179.257,0,0,1-27.811,2.856,154.823,154.823,0,0,1-21.376-.962c-3.773-12-6.487-24.257,1.1-16.865C1730.779,797.557,1765.478,799.509,1765.478,799.509Z" transform="translate(-1243.056 -640.747)" fill="#ed7d2b"/><path d="M1620.892,1661.127s-1.075,12.446,1.557,13.748l33.694-.067s0-3.889-5.412-4.754-14.917-4.031-16.525-11.086S1620.892,1661.127,1620.892,1661.127Z" transform="translate(-1179.063 -1249.452)" fill="#233862"/><path d="M1604.566,1086.16c-.167,8.141-.559,16.541-1.323,24.09-3.643,35.819-4.918,79.1-5.44,87.444-.911,14.482-3.767,37.622-3.767,37.622s-5.677,5.388-16.738,2.817c0,0-9.167-33.327-11.231-68.421l-.091-1.733c-.237-4.641-.486-9.944-.741-15.666-1.685-38.317-3.515-95.236-3.515-95.236l42.273-9.926S1604.982,1065.858,1604.566,1086.16Z" transform="translate(-1138.004 -825.204)" fill="#3e66ff"/><path d="M1604.6,1086.16c-10.712,18.483-31.135,52.539-39.316,66.153-1.685-38.317-3.515-95.236-3.515-95.236l42.273-9.926S1605.017,1065.858,1604.6,1086.16Z" transform="translate(-1138.039 -825.204)" fill="#2a5fc8"/><path d="M1330.059,1057.7s-6.879,8.09-7.5,10.321-1.721,10.321-1.129,12.749,5.16-6.772,6.827-7.753-1.248,3.643-.68,4.432,3.852-2.708,5.133-3.888,1.156-7.522,2.692-11.274S1330.059,1057.7,1330.059,1057.7Z" transform="translate(-970.538 -832.552)" fill="#ffb27d"/><path d="M1333.508,1619.612s-6,5.464-4.827,9.359,6.581,6.481,7.313,11.231,3.643,7.346,6.286,7.346h12.552s1.937-3.339-2.732-4.353-6.444-6.593-6.15-11.775a90.935,90.935,0,0,0-.44-12.1l-9.944-2.3Z" transform="translate(-975.599 -1222.089)" fill="#233862"/><path d="M1446.4,1053.16s-39.574,84.673-60.635,121.812-27.623,47.518-27.623,47.518-12.066-4.751-13.162-7.993c0,0,8.053-71.723,22.159-89.208,7.968-9.878,17.33-39.526,17.767-49.895s9.683-35.115,9.683-35.115Z" transform="translate(-987.056 -820.419)" fill="#3e66ff"/><path d="M1555.128,814.106a68.574,68.574,0,0,1-38.011,9.544c-9.774-.425-29.162-3.2-32.292-10.97-.735-1.821-.2-4.143.911-7.7,2.862-9.24,9.528-26.837,7.516-65.85a64.179,64.179,0,0,1,.261-10.239c2.1-19.218,13.11-30.6,23.756-34.3,25.96-9.073,34.6,3.5,34.6,3.5s11.474,9.091,13.2,28.063C1568.539,764.086,1555.128,814.106,1555.128,814.106Z" transform="translate(-1084.216 -577.373)" fill="#f99746"/><path d="M1617.52,639.744s11.911,7.243,24.831,5.194c0,0,2.556-.65,1.3-3.643a38.771,38.771,0,0,0,1.147-4,60.558,60.558,0,0,0,1.478-6.526l-7.331-7.707L1632,615.7C1630.081,633.294,1617.52,639.744,1617.52,639.744Z" transform="translate(-1176.866 -524.722)" fill="#ffb27d"/><path d="M1661.56,637.67s3.989,10.664,13.909,14.923c1.132-4.14,1.87-8.469,1.87-8.469l-7.722-5.768Z" transform="translate(-1207.537 -540.022)" fill="#ed985f"/><path d="M1679.524,578.812s-22.736,2.841-24.333-11.131-5.607-23.015,8.843-25.419,17.885,2.617,19.57,7.155S1685.4,577.713,1679.524,578.812Z" transform="translate(-1201.888 -473.141)" fill="#ffb27d"/><path d="M1631.612,520.143c-.2-.243-.662-.452-1.712-.549a4.272,4.272,0,0,1,1.988-.48c.276-1.457,1.151-4.019,3.7-4.553a3.157,3.157,0,0,0-1.618,2.222c3.036-2.887,9.368-4.833,26.634-2.811,22.766,2.665,14.683,17,11.662,18.623s-10.278-3.427-15.785-3.2-6.869,8.144-8.779,9.167-1.1-.883-3.585-2.125-2.884,2.938-2.255,5.689-2.981,6.211-2.981,6.211l-3.366-3.91c-3.366-3.913-6.071-20.034-4.344-23.395Z" transform="translate(-1185.488 -453.293)" fill="#2c3a64"/><path d="M1609.274,274.315l-38.6.343-.261-5.807,38.478-2.981Z" transform="translate(-1093.709 -185.163)" fill="#4f77c7"/><path d="M1696.9,266.605l-42.024.607-.48-10.558,41.905-3.245Z" transform="translate(-1152.204 -176.486)" fill="#2a5fc8"/><path d="M1804.986,259.641l-35.44.046-.647-14.255,35.294-3.212Z" transform="translate(-1231.947 -168.693)" fill="#3e66ff"/><path d="M2048.648,572.424h0a1.976,1.976,0,0,0,1.888-2.067l-.832-18.31a1.982,1.982,0,0,0-2.067-1.891h0a1.985,1.985,0,0,0-1.891,2.07l.832,18.31A1.982,1.982,0,0,0,2048.648,572.424Z" transform="translate(-1475.101 -479.072)" fill="#3e66ff"/><path d="M1732.042,595.908h0a1.764,1.764,0,0,1-1.84-1.679l-.206-4.754a1.764,1.764,0,0,1,1.679-1.84h0a1.761,1.761,0,0,1,1.839,1.682l.219,4.751A1.767,1.767,0,0,1,1732.042,595.908Z" transform="translate(-1255.198 -505.175)" fill="#4f77c7"/><path d="M1488.58,891.133c2.862-9.24,9.528-26.837,7.516-65.85a64.165,64.165,0,0,1,.261-10.239h0c8.542-.735,21.6,8.5,21.6,8.5S1509.92,872.58,1488.58,891.133Z" transform="translate(-1087.066 -663.526)" fill="#ed7d2b"/><path d="M1425.043,694.91s-21.907,3.764-33.333,17.712-29.806,33.615-34.15,40.5-16.41,53.759-16.41,53.759.8,1.518,4.125,2.383a7.834,7.834,0,0,0,5.494-.461s15.982-27.356,22-41.016c2.5-5.679,45.721-28.164,61.97-25.832C1441.119,742.871,1425.043,694.91,1425.043,694.91Z" transform="translate(-984.388 -579.887)" fill="#f99746"/><path d="M1863.54,572.818s4.711,2.884,7.531,1.663,2.568-2.334,2.568-2.334S1865.125,569.783,1863.54,572.818Z" transform="translate(-1348.206 -493.778)" fill="#ffb27d"/><path d="M1491.946,742.781s-9.614,60.71-77.825,78.371l-7.431,14.659,13.053,2.21s77.658-22.5,76.61-96.311Z" transform="translate(-1030.034 -612.481)" fill="#bc3f3f"/><path d="M1509.551,397.34l-3.151.31v4.556l4.641,4.823,4.411-1.075v-6.323l-3.172-2.292Z" transform="translate(-1049.129 -276.725)" fill="#a02e2e"/><path d="M1618.957,673.57s-3.036.686-10.017,6.478c0,0,6.93,14.707,21.552,16.468,0,0-.234-6.824.823-10.876C1631.312,685.639,1619.725,681.49,1618.957,673.57Z" transform="translate(-1170.89 -565.025)" fill="#ed7d2b"/><path d="M1682.64,704.046s7.134,3.788,7.662,9.686c0,0,2.732-4.32,1.937-7.31A24.592,24.592,0,0,0,1689,700S1689.245,703.606,1682.64,704.046Z" transform="translate(-1222.218 -583.432)" fill="#ed7d2b"/></svg>