<svg xmlns="http://www.w3.org/2000/svg" width="128.311" height="127.367" viewBox="0 0 128.311 127.367">
  <g id="user" transform="translate(349.001 -569.953)">
    <path id="Path_131" data-name="Path 131" d="M109.52,18.652a64.493,64.493,0,0,0-90.73,0,63.353,63.353,0,0,0,0,90.062,64.493,64.493,0,0,0,90.73,0,63.353,63.353,0,0,0,0-90.062Zm-77.357,91.4a32.528,32.528,0,0,1,63.985,0,56.86,56.86,0,0,1-63.985,0ZM43.756,55.69a20.4,20.4,0,1,1,20.4,20.249,20.347,20.347,0,0,1-20.4-20.249Zm58.9,49.183A39.9,39.9,0,0,0,79.367,78.915a27.918,27.918,0,1,0-30.423,0,39.9,39.9,0,0,0-23.293,25.957A55.89,55.89,0,0,1,7.518,63.683c0-31,25.407-56.221,56.637-56.221s56.637,25.22,56.637,56.221a55.891,55.891,0,0,1-18.133,41.19Zm0,0" transform="translate(-349 569.953)" fill="#3d3d3d"/>
  </g>
</svg>
