<svg xmlns="http://www.w3.org/2000/svg" width="32.139" height="29" viewBox="0 0 32.139 29"><g transform="translate(0 -25)"><path d="M32.139,34.039v-3.7a2.828,2.828,0,0,0-2.825-2.825h-.377v3.452a.942.942,0,1,1-1.883,0V25.942a.942.942,0,1,0-1.883,0v1.569H18.894v3.452a.942.942,0,1,1-1.883,0V25.942a.942.942,0,1,0-1.883,0v1.569H8.851v3.452a.942.942,0,1,1-1.883,0V25.942a.942.942,0,1,0-1.883,0v1.569H2.825A2.828,2.828,0,0,0,0,30.335v3.7Z" fill="#5e5e5e"/><path d="M0,199v15.253a2.828,2.828,0,0,0,2.825,2.825H29.314a2.828,2.828,0,0,0,2.825-2.825V199Zm9.039,13.056H7.03a.942.942,0,0,1,0-1.883H9.039a.942.942,0,1,1,0,1.883Zm0-4.017H7.03a.942.942,0,0,1,0-1.883H9.039a.942.942,0,1,1,0,1.883Zm0-4.017H7.03a.942.942,0,0,1,0-1.883H9.039a.942.942,0,1,1,0,1.883Zm8.035,8.035H15.065a.942.942,0,0,1,0-1.883h2.009a.942.942,0,0,1,0,1.883Zm0-4.017H15.065a.942.942,0,0,1,0-1.883h2.009a.942.942,0,1,1,0,1.883Zm0-4.017H15.065a.942.942,0,0,1,0-1.883h2.009a.942.942,0,0,1,0,1.883Zm8.035,8.035H23.1a.942.942,0,1,1,0-1.883h2.009a.942.942,0,0,1,0,1.883Zm0-4.017H23.1a.942.942,0,1,1,0-1.883h2.009a.942.942,0,0,1,0,1.883Zm0-4.017H23.1a.942.942,0,1,1,0-1.883h2.009a.942.942,0,0,1,0,1.883Z" transform="translate(0 -163.078)" fill="#5e5e5e"/></g></svg>