<svg xmlns="http://www.w3.org/2000/svg" width="22.07" height="19.2" viewBox="0 0 22.07 19.2"><path d="M137.535,809.286a1.236,1.236,0,0,0-1.236-1.236H122.136a1.236,1.236,0,1,0,0,2.472H136.3A1.237,1.237,0,0,0,137.535,809.286Z" transform="translate(-118.183 -791.323)" fill="#f4d944"/><path d="M1.472,71.807a.513.513,0,0,0,.058,0L3.49,78.9H18.584l1.96-7.094.058,0a1.47,1.47,0,1,0-1.47-1.47,1.431,1.431,0,0,0,.072.452l-3.545,2.072-3.81-6.316a1.47,1.47,0,1,0-1.623,0l-3.81,6.316L2.872,70.789a1.5,1.5,0,0,0,.072-.452,1.471,1.471,0,1,0-1.472,1.47Z" transform="translate(-0.002 -63.85)" fill="#f4d944"/></svg>