<svg xmlns="http://www.w3.org/2000/svg" width="26.766" height="21.816" viewBox="0 0 26.766 21.816"><g transform="translate(0 1.088)"><path d="M161.228,166.455a5.228,5.228,0,1,1,5.228-5.228A5.234,5.234,0,0,1,161.228,166.455Zm0-8.364a3.137,3.137,0,1,0,3.137,3.137A3.14,3.14,0,0,0,161.228,158.091Z" transform="translate(-147.845 -151.818)" fill="#9b9b9b"/><path d="M13.383,94.82C7.978,94.82,2.766,90,.168,85.978a1.046,1.046,0,0,1,0-1.135C2.89,80.63,8.129,76,13.383,76,18.789,76,24,80.822,26.6,84.842a1.046,1.046,0,0,1,0,1.135C23.876,90.19,18.638,94.82,13.383,94.82ZM2.322,85.409c1.325,1.809,5.793,7.32,11.061,7.32s9.739-5.508,11.061-7.318c-1.325-1.81-5.793-7.32-11.061-7.32S3.644,83.6,2.322,85.409Z" transform="translate(0 -76)" fill="#9b9b9b"/><line x2="23" y2="19" transform="translate(1.5 0.32)" fill="none" stroke="#9b9b9b" stroke-linecap="round" stroke-width="2"/></g></svg>