<svg xmlns="http://www.w3.org/2000/svg" width="16.322" height="16.305" viewBox="0 0 16.322 16.305"><g transform="translate(8.916)"><path d="M260.113.256a16.514,16.514,0,0,1,2.149,4.381,9.466,9.466,0,0,0,3.222-1.129l.292-.181A8.173,8.173,0,0,0,260.113.256Z" transform="translate(-260.113 -0.256)" fill="#7d7d7d"/></g><g transform="translate(5.838 5.695)"><path d="M174.7,166.4a17.977,17.977,0,0,1-4.1,0,11.175,11.175,0,0,0-.275,1.872h4.645A11.173,11.173,0,0,0,174.7,166.4Z" transform="translate(-170.326 -166.4)" fill="#7d7d7d"/></g><g transform="translate(6.435 11.662)"><path d="M189.459,340.48a16.978,16.978,0,0,0-1.726.09,15.7,15.7,0,0,0,1.726,3.574,15.706,15.706,0,0,0,1.726-3.574A16.978,16.978,0,0,0,189.459,340.48Z" transform="translate(-187.733 -340.48)" fill="#7d7d7d"/></g><g transform="translate(11.37 8.737)"><path d="M331.969,255.147a12.388,12.388,0,0,1-.279,2.051,10.472,10.472,0,0,1,3.536,1.271l.331.206a8.136,8.136,0,0,0,1.086-3.528Z" transform="translate(-331.69 -255.147)" fill="#7d7d7d"/></g><g transform="translate(11.37 4.04)"><path d="M335.556,118.118l-.331.206a10.472,10.472,0,0,1-3.536,1.274,12.386,12.386,0,0,1,.279,2.048h4.673A8.136,8.136,0,0,0,335.556,118.118Z" transform="translate(-331.69 -118.118)" fill="#7d7d7d"/></g><g transform="translate(5.838 8.737)"><path d="M170.325,255.147a11.168,11.168,0,0,0,.276,1.872,18.045,18.045,0,0,1,4.1,0,11.169,11.169,0,0,0,.274-1.872Z" transform="translate(-170.325 -255.147)" fill="#7d7d7d"/></g><g transform="translate(0 4.04)"><path d="M1.416,118.324l-.331-.206A8.136,8.136,0,0,0,0,121.645H4.673a12.392,12.392,0,0,1,.279-2.048A10.472,10.472,0,0,1,1.416,118.324Z" transform="translate(0 -118.118)" fill="#7d7d7d"/></g><g transform="translate(1.743 11.924)"><path d="M54.356,348.109a9.476,9.476,0,0,0-3.222,1.128l-.292.182A8.17,8.17,0,0,0,56.5,352.49,16.5,16.5,0,0,1,54.356,348.109Z" transform="translate(-50.842 -348.109)" fill="#7d7d7d"/></g><g transform="translate(6.435 0.979)"><path d="M189.459,28.826a15.711,15.711,0,0,0-1.726,3.573,16.683,16.683,0,0,0,3.452,0A15.711,15.711,0,0,0,189.459,28.826Z" transform="translate(-187.733 -28.826)" fill="#7d7d7d"/></g><g transform="translate(8.915 11.924)"><path d="M265.434,349.236a9.478,9.478,0,0,0-3.222-1.128,16.5,16.5,0,0,1-2.151,4.381,8.17,8.17,0,0,0,5.663-3.071Z" transform="translate(-260.062 -348.108)" fill="#7d7d7d"/></g><g transform="translate(1.745 0)"><g transform="translate(0 0)"><path d="M50.893,3.328l.291.181a9.466,9.466,0,0,0,3.222,1.129A16.511,16.511,0,0,1,56.556.257,8.173,8.173,0,0,0,50.893,3.328Z" transform="translate(-50.893 -0.257)" fill="#7d7d7d"/></g></g><g transform="translate(0 8.737)"><path d="M4.673,255.147H0a8.135,8.135,0,0,0,1.086,3.528l.331-.206A10.472,10.472,0,0,1,4.952,257.2,12.383,12.383,0,0,1,4.673,255.147Z" transform="translate(0 -255.147)" fill="#7d7d7d"/></g></svg>