<svg xmlns="http://www.w3.org/2000/svg" width="27.246" height="31" viewBox="0 0 27.246 31"><g transform="translate(-31)"><g transform="translate(34.633)"><g transform="translate(0)"><path d="M100.99,0A9.986,9.986,0,0,0,92.87,15.8l7.356,11.478a.908.908,0,0,0,1.529,0l7.388-11.518A9.99,9.99,0,0,0,100.99,0Zm0,14.531a4.541,4.541,0,1,1,4.541-4.541A4.546,4.546,0,0,1,100.99,14.531Z" transform="translate(-91)" fill="#5e5e5e"/></g></g><g transform="translate(31 20.87)"><path d="M51.723,344.7l-4.573,7.15a3,3,0,0,1-5.055,0l-4.581-7.15c-4.03.932-6.515,2.639-6.515,4.679,0,3.54,7.019,5.449,13.623,5.449s13.623-1.91,13.623-5.449C58.246,347.334,55.758,345.626,51.723,344.7Z" transform="translate(-31 -344.695)" fill="#5e5e5e"/></g></g></svg>