 <svg xmlns="http://www.w3.org/2000/svg" width="66.402" height="66.401" viewBox="0 0 66.402 66.401">
  <g id="padlock" transform="translate(0 -0.001)">
    <g id="Group_58" data-name="Group 58" transform="translate(54.729 15.693)">
      <g id="Group_57" data-name="Group 57">
        <path id="Path_390" data-name="Path 390" d="M433.461,122.073a1.945,1.945,0,0,0-2.61-.87l-7.781,3.891a1.945,1.945,0,0,0,1.74,3.48l7.781-3.891A1.945,1.945,0,0,0,433.461,122.073Z" transform="translate(-421.994 -120.997)" fill="#bcbcbc"/>
      </g>
    </g>
    <g id="Group_60" data-name="Group 60" transform="translate(54.729 35.147)">
      <g id="Group_59" data-name="Group 59">
        <path id="Path_391" data-name="Path 391" d="M432.591,275.093,424.81,271.2a1.945,1.945,0,0,0-1.74,3.48l7.781,3.891a1.945,1.945,0,0,0,1.74-3.48Z" transform="translate(-421.994 -270.997)" fill="#bcbcbc"/>
      </g>
    </g>
    <g id="Group_62" data-name="Group 62" transform="translate(0 0.001)">
      <g id="Group_61" data-name="Group 61" transform="translate(0 0)">
        <path id="Path_392" data-name="Path 392" d="M44.873,31.256H15.563V21.4a9.792,9.792,0,0,1,19.583,0v3.891a1.945,1.945,0,0,0,1.945,1.945h7.781a1.945,1.945,0,0,0,1.945-1.945V21.4a21.464,21.464,0,0,0-42.927,0V31.591A5.845,5.845,0,0,0,0,37.092V60.566A5.843,5.843,0,0,0,5.836,66.4H44.873a5.843,5.843,0,0,0,5.836-5.836V37.092A5.843,5.843,0,0,0,44.873,31.256ZM7.781,21.4a17.573,17.573,0,0,1,35.146,0v1.945H39.037V21.4a13.682,13.682,0,0,0-27.364,0v9.856H7.781ZM46.818,60.566a1.948,1.948,0,0,1-1.945,1.945H5.836a1.948,1.948,0,0,1-1.945-1.945V37.092a1.948,1.948,0,0,1,1.945-1.945H44.873a1.948,1.948,0,0,1,1.945,1.945Z" transform="translate(0 -0.001)" fill="#bcbcbc"/>
      </g>
    </g>
    <g id="Group_64" data-name="Group 64" transform="translate(19.583 39.038)">
      <g id="Group_63" data-name="Group 63">
        <path id="Path_393" data-name="Path 393" d="M156.835,301a5.836,5.836,0,0,0-1.945,11.338v6.3a1.945,1.945,0,0,0,3.891,0v-6.3A5.836,5.836,0,0,0,156.835,301Zm0,7.781a1.945,1.945,0,1,1,1.945-1.945A1.948,1.948,0,0,1,156.835,308.781Z" transform="translate(-150.999 -301)" fill="#bcbcbc"/>
      </g>
    </g>
    <g id="Group_66" data-name="Group 66" transform="translate(54.729 27.366)">
      <g id="Group_65" data-name="Group 65">
        <path id="Path_394" data-name="Path 394" d="M431.724,211h-7.781a1.945,1.945,0,0,0,0,3.891h7.781a1.945,1.945,0,1,0,0-3.891Z" transform="translate(-421.997 -211)" fill="#bcbcbc"/>
      </g>
    </g>
  </g>
</svg>
