<svg xmlns="http://www.w3.org/2000/svg" width="26.89" height="26.89" viewBox="0 0 26.89 26.89">
  <g id="send_1_" data-name="send(1)" transform="translate(0 -6.197)">
    <g id="Group_37" data-name="Group 37" transform="translate(0 6.197)">
      <g id="Group_36" data-name="Group 36">
        <path id="Path_364" data-name="Path 364" d="M26.608,18.381A2.855,2.855,0,0,0,25.3,17.039L4.045,6.486A2.786,2.786,0,0,0,.282,7.827,2.959,2.959,0,0,0,.2,10.162l3.7,9.479L.2,29.12a2.922,2.922,0,0,0,1.582,3.762A2.735,2.735,0,0,0,4.045,32.8L25.3,22.242A2.924,2.924,0,0,0,26.608,18.381ZM3.227,31.06a.929.929,0,0,1-1.254-.447.986.986,0,0,1-.026-.778l3.6-9.231H24.289ZM5.545,18.677l-3.6-9.231a.956.956,0,0,1,.232-1.06.893.893,0,0,1,1.049-.163L24.289,18.677Z" transform="translate(0 -6.197)" fill="#3e66ff"/>
      </g>
    </g>
  </g>
</svg>
