<svg id="happy" xmlns="http://www.w3.org/2000/svg" width="26.894" height="26.894" viewBox="0 0 26.894 26.894">
  <g id="Group_24" data-name="Group 24" transform="translate(0 0)">
    <g id="Group_23" data-name="Group 23">
      <path id="Path_357" data-name="Path 357" d="M22.955,3.939A13.447,13.447,0,1,0,3.939,22.955,13.447,13.447,0,1,0,22.955,3.939ZM13.447,25.293A11.846,11.846,0,1,1,25.293,13.447,11.86,11.86,0,0,1,13.447,25.293Z" transform="translate(0 0)" fill="#6d6d6d"/>
    </g>
  </g>
  <g id="Group_26" data-name="Group 26" transform="translate(5.549 8.913)">
    <g id="Group_25" data-name="Group 25">
      <path id="Path_358" data-name="Path 358" d="M110.638,170.664a3.365,3.365,0,0,0-4.754,0,.8.8,0,0,0,1.132,1.132,1.763,1.763,0,0,1,2.49,0,.8.8,0,0,0,1.132-1.132Z" transform="translate(-105.65 -169.681)" fill="#6d6d6d"/>
    </g>
  </g>
  <g id="Group_28" data-name="Group 28" transform="translate(16.121 8.913)">
    <g id="Group_27" data-name="Group 27">
      <path id="Path_359" data-name="Path 359" d="M311.9,170.664a3.366,3.366,0,0,0-4.754,0,.8.8,0,1,0,1.132,1.132,1.763,1.763,0,0,1,2.49,0,.8.8,0,1,0,1.132-1.132Z" transform="translate(-306.912 -169.681)" fill="#6d6d6d"/>
    </g>
  </g>
  <g id="Group_30" data-name="Group 30" transform="translate(5.55 14.034)">
    <g id="Group_29" data-name="Group 29">
      <path id="Path_360" data-name="Path 360" d="M120.645,267.175H106.451a.8.8,0,0,0-.8.8,7.9,7.9,0,1,0,15.795,0A.8.8,0,0,0,120.645,267.175Zm-7.1,7.1a6.306,6.306,0,0,1-6.246-5.5h12.492A6.306,6.306,0,0,1,113.548,274.272Z" transform="translate(-105.651 -267.175)" fill="#6d6d6d"/>
    </g>
  </g>
</svg>
