<svg xmlns="http://www.w3.org/2000/svg" width="36.618" height="36.618" viewBox="0 0 36.618 36.618"><path d="M6.263,12.5a.763.763,0,0,0-.763.763v1.526H7.026V13.263A.763.763,0,0,0,6.263,12.5Z" transform="translate(2.892 6.572)" fill="#3e66ff"/><path d="M32.422,0H4.2A4.2,4.2,0,0,0,0,4.2V32.422a4.2,4.2,0,0,0,4.2,4.2H32.422a4.2,4.2,0,0,0,4.2-4.2V4.2A4.2,4.2,0,0,0,32.422,0ZM12.206,24.794a1.144,1.144,0,0,1-2.289,0V23.649H8.392v1.144a1.144,1.144,0,0,1-2.289,0V19.835a3.052,3.052,0,0,1,6.1,0Zm5.34,1.144H16.4a1.145,1.145,0,0,1-1.144-1.144V17.928A1.145,1.145,0,0,1,16.4,16.783h1.144a4.577,4.577,0,0,1,0,9.155Zm9.6-5.722h.636a2.864,2.864,0,0,1,0,5.722H25.556a1.144,1.144,0,1,1,0-2.289h2.225a.59.59,0,0,0,0-1.144h-.636a2.864,2.864,0,0,1,0-5.722h2.225a1.144,1.144,0,1,1,0,2.289H27.146a.59.59,0,0,0,0,1.144ZM31.975,8.457a1.526,1.526,0,1,1-2.157,2.157l-.828-.828-.828.828A1.526,1.526,0,0,1,26,8.457l.828-.828L26,6.8a1.526,1.526,0,1,1,2.157-2.157l.828.828.828-.828A1.526,1.526,0,0,1,31.975,6.8l-.828.828Z" fill="#3e66ff"/><path d="M11.5,12.5v4.577a2.289,2.289,0,0,0,0-4.577Z" transform="translate(6.046 6.572)" fill="#3e66ff"/></svg>