<?xml version="1.0"?>
<svg xmlns="http://www.w3.org/2000/svg" xmlns:xlink="http://www.w3.org/1999/xlink" xmlns:svgjs="http://svgjs.com/svgjs" version="1.1" width="512" height="512" x="0" y="0" viewBox="0 0 512 512" style="enable-background:new 0 0 512 512" xml:space="preserve" class=""><g><g xmlns="http://www.w3.org/2000/svg"><path d="m112 304c-44.112 0-80-35.888-80-80s35.888-80 80-80 80 35.888 80 80-35.888 80-80 80z" fill="#3e66ff" data-original="#000000" style="" class=""/><path d="m400 304c-44.112 0-80-35.888-80-80s35.888-80 80-80 80 35.888 80 80-35.888 80-80 80z" fill="#3e66ff" data-original="#000000" style="" class=""/><path d="m340.85 67.15c-4.096 0-8.191-1.563-11.316-4.689-19.635-19.643-45.749-30.461-73.534-30.461s-53.899 10.818-73.534 30.461c-6.248 6.25-16.378 6.252-22.627.005-6.25-6.247-6.252-16.378-.005-22.627 25.679-25.691 59.831-39.839 96.166-39.839s70.487 14.148 96.167 39.839c6.247 6.25 6.245 16.38-.005 22.627-3.124 3.122-7.219 4.684-11.312 4.684z" fill="#3e66ff" data-original="#000000" style="" class=""/><path d="m301.26 106.74c-4.095 0-8.189-1.562-11.314-4.687-9.062-9.062-21.118-14.053-33.946-14.053s-24.884 4.991-33.946 14.054c-6.248 6.248-16.379 6.249-22.627 0-6.249-6.248-6.249-16.379 0-22.627 15.106-15.107 35.197-23.427 56.573-23.427s41.467 8.32 56.574 23.427c6.248 6.249 6.248 16.379 0 22.627-3.125 3.124-7.22 4.686-11.314 4.686z" fill="#3e66ff" data-original="#000000" style="" class=""/><path d="m256 176c-13.233 0-24-10.767-24-24s10.767-24 24-24 24 10.767 24 24-10.767 24-24 24z" fill="#3e66ff" data-original="#000000" style="" class=""/><path d="m193.767 307.549c-1.86-1.988-4.97-2.062-6.995-.243-19.842 17.829-46.06 28.694-74.772 28.694s-54.93-10.865-74.772-28.694c-2.025-1.819-5.135-1.745-6.995.243-18.741 20.03-30.233 46.922-30.233 76.451v96.421c0 6.887 4.407 13.001 10.94 15.179 32.646 10.882 66.648 16.4 101.06 16.4s68.414-5.518 101.06-16.399c6.534-2.178 10.94-8.292 10.94-15.179v-96.422c0-29.529-11.492-56.421-30.233-76.451z" fill="#3e66ff" data-original="#000000" style="" class=""/><path d="m481.767 307.549c-1.86-1.988-4.97-2.062-6.995-.243-19.842 17.829-46.06 28.694-74.772 28.694s-54.93-10.865-74.772-28.694c-2.025-1.819-5.135-1.745-6.995.243-18.741 20.03-30.233 46.922-30.233 76.451v96.421c0 6.887 4.407 13.001 10.94 15.179 32.646 10.882 66.648 16.4 101.06 16.4s68.414-5.518 101.06-16.399c6.534-2.178 10.94-8.292 10.94-15.179v-96.422c0-29.529-11.492-56.421-30.233-76.451z" fill="#3e66ff" data-original="#000000" style="" class=""/></g></g></svg>
