<svg xmlns="http://www.w3.org/2000/svg" width="36.895" height="37" viewBox="0 0 36.895 37"><g transform="translate(0 0.238)"><ellipse cx="4.5" cy="4" rx="4.5" ry="4" transform="translate(2 19.762)" fill="#3e66ff"/><path d="M9.728,392H3.243A3.246,3.246,0,0,0,0,395.243v5.4H12.971v-5.4A3.246,3.246,0,0,0,9.728,392Z" transform="translate(0 -363.886)" fill="#3e66ff"/><ellipse cx="4.5" cy="4" rx="4.5" ry="4" transform="translate(26 19.762)" fill="#3e66ff"/><path d="M341.728,392h-6.485A3.246,3.246,0,0,0,332,395.243v5.4h12.971v-5.4A3.246,3.246,0,0,0,341.728,392Z" transform="translate(-308.076 -363.886)" fill="#3e66ff"/><circle cx="4.5" cy="4.5" r="4.5" transform="translate(14 -0.238)" fill="#3e66ff"/><path d="M178.971,123.243A3.246,3.246,0,0,0,175.728,120h-6.485A3.246,3.246,0,0,0,166,123.243v5.549h12.971Z" transform="translate(-154.038 -111.486)" fill="#3e66ff"/><path d="M205.17,272h-2.162v5.321l-2.95,1.7,1.081,1.873,2.95-1.7,2.95,1.7,1.081-1.873-2.95-1.7Z" transform="translate(-185.642 -252.533)" fill="#3e66ff"/></g></svg>