<svg xmlns="http://www.w3.org/2000/svg" width="37.425" height="29.02" viewBox="0 0 37.425 29.02"><g transform="translate(0 -0.5)"><path d="M37.8,162.406a3.13,3.13,0,0,0-2.689-1.465H10.287a3.137,3.137,0,0,0-2.852,1.767L.87,176.473a2.362,2.362,0,0,0,2.31,1.761H29.588a2.979,2.979,0,0,0,2.665-1.649l5.674-11.373a2.87,2.87,0,0,0-.132-2.806Zm0,0" transform="translate(-0.807 -148.714)" fill="#3e66ff"/><path d="M5.292,11.877A3.136,3.136,0,0,1,8.144,10.11H31.516V7.121A2.28,2.28,0,0,0,29.2,4.885H15.571a.073.073,0,0,1-.039-.009L13.093,1.466A2.342,2.342,0,0,0,11.185.5H2.318A2.28,2.28,0,0,0,0,2.735V22.973Zm0,0" fill="#3e66ff"/></g></svg>