<svg xmlns="http://www.w3.org/2000/svg" width="45.508" height="28.447" viewBox="0 0 45.508 28.447"><path d="M-.437,1.3,35,0V26L-.562,24.063Z" transform="translate(8 1.447)" fill="#3e66ff"/><g transform="translate(0 0)"><g transform="translate(0 0)"><g transform="translate(0 0)"><path d="M45.274,13.441,36.739.64A1.423,1.423,0,0,0,35.559,0H1.422A1.422,1.422,0,0,0,0,1.422v25.6a1.422,1.422,0,0,0,1.422,1.422H35.559a1.423,1.423,0,0,0,1.181-.64l8.534-12.8A1.422,1.422,0,0,0,45.274,13.441ZM34.791,25.6H2.845V2.845H34.791l7.581,11.379Z" transform="translate(45.508 28.447) rotate(180)" fill="#3e66ff"/><path d="M2.845,0A2.845,2.845,0,1,1,0,2.845,2.845,2.845,0,0,1,2.845,0Z" transform="translate(27.195 17.068) rotate(180)" fill="#fff"/><path d="M2.845,0A2.845,2.845,0,1,1,0,2.845,2.845,2.845,0,0,1,2.845,0Z" transform="translate(39.107 17.068) rotate(180)" fill="#fff"/><path d="M2.845,0A2.845,2.845,0,1,1,0,2.845,2.845,2.845,0,0,1,2.845,0Z" transform="translate(15.283 17.068) rotate(180)" fill="#fff"/></g></g></g><path d="M11,0,22,8H0Z" transform="translate(0 25.447) rotate(-90)" fill="#3e66ff"/></svg>