<svg xmlns="http://www.w3.org/2000/svg" xmlns:xlink="http://www.w3.org/1999/xlink" width="621.701" height="354.569" viewBox="0 0 621.701 354.569"><defs><linearGradient id="a" x1="0.5" y1="1" x2="0.5" gradientUnits="objectBoundingBox"><stop offset="0" stop-color="gray" stop-opacity="0.251"/><stop offset="0.54" stop-color="gray" stop-opacity="0.122"/><stop offset="1" stop-color="gray" stop-opacity="0.102"/></linearGradient><linearGradient id="b" x1="0" y1="0.5" x2="1" y2="0.5" xlink:href="#a"/></defs><g transform="translate(0.02 0)"><path d="M402.215,395.577c12.01-.685,26.911-8.831,38.5-12.434q20.569-6.38,41.3-12.276,72.174-20.536,145.9-35,6.88-1.353,13.781-2.641a97.551,97.551,0,0,0-32.2-38.676,98.927,98.927,0,0,0,.543-10.206c0-53.876-43.056-97.552-96.188-97.552a94.655,94.655,0,0,0-46.681,12.254c-37.606-24.737-86.689-39.709-140.391-39.709-76.309,0-143.3,30.231-181.257,75.755l178.4,30.139,109.415,18.477C308.592,287.433,183.471,291.134,59.1,282.4A98.59,98.59,0,0,0,44.9,406.842h0c0,1.951.082,3.886.228,5.8,3.168.907,6.228,1.788,8.972,2.364q66.087,13.961,133.022,23.368c-32.883,20.276-72.929,23.145-110.861,31.731,18.368,15.162,43.312,24.455,70.8,24.455H556.333c44.317,0,80.238-30.851,80.238-68.913h0a97.922,97.922,0,0,0,13.043-35.807C567.609,397.761,484.583,390.887,402.215,395.577Z" transform="translate(-28.493 -139.994)" fill="#3e66ff" opacity="0.1"/><path d="M649.68,372.765a97.818,97.818,0,0,0-41.3-80.113,100.371,100.371,0,0,0,.544-10.2c0-53.876-43.078-97.536-96.188-97.536a94.71,94.71,0,0,0-46.687,12.249c-37.606-24.748-86.694-39.725-140.4-39.725-87.352,0-162.541,39.644-195.887,96.492-1.853-.109-3.717-.168-5.6-.168-53.115,0-96.188,43.676-96.188,97.552A98.106,98.106,0,0,0,43.8,404.937h0c0,48.474,45.752,87.77,102.166,87.77H555.253c44.312,0,80.233-30.856,80.233-68.918h0a98.1,98.1,0,0,0,14.195-51.023Z" transform="translate(-28 -139.126)" fill="#3e66ff" opacity="0.1"/><path d="M846.072,344.418a6.053,6.053,0,0,0-2.652-1.163c-1.016-.234-2.054-.38-3.087-.543l-13.379-1.929a15.762,15.762,0,0,0-4.1-.217,5.2,5.2,0,0,0-3.565,1.848,2.777,2.777,0,0,0-.62,1.739,4.587,4.587,0,0,0,.609,1.8,6.054,6.054,0,0,1,.331.8,18.256,18.256,0,0,0,.478,1.82,1.543,1.543,0,0,0,.228.359.583.583,0,0,1,0,.092c-.147.75.326,1.533.114,2.255-.185.619-.788.994-1.168,1.511a2.272,2.272,0,0,0-.054,2.505c.408.63,1.147,1.06,1.359,1.782.277.951-.473,1.869-1.141,2.6a40.327,40.327,0,0,0-3.4,4.288,2.656,2.656,0,0,0-.543,1.277c-.06.946.848,1.777.69,2.717-.125.739-.848,1.19-1.473,1.63a9.164,9.164,0,0,0-4.348,6.733,23.586,23.586,0,0,0-5.26-11.956,8.548,8.548,0,0,1-1.951-3.06c-.12-.473-.141-.978-.3-1.435-.544-1.44-2.272-2.06-3.027-3.386-.543-.935-.543-2.136-1.217-2.956s-1.734-1.005-2.315-1.8a11.518,11.518,0,0,1-.739-1.674,3.657,3.657,0,0,0-1.005-1.206,2.906,2.906,0,0,0-.25-.179.863.863,0,0,0,.288-.641c0-.636-.63-1.054-1.179-1.369-.706-.4-1.4-.837-2.071-1.288a4.842,4.842,0,0,0,1.853-1.516,4.984,4.984,0,0,0,.706-3.261,4.114,4.114,0,0,0-.973-2.494c-.342-.364-.772-.625-1.13-.967a7.931,7.931,0,0,1-1.63-3.489,7.1,7.1,0,0,0-2.8-4.206c-.717-.418-1.554-.614-2.255-1.054a1.969,1.969,0,0,1-1.043-2.071c.163-.543.668-.918,1.011-1.38a2.75,2.75,0,0,0-.69-3.8c-.4-.255-.9-.478-.978-.946a1.728,1.728,0,0,1-1.261-1.337,5.146,5.146,0,0,1,0-1.935q.212-1.516.418-3.021a1.967,1.967,0,0,0,1.511,0,13.3,13.3,0,0,0,1.63,2.13,21.289,21.289,0,0,1,3.8,6.6,3.976,3.976,0,0,0,1.429,2.3c.277.158.592.239.864.408a3.226,3.226,0,0,1,.848.869c.652.864,1.3,1.723,1.951,2.587l.033.13a.763.763,0,0,0,.087.217.722.722,0,0,0,.467.239c2,.462,4.244.886,5.978-.206,1.565-.978,2.25-2.913,3.576-4.206.94-.918,2.272-1.63,2.538-2.924a9.614,9.614,0,0,1-.935-.342c.272-.272.543-.587.913-.946a11.508,11.508,0,0,0,1.445-1.723,11.1,11.1,0,0,0,1.087-2.435q1.57-4.478,3.152-8.961c.5-1.413,1-2.837,1.63-4.212.652-1.489,1.424-2.918,2.136-4.38a58.154,58.154,0,0,0,4.228-11.9,4.347,4.347,0,0,0,.168-1.734,4.571,4.571,0,0,0-1.543-2.348,11.33,11.33,0,0,0-2.315-1.918,3.8,3.8,0,0,0-2.9-.467,4.193,4.193,0,0,0-2.587,3.261,34.22,34.22,0,0,0-.337,4.347c-.2,2.092-.913,4.114-1.087,6.211-.092,1.212,0,2.44-.147,3.652a13.324,13.324,0,0,1-1.63,4.5,29.128,29.128,0,0,1-7.027,8.662c-.332.277-.674.543-1,.842a5.167,5.167,0,0,1,.071-.706,4.267,4.267,0,0,0-.69.245,2.071,2.071,0,0,0-.082-.815c-.435-1.3-2.369-1.63-2.717-2.951a6.046,6.046,0,0,1-.092-.989c-.114-1.157-.9-2.136-1.174-3.261-.25-1.038-.06-2.174-.544-3.136a8.762,8.762,0,0,0-1.445-1.63,6.4,6.4,0,0,1-1.375-2.592c-.071-.266-.136-.543-.212-.81a3.706,3.706,0,0,0-.2-1.788c-.495-1.228-1.772-2.016-2.234-3.261-.359-.967-.2-2.174-.88-2.924a3.179,3.179,0,0,0-1.288-.777,28.654,28.654,0,0,0-7.755-1.831c-1.489-.136-3.13-.212-4.2-1.261-1.244-1.217-1.3-3.407-2.761-4.347a3.3,3.3,0,0,0-4.092.951,5.188,5.188,0,0,0-.413.543,5.814,5.814,0,0,1-.114-2.228c0-.185.038-.375.054-.543a10.869,10.869,0,0,0,5.891-4.652v.033l.065.168c.158.4.408.777.777.821h0a1.087,1.087,0,0,0,.674-.245,5.58,5.58,0,0,0,.9-.783q.206-.228.391-.473a6.154,6.154,0,0,0,.641-1.087,6.461,6.461,0,0,0,.543-1.821c.1-.63.109-1.277.217-1.907a11.749,11.749,0,0,1,.4-1.44c.054-.158.109-.315.158-.473s.12-.37.174-.543a12.593,12.593,0,0,0,.543-3.445v-.587a5.733,5.733,0,0,0-1.826-4.049c-.935-.766-2.174-1.087-2.858-2.125a10.114,10.114,0,0,1-.8-2.407A5.434,5.434,0,0,0,770,249.192a4.755,4.755,0,0,0-3.38.929h0l-.076.06h0a5.434,5.434,0,0,0-1.348,1.5,4.484,4.484,0,0,1-1.913-1.087c-.543-.505-.962-1.141-1.511-1.63a3.885,3.885,0,0,0-3.869-.815,4.625,4.625,0,0,0-2.766,3.168c-.3,1.12-.245,2.407-.87,3.342-.484.728-1.277,1.087-1.831,1.75a3.294,3.294,0,0,0-.685,1.451h0a3.928,3.928,0,0,0-.092.908h0a1.651,1.651,0,0,0,.033.4v.065a2.872,2.872,0,0,0,.092.44h0a3.8,3.8,0,0,0,.81,1.489,3.576,3.576,0,0,0,1.31.945,5.3,5.3,0,0,0,.63.2l.647.147.228.054a10.836,10.836,0,0,0-.3,9.57,4.355,4.355,0,0,1-.054.456,37.577,37.577,0,0,0,.283,6.407,3.439,3.439,0,0,1-.4,2.44,4.634,4.634,0,0,1-.788.7c.293-.38.592-.755.9-1.13a3.875,3.875,0,0,0-3.065-.793A14.2,14.2,0,0,0,746,281.988c-1.217.7-2.467,1.63-3.858,1.467-.821-.092-1.63-.543-2.429-.326a4.929,4.929,0,0,0-1.244.739,1.684,1.684,0,0,1-1.022.315,22.061,22.061,0,0,0-3.2-2.614,25.18,25.18,0,0,1-3.179-3.407c-1.761-2.125-3.516-4.255-5.244-6.4-1.456-1.8-2.951-3.755-3.206-6.065a5.912,5.912,0,0,1-.038-.69,17.561,17.561,0,0,1,.413-3.261,1.628,1.628,0,0,0,0-.788c-.163-.543-.788-.745-1.326-.864h0c.071-.418.12-.848.147-1.255.3-4.674-.027-9.423.962-14a9.515,9.515,0,0,1,2.255-4.82c1.984-2.005,5.3-2.489,6.826-4.864a5.548,5.548,0,0,0-.832-6.521,8.23,8.23,0,0,0-6.4-2.369,3.3,3.3,0,0,0-1.864.5,3.961,3.961,0,0,0-1.13,1.717l-2.331,5.668a34.272,34.272,0,0,0-1.706,4.554c-.652,2.38-.8,4.891-1.315,7.293,0,1.848-1.19,4.152-1.842,5.853-.728,1.913-1.516,3.8-2.174,5.755-.163.489-.734,1.94-1.087,3.261a1.994,1.994,0,0,0-.37.277,9.84,9.84,0,0,0-.772,1.147c-.495.652-1.3,1-1.842,1.63s-.658,1.788.1,2.1a2.224,2.224,0,0,0,.473.1,1.542,1.542,0,0,1,1.31,2.152c-.12.848-.543,1.63-.614,2.478-.147,1.5.734,2.9,1.581,4.157a35.828,35.828,0,0,0,2.9,3.907c.766.859,1.63,1.63,2.4,2.456,2.94,3.022,5.277,6.554,7.918,9.836a21.809,21.809,0,0,0,3.223,3.38,24.264,24.264,0,0,0,2.44,1.679l4.543,2.88a4.979,4.979,0,0,0,1.717.81,2.285,2.285,0,0,0,.609,0c.027.136.049.266.081.4.353,1.424,1.13,2.717,1.217,4.168s-.044,2.935.06,4.4c.1,1.353.4,2.717.473,4.049a26.012,26.012,0,0,1-1.087,7.608c-.918,3.674-1.473,7.423-3.261,10.755a6.324,6.324,0,0,0-1.087,2.9,1.5,1.5,0,0,0,.033.38h0l-.815.462c-.239.136-.478.272-.7.413a5.817,5.817,0,0,0-2.56,2.581c-.342.94-.185,2.016-.6,2.929a1.278,1.278,0,0,1-.065.12c-.435.848-1.3,1.478-1.494,2.407h0c-.147.712.136,1.467,0,2.174v.027a7.871,7.871,0,0,0-.294,1.087,1.3,1.3,0,0,0,.033.359,2.071,2.071,0,0,0,.652,1.06,4.354,4.354,0,0,0,.636.505q.348.228.717.424l.141.076c.207.109.413.212.625.31l.141.06c.245.109.495.207.745.293l.174.054c.2.065.4.125.6.174l.136.044.125.027.543.114.2.038q.359.06.734.1h.217c.185,0,.364.027.543.033h.995a6.088,6.088,0,0,0,.766-.071h.082c.228-.033.456-.071.685-.12l.174-.038c.212-.049.424-.1.636-.163l.114-.033c.255-.076.511-.158.761-.255a19.968,19.968,0,0,0,2.511-1.244c.543-.3,1.087-.6,1.63-.88a12.653,12.653,0,0,1,1.239-.543,6.993,6.993,0,0,1,3.261-.543,12.766,12.766,0,0,1,1.63.331v.179q.663,3.913,1.31,7.825a15.93,15.93,0,0,1,2.25-1.353,5,5,0,0,0-.288,1.223,4.85,4.85,0,0,0,0,.973,2.111,2.111,0,0,1-.152,1.495c-.19.25-.543.391-.647.674a2.3,2.3,0,0,0-.054.886,1.413,1.413,0,0,1-1.293,1.315,2.065,2.065,0,0,1-.821,2.424,2.872,2.872,0,0,0-.63.413,1.88,1.88,0,0,0-.364.821A14.52,14.52,0,0,1,743.2,370.7a13.688,13.688,0,0,0-2.1,2.054,9.354,9.354,0,0,0-.951,1.875q-2.174,5.315-4.413,10.635a23.6,23.6,0,0,0-1.891,6.135c-.652,5.858-5.869,10.825-4.891,16.64a8.151,8.151,0,0,0,1.7,3.973,10,10,0,0,0,4.347,2.668A79.144,79.144,0,0,0,748,418.1l6.912,1.418a30.22,30.22,0,0,0,4.119.652,26.961,26.961,0,0,1,5.005.38,15.531,15.531,0,0,0,3.005.8c.891.049,1.989-.141,2.516.587s.12,1.69.62,2.337c.8,1.027,2.766,0,3.641.967a4.5,4.5,0,0,1,.543,1.2,2.174,2.174,0,0,0,.543.685,4.588,4.588,0,0,1,.065.929,16.022,16.022,0,0,1-.783,3.706q-.978,3.309-1.951,6.624a14.679,14.679,0,0,0-.543,2.391,5.736,5.736,0,0,0,0,1.185,3.254,3.254,0,0,0,1.951,2.831,3.576,3.576,0,0,0,2.641-.326A11.678,11.678,0,0,0,778.463,443a14.841,14.841,0,0,0,3.136-3.228c2.717-4.065,1.837-9.564,3.744-14.059,1.266-3,3.733-5.434,4.554-8.6a3.439,3.439,0,0,0,.065-1.859,3.852,3.852,0,0,0-2.581-2.1h-.049a22.283,22.283,0,0,0-2.717-.777c-.228-.049-.462-.087-.7-.125a4.265,4.265,0,0,1-1.2-1.565,3.636,3.636,0,0,0-.255-.94.978.978,0,0,0-.783-.435c-.543-.054-1.272.141-1.864.1-1.212-.087-2.016-1.277-3.1-1.826a6.338,6.338,0,0,0-3.424-.331,3.169,3.169,0,0,1-1.239-.076,4.659,4.659,0,0,1-1.3-.9,5.467,5.467,0,0,0-4.788-.962,5.216,5.216,0,0,1-1.63.369c-1.06-.06-1.81-1.005-2.592-1.723-2.141-1.962-5.19-2.478-7.787-3.766a1.777,1.777,0,0,1-.935-.8c-.3-.739.375-1.478.984-1.984l4.467-3.712c4.891-4.065,11-7.124,13.276-13.086a7.567,7.567,0,0,1,1.087-2.234,3.026,3.026,0,0,1,.6-.543,4.565,4.565,0,0,1,3.342-.652,11.285,11.285,0,0,1,3.934,1.717q2.918,1.766,5.679,3.8a50.239,50.239,0,0,1,5.19,4.261c2.853,2.717,5.228,5.94,7.885,8.869s5.7,5.663,9.385,7.065,8.151,1.342,11.32-1.011c3.657-2.717,4.831-7.575,5.755-12.032,2.038-1.967,2.652-4.962,3.646-7.608.625-1.679,1.424-3.261,2.1-4.934.8-1.967,1.435-4,2.065-6.027a28.989,28.989,0,0,0,1.445-6.288c.261-3.386-.647-6.989.3-10.168a37.5,37.5,0,0,0,3.63-1.4,17.991,17.991,0,0,1,5.75-.495h.125a2.967,2.967,0,0,0,1.913-.451,3.046,3.046,0,0,0,.788-2.315C847.762,348.1,847.632,345.765,846.072,344.418Zm-78.738-92.7a4.038,4.038,0,0,1-1.375.1Z" transform="translate(-338.361 -170.545)" fill="url(#a)"/><path d="M804.416,323.092a5.979,5.979,0,0,1-2.261,1.2l-3.853,1.38c-2.092.75-4.277,1.505-6.483,1.234-1.234-.152-6.521-.929-7.32-1.891-1.217-1.489,3.049-3.679,4.505-4.934a6.159,6.159,0,0,0,.913-.8,3.276,3.276,0,0,0,.4-2.429,37.518,37.518,0,0,1-.283-6.4,12.912,12.912,0,0,1,.217-1.516c.543-2.5,2.869-1.587,4.706-.924a36.8,36.8,0,0,1,6.385,2.766,4.582,4.582,0,0,1,1.576,1.337c.8,1.217.484,2.815.353,4.348a4.072,4.072,0,0,0,.636,3.2,8.231,8.231,0,0,1,1.027,1.087A2.038,2.038,0,0,1,804.416,323.092Z" transform="translate(-373.302 -207.541)" fill="#be6f72"/><path d="M718.883,247.812c.543-2.407.663-4.891,1.315-7.277A34.094,34.094,0,0,1,721.9,236l2.4-5.592a3.948,3.948,0,0,1,1.13-1.712,3.347,3.347,0,0,1,1.864-.5,8.3,8.3,0,0,1,6.4,2.364,5.487,5.487,0,0,1,.831,6.483c-1.522,2.375-4.842,2.853-6.826,4.853a9.5,9.5,0,0,0-2.255,4.809c-.989,4.565-.658,9.3-.962,13.961-.1,1.451-.38,3.108-1.63,3.858a4.755,4.755,0,0,1-2.435.473l-3.565.06c-.6,0-2.766.375-3.163-.076-.7-.788.891-4.712,1.179-5.587.641-1.94,1.429-3.831,2.174-5.739C717.693,251.953,718.883,249.654,718.883,247.812Z" transform="translate(-340.993 -171.427)" fill="#be6f72"/><path d="M843.524,574.343c-.821,3.141-3.288,5.586-4.554,8.581-1.907,4.483-1.049,9.967-3.744,14.021a14.814,14.814,0,0,1-3.136,3.233,11.64,11.64,0,0,1-2.174,1.462,3.576,3.576,0,0,1-2.641.326,3.252,3.252,0,0,1-1.951-2.826,5.709,5.709,0,0,1,0-1.179,14.621,14.621,0,0,1,.543-2.385q.978-3.3,1.951-6.608a16,16,0,0,0,.783-3.7c.071-1.37-.8-3.152-.429-4.429.168-.576.8-1.087,1.087-1.571a9.088,9.088,0,0,0,.935-2.223,13.821,13.821,0,0,1,1.685-4.413,10.355,10.355,0,0,1,2.12-1.984,5.62,5.62,0,0,1,2.021-1.136,4.952,4.952,0,0,1,2.174.1,21.321,21.321,0,0,1,2.717.772h.049a3.8,3.8,0,0,1,2.581,2.092A3.418,3.418,0,0,1,843.524,574.343Z" transform="translate(-392.026 -327.232)" fill="#3f3d56"/><path d="M940.855,447.449a3.012,3.012,0,0,1-.788,2.31,2.967,2.967,0,0,1-1.913.451h-.147a18.317,18.317,0,0,0-5.75.495c-1.4.462-2.679,1.31-4.135,1.478-2.005.228-3.891-.869-5.668-1.826a56.394,56.394,0,0,0-5.146-2.445c-1.152-.473-3.505-.777-4.06-2.038a18.532,18.532,0,0,1-.478-1.815,6.038,6.038,0,0,0-.331-.8,4.59,4.59,0,0,1-.609-1.8,2.776,2.776,0,0,1,.62-1.739,5.212,5.212,0,0,1,3.559-1.831,15.755,15.755,0,0,1,4.1.217l13.38,1.924c1.032.147,2.07.293,3.087.543a6.054,6.054,0,0,1,2.652,1.163C940.806,443.064,940.936,445.395,940.855,447.449Z" transform="translate(-431.535 -267.148)" fill="#3f3d56"/><path d="M853.6,454.861c-1.63,3.44-.457,7.51-.75,11.314a28.842,28.842,0,0,1-1.446,6.271c-.63,2.022-1.261,4.049-2.065,6.01-.674,1.63-1.473,3.261-2.1,4.924-.995,2.652-1.63,5.635-3.646,7.608-.924,4.445-2.1,9.3-5.755,12-3.179,2.348-7.608,2.429-11.32,1.011s-6.728-4.135-9.385-7.065-5.032-6.119-7.885-8.847a49.466,49.466,0,0,0-5.2-4.255q-2.761-2.005-5.679-3.771a11.377,11.377,0,0,0-3.934-1.712,4.565,4.565,0,0,0-3.342.652,3.027,3.027,0,0,0-.6.543,7.477,7.477,0,0,0-1.087,2.228c-2.282,5.945-8.407,9-13.3,13.053l-4.467,3.7c-.609.505-1.283,1.244-.984,1.978a1.777,1.777,0,0,0,.935.8c2.6,1.282,5.646,1.8,7.787,3.755.783.717,1.532,1.663,2.592,1.717a5.2,5.2,0,0,0,1.63-.364,5.483,5.483,0,0,1,4.788.956,4.655,4.655,0,0,0,1.3.9,3.168,3.168,0,0,0,1.239.076,6.614,6.614,0,0,1,3.424.331c1.038.516,1.891,1.734,3.1,1.82.592.044,1.3-.152,1.864-.1a.979.979,0,0,1,.783.435,3.6,3.6,0,0,1,.255.935c.223.766.973,1.234,1.462,1.864a5.15,5.15,0,0,1,.783,3.505,14.955,14.955,0,0,1-4.761,10.01,5.89,5.89,0,0,1-2.929,1.63,2.717,2.717,0,0,1-2.9-1.288,4.465,4.465,0,0,0-.543-1.2c-.875-.962-2.837.06-3.641-.967-.5-.641-.141-1.668-.619-2.331s-1.63-.544-2.516-.582a15.935,15.935,0,0,1-3.005-.8,27,27,0,0,0-5.005-.38,30.2,30.2,0,0,1-4.119-.652l-6.913-1.413a81.92,81.92,0,0,1-13.01-3.407,10.468,10.468,0,0,1-4.347-2.663,8.151,8.151,0,0,1-1.7-3.967c-.984-5.8,4.233-10.755,4.891-16.6a23.288,23.288,0,0,1,1.891-6.119q2.212-5.3,4.413-10.613a9.454,9.454,0,0,1,.924-1.88,13.647,13.647,0,0,1,2.1-2.049,14.472,14.472,0,0,0,4.255-6.978,1.882,1.882,0,0,1,.364-.821,3.058,3.058,0,0,1,.63-.408,2.065,2.065,0,0,0,.821-2.418,1.413,1.413,0,0,0,1.293-1.315,2.27,2.27,0,0,1,.054-.88c.13-.283.456-.424.647-.674a2.1,2.1,0,0,0,.152-1.489,4.851,4.851,0,0,1,0-.973,5,5,0,0,1,1.456-3.038c1.3-1.277,3.146-.945,4.94-1.25a28.3,28.3,0,0,0,5.217-1.668,51.254,51.254,0,0,1,14.733-3.407,32.165,32.165,0,0,1,14.879,2.369,8.458,8.458,0,0,1,1.918,1.087,3.634,3.634,0,0,1,1.005,1.2,11.2,11.2,0,0,0,.739,1.668c.581.793,1.679,1.049,2.315,1.8s.69,2.016,1.217,2.945c.755,1.326,2.505,1.94,3.027,3.38.163.456.185.957.3,1.429a8.176,8.176,0,0,0,1.951,3.054A23.483,23.483,0,0,1,828,477.446a9.094,9.094,0,0,1,4.347-6.717c.625-.408,1.348-.859,1.473-1.6.158-.935-.75-1.766-.69-2.717a2.663,2.663,0,0,1,.543-1.272,40.228,40.228,0,0,1,3.4-4.277c.668-.734,1.418-1.63,1.141-2.6-.212-.723-.951-1.147-1.359-1.777a2.261,2.261,0,0,1,.054-2.5c.38-.516.984-.891,1.168-1.505.212-.723-.261-1.505-.114-2.25a2.783,2.783,0,0,1,1.119-1.451,6.847,6.847,0,0,1,6.983-1.728c2.543.353,5.4.9,6.831,3.027A5.155,5.155,0,0,1,853.6,454.861Z" transform="translate(-356.039 -271.081)" fill="#65617d"/><path d="M940.841,447.449a3.012,3.012,0,0,1-.788,2.31,2.967,2.967,0,0,1-1.913.451h-.147c.223-1.13,1.6-1.777,1.837-2.924a2.587,2.587,0,0,0-.6-1.973,9.8,9.8,0,0,0-4.891-3.076,32.4,32.4,0,0,0-16.336-1.223,16.447,16.447,0,0,0-4.293,1.32,13.973,13.973,0,0,0-1.3.924,4.593,4.593,0,0,1-.608-1.8,2.777,2.777,0,0,1,.619-1.739,5.212,5.212,0,0,1,3.56-1.831,15.76,15.76,0,0,1,4.1.217l13.379,1.924a31.342,31.342,0,0,1,3.087.543,6.052,6.052,0,0,1,2.652,1.163C940.792,443.064,940.923,445.4,940.841,447.449Z" transform="translate(-431.522 -267.148)" opacity="0.1"/><path d="M843.524,575.154c-.821,3.141-3.288,5.587-4.554,8.581-1.907,4.483-1.049,9.967-3.744,14.021a14.809,14.809,0,0,1-3.136,3.233,11.632,11.632,0,0,1-2.174,1.462,3.576,3.576,0,0,1-2.641.326,3.253,3.253,0,0,1-1.951-2.826,5.71,5.71,0,0,1,0-1.179l.033.087c.473,1.141,1.244,2.337,2.462,2.538a3.331,3.331,0,0,0,2.511-.886c1.793-1.44,2.837-3.587,3.831-5.657a23.544,23.544,0,0,0,1.837-4.69c.217-.924.321-1.87.543-2.793,1.033-4.489,4.549-8.151,5.326-12.7a3.109,3.109,0,0,0,.044-.951,4.808,4.808,0,0,0-.467-1.185,5.865,5.865,0,0,1-.413-1.315,3.8,3.8,0,0,1,2.581,2.092A3.418,3.418,0,0,1,843.524,575.154Z" transform="translate(-392.026 -328.044)" opacity="0.1"/><path d="M814.966,537.434a7.874,7.874,0,0,1-2.451,3.348,11.957,11.957,0,0,1-5.277,2.282,5.251,5.251,0,0,1-2.717-.033c-1.206-.418-2.076-1.549-3.31-1.875a22.668,22.668,0,0,0-2.717-.158c-1.6-.223-2.848-1.446-4.141-2.424-3.962-2.978-9.162-3.94-13.124-6.918a1.216,1.216,0,0,1-.424-.44,1.31,1.31,0,0,1-.081-.614,12.5,12.5,0,0,1,1.19-5.222,18.234,18.234,0,0,1,2.239-3.19,96.794,96.794,0,0,1,11.363-12.4,17.217,17.217,0,0,1,5.978-3.668c1.25-.386,3.717-.75,5.239-.1a3.031,3.031,0,0,0-.6.543,7.478,7.478,0,0,0-1.087,2.228c-2.288,5.951-8.412,9-13.3,13.059l-4.467,3.7c-.609.505-1.282,1.244-.984,1.978a1.776,1.776,0,0,0,.935.8c2.6,1.283,5.646,1.8,7.787,3.755.782.717,1.532,1.663,2.592,1.717a5.207,5.207,0,0,0,1.63-.364,5.484,5.484,0,0,1,4.788.956,4.656,4.656,0,0,0,1.3.9,3.169,3.169,0,0,0,1.239.076,6.614,6.614,0,0,1,3.424.332c1.038.516,1.891,1.734,3.1,1.82C813.694,537.575,814.4,537.369,814.966,537.434Z" transform="translate(-371.673 -298.116)" opacity="0.1"/><path d="M747.549,411.7a5.77,5.77,0,0,0-2.554,2.565c-.348.94-.185,2.016-.6,2.929s-1.359,1.549-1.565,2.527c-.147.712.141,1.462,0,2.174a9.4,9.4,0,0,0-.3,1.13c-.054.81.641,1.467,1.321,1.918a11.032,11.032,0,0,0,9.874,1.087,44.619,44.619,0,0,0,4.152-2.125,8.21,8.21,0,0,1,4.472-1.087c.9.1,1.755.424,2.652.543a2.782,2.782,0,0,0,2.483-.739,3.1,3.1,0,0,0,.544-1.288,19.248,19.248,0,0,0-.3-9.146c-.717-3-1.8-5.885-2.57-8.869a40.7,40.7,0,0,0-1.869-6.57,8.621,8.621,0,0,0-4.57-4.837.853.853,0,0,0-.543-.071.923.923,0,0,0-.353.261,16.709,16.709,0,0,0-3.728,6.271c-.853,2.6-1.087,5.364-1.869,7.978a8.169,8.169,0,0,1-1.63,3.375A18.625,18.625,0,0,1,747.549,411.7Z" transform="translate(-354.236 -246.14)" fill="#3f3d56"/><path d="M768.051,421.289a3.168,3.168,0,0,1-.571,1.288,2.756,2.756,0,0,1-2.484.734c-.891-.109-1.75-.44-2.646-.544a8.2,8.2,0,0,0-4.472,1.087c-1.391.7-2.717,1.56-4.157,2.119a10.972,10.972,0,0,1-6.592.375,10.636,10.636,0,0,1-3.261-1.435A2.338,2.338,0,0,1,742.547,423a9.314,9.314,0,0,1,.3-1.125c.141-.712-.141-1.462,0-2.174.207-.978,1.152-1.63,1.565-2.532s.255-1.984.6-2.924a5.794,5.794,0,0,1,2.56-2.57,19.527,19.527,0,0,0,3.087-1.989,3.062,3.062,0,0,0,.288-.4,9.786,9.786,0,0,0,1.294-2.994c.8-2.619,1.016-5.375,1.864-7.983a16.746,16.746,0,0,1,3.733-6.266.821.821,0,0,1,.348-.261.869.869,0,0,1,.543.065,8.683,8.683,0,0,1,4.57,4.842,42.792,42.792,0,0,1,1.87,6.565c.761,2.983,1.853,5.88,2.57,8.874A19.334,19.334,0,0,1,768.051,421.289Z" transform="translate(-354.245 -246.107)" opacity="0.1"/><path d="M808.1,316.459a10.869,10.869,0,0,1-13.238-5.978,12.884,12.884,0,0,1,.217-1.516c.543-2.5,2.869-1.587,4.706-.924a36.8,36.8,0,0,1,6.385,2.766,4.58,4.58,0,0,1,1.576,1.337C808.549,313.346,808.229,314.943,808.1,316.459Z" transform="translate(-378.131 -207.555)" opacity="0.1"/><path d="M10.869,0A10.869,10.869,0,1,1,0,10.869,10.869,10.869,0,0,1,10.869,0Z" transform="translate(415.816 87.135)" fill="#be6f72"/><path d="M831.176,450.318c0,.9-1.223,1.19-2.13,1.141-3.261-.19-6.451-1.087-9.679-.815-4.081.37-7.831,2.625-11.923,2.831a36.144,36.144,0,0,0-4.733.136c-2.011.375-3.8,1.6-5.853,1.772-1.777.152-3.532-.516-5.309-.446A8.531,8.531,0,0,0,788,455.948a4.994,4.994,0,0,1,1.456-3.038c1.3-1.277,3.146-.946,4.94-1.25a28.29,28.29,0,0,0,5.217-1.668,51.25,51.25,0,0,1,14.732-3.407,32.167,32.167,0,0,1,14.874,2.353,8.465,8.465,0,0,1,1.918,1.087A.851.851,0,0,1,831.176,450.318Z" transform="translate(-374.999 -271.093)" opacity="0.1"/><path d="M789.083,336.228l-4.4-1.63-1.859-.685a8.988,8.988,0,0,0-2.369-.63,6.032,6.032,0,0,0-5.271,3.065,16.556,16.556,0,0,0-1.929,6.07q-.75,4.315-1.272,8.662a56.594,56.594,0,0,0-.571,7.9c.125,6.728,1.549,13.363,3.114,19.912a70.043,70.043,0,0,1,1.734,8.831c.13,1.228.19,2.462.321,3.7.141,1.386.37,2.755.6,4.13l1.31,7.809a10.323,10.323,0,0,1,5.489-2.233c1.777-.065,3.538.6,5.31.446,2.038-.168,3.842-1.391,5.853-1.766a35.275,35.275,0,0,1,4.739-.136c4.087-.207,7.842-2.467,11.918-2.831,3.233-.293,6.445.62,9.684.81.9.054,2.125-.234,2.125-1.141,0-.63-.63-1.049-1.179-1.364a58.143,58.143,0,0,1-7.364-5.255,24.859,24.859,0,0,1-5.788-5.728c-3.549-5.516-2.331-12.977-5.358-18.8-2.462-4.728,0-10.923,0-16.254a24.725,24.725,0,0,0-2.081-12.167l-2.114-5.353a.875.875,0,0,0-.25-.408.832.832,0,0,0-.484-.147,5.1,5.1,0,0,0-3.511,1.125c-.994.81-1.63,1.973-2.608,2.815C791.794,335.9,790.414,336.717,789.083,336.228Z" transform="translate(-367.424 -218.378)" fill="#e3e8f4"/><path d="M812.434,330.274a9.645,9.645,0,0,1,1.717-4.2,3.3,3.3,0,0,1,4.092-.946c1.456.946,1.516,3.13,2.761,4.347,1.087,1.043,2.717,1.125,4.2,1.261a28.449,28.449,0,0,1,7.755,1.826,3.169,3.169,0,0,1,1.288.772c.679.772.543,1.956.88,2.918.462,1.239,1.739,2.027,2.234,3.261.543,1.369,0,2.9-.456,4.309-.821,2.527-1.337,5.152-2.136,7.69a17.122,17.122,0,0,1-3.8,6.951c-.826.848-2.054,1.63-3.141,1.125L827.4,362.6a5.121,5.121,0,0,0,0,1.929,1.728,1.728,0,0,0,1.261,1.337c.081.467.576.69.978.946a2.717,2.717,0,0,1,.69,3.8c-.342.462-.848.826-1.011,1.375a1.953,1.953,0,0,0,1.043,2.065c.707.435,1.538.636,2.255,1.054a7.013,7.013,0,0,1,2.8,4.19,7.765,7.765,0,0,0,1.63,3.483c.359.342.788.6,1.13.962a4.125,4.125,0,0,1,.973,2.494,4.951,4.951,0,0,1-.706,3.261c-1.087,1.554-3.114,2.016-4.891,2.717-2.885,1.185-5.26,3.3-7.8,5.108A8.326,8.326,0,0,1,822.189,399c-1.761.234-3.494-.543-5.266-.614a13.075,13.075,0,0,0-3.141.413l-3.261.706c.174-2.527-1.217-5.059-1.994-7.467a37.106,37.106,0,0,1-1.391-14.129,110.666,110.666,0,0,1,2.272-14.1c.668-3.261.6-6.668,1.63-9.836.962-3.049,2.337-5.978,2.842-9.151C814.706,339.692,811.271,335.339,812.434,330.274Z" transform="translate(-383.673 -215.511)" fill="#3f3d56"/><path d="M855.546,352.762a5.98,5.98,0,0,1,.625,1.766,6.376,6.376,0,0,0,1.375,2.587,8.9,8.9,0,0,1,1.446,1.63c.5.946.31,2.1.543,3.13.272,1.125,1.06,2.1,1.174,3.261a5.985,5.985,0,0,0,.092.989c.353,1.315,2.288,1.63,2.717,2.945.288.853-.207,1.782-.114,2.679a2.36,2.36,0,0,1,.049.848,1.723,1.723,0,0,1-.62.793,12.5,12.5,0,0,0-3.576,6.364,36.249,36.249,0,0,0-.821,7.353l-2.125-2.81a3.23,3.23,0,0,0-.848-.869c-.272-.163-.587-.245-.864-.408a3.932,3.932,0,0,1-1.429-2.293,21.19,21.19,0,0,0-3.8-6.586c-.864-1.016-1.869-2.038-2.059-3.358a6.187,6.187,0,0,1,.1-1.815c.543-3.56,1.125-7.206,2.858-10.363.81-1.478,1.859-2.815,2.636-4.315C853.421,353.294,854.155,350.708,855.546,352.762Z" transform="translate(-402.064 -227.951)" fill="#3f3d56"/><path d="M738.229,327.612a2.484,2.484,0,0,1-.337,1.3,1.717,1.717,0,0,1-1.717.543,4.965,4.965,0,0,1-1.717-.8q-2.272-1.435-4.543-2.875a25.15,25.15,0,0,1-2.44-1.674,21.777,21.777,0,0,1-3.223-3.375c-2.641-3.261-4.978-6.8-7.918-9.782-.8-.815-1.63-1.6-2.4-2.451a35.779,35.779,0,0,1-2.9-3.9c-.848-1.255-1.728-2.647-1.581-4.146.087-.848.495-1.63.614-2.473a1.541,1.541,0,0,0-1.31-2.147,2.216,2.216,0,0,1-.473-.1c-.755-.315-.641-1.484-.1-2.1s1.348-.956,1.842-1.63a9.821,9.821,0,0,1,.772-1.147,2.939,2.939,0,0,1,1.266-.636,19.6,19.6,0,0,1,9.646-.364c.543.12,1.163.337,1.326.864a1.59,1.59,0,0,1,0,.783,17.5,17.5,0,0,0-.413,3.261,5.77,5.77,0,0,0,.038.685c.255,2.3,1.75,4.255,3.206,6.054,1.728,2.141,3.483,4.266,5.244,6.385a25.091,25.091,0,0,0,3.179,3.4c1.087.9,2.494,1.63,3.342,2.788.69.935.467,2.212.543,3.337a74.068,74.068,0,0,1,.054,10.206Z" transform="translate(-338.357 -199.383)" fill="#3f3d56"/><path d="M883.238,367.8a11.408,11.408,0,0,0,1.445-1.712,11.286,11.286,0,0,0,1.087-2.429l3.152-8.939c.5-1.413,1-2.831,1.63-4.206.652-1.484,1.424-2.913,2.136-4.347a57.989,57.989,0,0,0,4.223-11.82,4.381,4.381,0,0,0,.168-1.734,4.556,4.556,0,0,0-1.543-2.342,11.3,11.3,0,0,0-2.315-1.913,3.8,3.8,0,0,0-2.9-.467,4.193,4.193,0,0,0-2.587,3.261,34.054,34.054,0,0,0-.337,4.347c-.2,2.087-.913,4.1-1.087,6.2-.092,1.212,0,2.435-.147,3.641a13.3,13.3,0,0,1-1.63,4.494,29.178,29.178,0,0,1-7.027,8.641A11.3,11.3,0,0,0,875.4,360.5a6.617,6.617,0,0,0-1.016,2.532,5.831,5.831,0,0,0,.44,4.114,6.038,6.038,0,0,0,4.212,2.511C881.228,370.11,881.733,369.36,883.238,367.8Z" transform="translate(-414.35 -216.899)" fill="#be6f72"/><path d="M802.022,271.822a5.07,5.07,0,0,1,4.923-2.668,5.435,5.435,0,0,1,4.271,3.837,9.912,9.912,0,0,0,.8,2.4c.674,1.049,1.924,1.353,2.859,2.114a5.723,5.723,0,0,1,1.826,4.043,12.233,12.233,0,0,1-.723,4.57,14.527,14.527,0,0,0-.544,1.913c-.109.63-.12,1.272-.217,1.9a6.2,6.2,0,0,1-2.494,4.114,1.087,1.087,0,0,1-.674.245c-.424-.049-.685-.543-.842-.989-.864-2.494-.657-5.543-2.25-7.532a8.233,8.233,0,0,0-2.576-1.918,3.32,3.32,0,0,0-1.315-.495,3.461,3.461,0,0,0-1.9.7,11.842,11.842,0,0,1-3.761,1.663,4.619,4.619,0,0,1-3.885-.837c-.75-.62-1.3-1.549-2.13-2.032a16.412,16.412,0,0,0-2.521-.788,3.733,3.733,0,0,1-1.511-5.7c.543-.652,1.348-1.022,1.831-1.744.625-.935.571-2.217.87-3.337a4.592,4.592,0,0,1,2.766-3.157,3.886,3.886,0,0,1,3.869.81c.543.489.978,1.119,1.511,1.63a4.348,4.348,0,0,0,4.021,1.087" transform="translate(-375.272 -189.567)" fill="#3f3d56"/><path d="M829.146,420.649a2.109,2.109,0,0,0-.576,2.3c.12.255,5.728-.826,6.32-.907,1.478-.212,4.07-.109,5.065-1.462,1.772-2.4-3.717-1.864-4.722-1.777C833.32,418.97,830.6,419.231,829.146,420.649Z" transform="translate(-393.462 -258.407)" opacity="0.1"/><path d="M723.055,291.523a17.489,17.489,0,0,0-.413,3.261,9.5,9.5,0,0,1-4.891-.755l-4.494-1.532a1.277,1.277,0,0,0-1.717.321,38.056,38.056,0,0,1-2.717,3.016,2.22,2.22,0,0,1-.473-.1c-.755-.315-.641-1.484-.1-2.1s1.348-.956,1.842-1.63a9.82,9.82,0,0,1,.772-1.147,2.94,2.94,0,0,1,1.266-.636,19.6,19.6,0,0,1,9.646-.364c.543.12,1.163.337,1.326.864A1.593,1.593,0,0,1,723.055,291.523Z" transform="translate(-338.388 -199.383)" fill="#3f3d56"/><path d="M723.055,291.523a17.489,17.489,0,0,0-.413,3.261,9.5,9.5,0,0,1-4.891-.755l-4.494-1.532a1.277,1.277,0,0,0-1.717.321,38.056,38.056,0,0,1-2.717,3.016,2.22,2.22,0,0,1-.473-.1c-.755-.315-.641-1.484-.1-2.1s1.348-.956,1.842-1.63a9.82,9.82,0,0,1,.772-1.147,2.94,2.94,0,0,1,1.266-.636,19.6,19.6,0,0,1,9.646-.364c.543.12,1.163.337,1.326.864A1.593,1.593,0,0,1,723.055,291.523Z" transform="translate(-338.388 -199.383)" opacity="0.1"/><path d="M802.458,481.352a2.712,2.712,0,0,1,1.9,1.424l-6.293-1.6-3.26-.831c-.576-.147-2.641-.315-3.021-.766-.543-.663,1.386-.207,1.733-.158,1.054.158,2.109.321,3.157.511C798.648,480.287,800.551,480.869,802.458,481.352Z" transform="translate(-376.681 -286.042)" opacity="0.1"/><path d="M804.963,489.708c-.543-.364-2.1-.321-2.771-.478-.978-.234-1.94-.543-2.9-.842-1.951-.636-3.886-1.359-5.891-1.826-.37-.082-1.63-.1-1.571-.571s1.261-.63,1.56-.652c1.777-.13,3.994.7,5.646,1.293A24.883,24.883,0,0,1,804.963,489.708Z" transform="translate(-376.746 -288.827)" opacity="0.1"/><path d="M802.076,471.183c-1.994-.543-3.8-1.782-5.858-2.022a2.38,2.38,0,0,1-1.494-.456,1.76,1.76,0,0,1-.484-.87,10.124,10.124,0,0,1,4.223,1.06,13.3,13.3,0,0,1,1.978,1.054C800.9,470.226,801.582,471.025,802.076,471.183Z" transform="translate(-377.848 -280.839)" opacity="0.1"/><path d="M872.961,384.46a9.5,9.5,0,0,0,6.663,10.5c-.266,1.288-1.6,2-2.538,2.918-1.326,1.288-2.011,3.217-3.576,4.2-1.744,1.087-3.989.663-5.978.206a.729.729,0,0,1-.468-.244.67.67,0,0,1-.087-.212,13.986,13.986,0,0,1-.413-7.391c.543-2.054,1.848-3.8,2.891-5.619S870.6,385.058,872.961,384.46Z" transform="translate(-410.714 -242.775)" fill="#3f3d56"/><path d="M767.927,327.1a14.13,14.13,0,0,0-5.978,1.821c-1.217.7-2.467,1.63-3.858,1.462-.82-.092-1.63-.543-2.429-.326a4.766,4.766,0,0,0-1.244.739,1.408,1.408,0,0,1-1.369.217l-.543,7.521a27.572,27.572,0,0,0,.277,8.565c.353,1.424,1.13,2.717,1.217,4.163s-.043,2.929.06,4.391c.1,1.353.4,2.685.473,4.038a25.692,25.692,0,0,1-1.087,7.57c-.918,3.663-1.473,7.407-3.261,10.722a6.325,6.325,0,0,0-1.087,2.9,1.479,1.479,0,0,0,.033.38c-.543.3-1.049.582-1.511.875a5.793,5.793,0,0,0-2.56,2.571c-.342.94-.185,2.016-.6,2.924s-1.359,1.554-1.565,2.532c-.147.712.136,1.462,0,2.174a9.272,9.272,0,0,0-.3,1.125,2.36,2.36,0,0,0,1.32,1.918,10.636,10.636,0,0,0,3.261,1.435l3.244-12.879h0a103.843,103.843,0,0,0,7.353-17.1,36.78,36.78,0,0,1,2.125-5.63,26.454,26.454,0,0,0,1.63-3.2,24.069,24.069,0,0,0,.783-4.3,30.1,30.1,0,0,1,1.277-4.962,21.293,21.293,0,0,0,1.386-5.315c.179-2.619-.772-5.385.239-7.809a10.386,10.386,0,0,1,1.658-2.494c1.4-1.717,2.679-3.516,4.081-5.233A3.77,3.77,0,0,0,767.927,327.1Z" transform="translate(-354.268 -216.581)" fill="#3f3d56"/><g transform="translate(413.344 80.467)" opacity="0.1"><path d="M816.755,271.81l-.679.049-.076.054A4.013,4.013,0,0,0,816.755,271.81Z" transform="translate(-801.127 -271.81)"/><path d="M816.693,289.616a14.634,14.634,0,0,1-.7,3.174,14.517,14.517,0,0,0-.543,1.913c-.109.63-.12,1.272-.217,1.9a6.2,6.2,0,0,1-2.494,4.114,1.088,1.088,0,0,1-.674.245c-.424-.049-.685-.543-.842-.989-.864-2.494-.657-5.543-2.25-7.532a8.233,8.233,0,0,0-2.576-1.918,3.322,3.322,0,0,0-1.315-.495,3.461,3.461,0,0,0-1.9.7,11.841,11.841,0,0,1-3.761,1.663,4.619,4.619,0,0,1-3.886-.837c-.75-.62-1.3-1.549-2.13-2.032a16.4,16.4,0,0,0-2.521-.788,3.712,3.712,0,0,1-2.119-2.424,1.539,1.539,0,0,1-.044-.207,3.805,3.805,0,0,0,.044,1.837,3.712,3.712,0,0,0,2.119,2.424,18.329,18.329,0,0,1,2.521.788,20.562,20.562,0,0,1,2.13,2.032,4.619,4.619,0,0,0,3.886.837,11.843,11.843,0,0,0,3.761-1.663,3.461,3.461,0,0,1,1.9-.7,3.32,3.32,0,0,1,1.315.495,8.231,8.231,0,0,1,2.538,1.935c1.592,1.989,1.386,5.038,2.25,7.532.158.451.418.94.842.989a1.087,1.087,0,0,0,.712-.261,6.2,6.2,0,0,0,2.5-4.13c.1-.63.109-1.272.218-1.9A14.51,14.51,0,0,1,816,294.4a12.229,12.229,0,0,0,.723-4.57C816.715,289.768,816.7,289.692,816.693,289.616Z" transform="translate(-788.631 -278.334)"/></g><path d="M713.775,372.81l-.37,4.962c-.054.674-1.342,16.716-10.841,35.465a100.641,100.641,0,0,1-53.963,48.8q-3.505,1.386-7.277,2.587l-2.8-8.8a102.939,102.939,0,0,0,20.227-8.847,89.52,89.52,0,0,0,35.41-37.584,100.958,100.958,0,0,0,9.293-27.335H669.376V372.81Z" transform="translate(-306.751 -237.456)" fill="#3e66ff"/><path d="M647.088,462.046a100.619,100.619,0,0,0,53.958-48.79c9.5-18.749,10.793-34.78,10.842-35.465l.369-4.962h3.8l-.37,4.962c-.049.674-1.342,16.716-10.841,35.465a100.64,100.64,0,0,1-53.958,48.79q-3.505,1.386-7.282,2.592l-.37-1.157Q645.207,462.779,647.088,462.046Z" transform="translate(-308.906 -237.466)" fill="#fff" opacity="0.1"/><path d="M476.775,455.814l-2.8,8.8q-3.777-1.206-7.282-2.592a100.62,100.62,0,0,1-53.958-48.79c-9.5-18.749-10.793-34.78-10.842-35.465l-.37-4.962H445.9v9.238H411.818a101.011,101.011,0,0,0,9.32,27.335,89.462,89.462,0,0,0,35.4,37.579,102.708,102.708,0,0,0,20.232,8.853Z" transform="translate(-198.545 -237.457)" fill="#3e66ff"/><path d="M470.233,462.046a100.62,100.62,0,0,1-53.958-48.79c-9.5-18.749-10.793-34.78-10.842-35.465l-.369-4.962h-3.8l.37,4.962c.049.674,1.342,16.716,10.842,35.465a100.64,100.64,0,0,0,53.958,48.79q3.505,1.386,7.282,2.592l.37-1.157Q472.118,462.779,470.233,462.046Z" transform="translate(-198.427 -237.466)" fill="#fff" opacity="0.1"/><path d="M597.45,628.275v49.817H494.92V628.275l3.261-4.347c33.226-11.793,39.959-42.545,41.3-54.713a50.019,50.019,0,0,0,.342-5.065H552.5a49.982,49.982,0,0,0,.343,5.065c1.364,12.168,8.1,42.931,41.3,54.713Z" transform="translate(-241.189 -324.816)" fill="#3e66ff"/><rect width="102.53" height="6.25" transform="translate(253.731 303.46)" opacity="0.1"/><path d="M503.615,623.928c33.226-11.793,39.959-42.545,41.3-54.713a50.019,50.019,0,0,0,.342-5.065h-5.434a50.019,50.019,0,0,1-.342,5.065c-1.364,12.168-8.1,42.931-41.3,54.713l-3.261,4.347v49.817h5.434V628.275Z" transform="translate(-241.189 -324.816)" fill="#fff" opacity="0.1"/><path d="M466.26,372.81h9.195v9.238h-8.38Q466.581,377.484,466.26,372.81Z" transform="translate(-228.103 -237.456)" opacity="0.1"/><path d="M523,518.113l-2.8,8.8q-3.777-1.206-7.282-2.592A97.357,97.357,0,0,1,502.77,509.26,102.71,102.71,0,0,0,523,518.113Z" transform="translate(-244.773 -299.755)" opacity="0.1"/><path d="M638.51,518.117a102.942,102.942,0,0,0,20.227-8.847,97.746,97.746,0,0,1-10.146,15.069q-3.505,1.386-7.277,2.587Z" transform="translate(-306.747 -299.759)" opacity="0.1"/><path d="M704.519,372.81q-.321,4.674-.815,9.238H695.33V372.81Z" transform="translate(-332.689 -237.456)" opacity="0.1"/><path d="M590.323,569.215a35.128,35.128,0,0,1-13.363,0,50.038,50.038,0,0,0,.342-5.065h12.678A50.055,50.055,0,0,0,590.323,569.215Z" transform="translate(-278.645 -324.816)" opacity="0.1"/><path d="M468.26,344.65c.234,68.505,29.579,123.9,65.756,123.9s65.517-55.4,65.756-123.9Z" transform="translate(-229.017 -224.6)" fill="#3e66ff"/><path d="M479.944,344.65H468.26c.234,68.505,29.579,123.9,65.756,123.9a35.508,35.508,0,0,0,5.842-.495C506.415,462.472,480.167,409.427,479.944,344.65Z" transform="translate(-229.017 -224.6)" fill="#fff" opacity="0.1"/><rect width="69.739" height="17.933" transform="translate(270.127 322.529)" fill="#3f3d56"/><path d="M500.351,595.945h66.478V593.5H497.09v17.933h3.261Z" transform="translate(-226.963 -270.971)" fill="#fff" opacity="0.1"/><path d="M298.811,391.078c-1.255-.418-8.646-6.266-9.206-8.912s3.907-27.3,3.907-27.3a10.036,10.036,0,0,1-1.087-.082v-.4L293.344,322s3.766-21.737-3.348-20.471S287.344,322,287.344,322s-.81,9.749-1.38,12.673c-.543,2.82-3.032,14.309-1.337,17.879a3.876,3.876,0,0,0,.207.37h0s.283,12.254-2.788,13.928c-2.929,1.592-4.146,9.608-4.25,10.325l-.158-.065h0a8.516,8.516,0,0,1-2.266-2.07c-.065-.082-.114-.168-.174-.255a11.968,11.968,0,0,0-3.684-18.689,7.716,7.716,0,0,0-.723-3c-1.413-3.021-9.238-6.972-14.8-7.065-2.565-.076-4.668.652-5.434,2.657a15.331,15.331,0,0,0-.435,3.228,8.209,8.209,0,0,1-3.516,5.228,22.044,22.044,0,0,0-2.342-2.255,51.173,51.173,0,0,1-5.434-5.978s-11.3-11.7-12.135-14.906-12.124-22.46-14.635-19.107,8.646,17.966,8.646,17.966,2.119,5.309,3.75,7.1,14.129,19.944,14.129,19.944l.6,1.239c-2.641,1.391-5.054,3.163-5.907,5.923-1.25,4.065,1.484,8.152,3.375,11.956,3.684,7.423,4.212,16.89-.543,23.672-4.261,5.989-11.651,8.836-18.569,11.325a18.276,18.276,0,0,0,11.738,3.9c-1.6,4.63-7.26,6.163-12.086,7.021,2.532,2.435,6.157,3.32,9.635,3.858a28.868,28.868,0,0,0,5.157.408h.424l.424-.033a14.755,14.755,0,0,0,1.755-.223,9.223,9.223,0,0,0,6.233-4.1c1.087-1.9,1.467-4.483,3.44-5.434a4.4,4.4,0,0,1,1.63-.386h1.06l8.222.082h1.049c2.32-.054,4.8-.457,5.978-2.375a6.587,6.587,0,0,0,.744-3.016c.174-2.6,0-5.282.071-7.907.7,4.777,1.435,12.222-.31,14.972a25.542,25.542,0,0,1-5.1,5.527,9.78,9.78,0,0,0-1.348,1.38c-.266.19-.424.293-.424.293l-.168.505a9.565,9.565,0,0,0-1.326,3.076,2.135,2.135,0,0,0-.1.875c.19.386-1.359,1.978-.908,2.646-3.869,4.538-4.6,11.412-4.6,11.412l-7.065,10.727c-3.63,9.537-9.065,10.515-9.065,10.515s-12.765-8.564-13.113-8.983a49.3,49.3,0,0,0-5.228-2.511,5.532,5.532,0,0,0-2.511-2.293c-1.674-.7-1.815-3.261-1.815-3.261-.207-6.059-3.766-6.521-3.766-6.521a11.564,11.564,0,0,0-6.744,1.2l-.511.038c-2.467.2-5.434.424-8.695.641-9.07.6-11.227,6.472-11.227,6.472a1.808,1.808,0,0,0,.348,2.614c1.462,1.359,10.82,0,11.217-.033a6.077,6.077,0,0,1-2.13-.147c1.473-.054,3.5-.109,5.228-.109h.418a22.611,22.611,0,0,0-.158,2.761c0,1.739,4.809,2.853,4.809,2.853l14.646,13.042s9.206,4.114,15.064,10.032,11.037.81,11.037.81c6.2-1.532,24.042-23.1,24.058-23.123h0c0,.63.375,21.607,1.087,25.819h0a2.8,2.8,0,0,0,.158.625c.837,1.81-.283,6.755-.766,8.842a24.566,24.566,0,0,0-.353,5.293s-6.69,25.542-6.135,27.786-3.625,12.673-3.625,12.673v8.695l.728-.038a4.69,4.69,0,0,0-.261.435l-.049.092a30.927,30.927,0,0,0,7.461.7c3-.277,8.152,2.31,8.152,2.31s1.744.826,7.113,1.174,5.369-2.369,5.369-2.369c-.614-3.7-9.1-4.94-9.358-4.978-.685-.429-1.326-.9-1.853-1.3l-.109-.087a2.335,2.335,0,0,0,.092-.25c.908-3.7-4.114-5.3-4.114-5.3v-.9c3.261-1.674,3.907-13.162,3.907-13.162s4.891-14.205,5.576-16.575a15.666,15.666,0,0,0,0-5.918l.489-3.065a15.076,15.076,0,0,0,1.049-2.505,6.189,6.189,0,0,1,1.185-2.924c.766-.908-.837-3.065-.837-3.065l1.4-3.619v-3.973l3.261-14.412s3.418-16.787,2.233-22.281,1.4-8.287,1.4-8.287a6.881,6.881,0,0,1-.717.326,20.77,20.77,0,0,0,.842-2.315l7.336.908v.109h2.647s-.837-10.325-.837-14.488,2.82-19.1,2.82-19.1S300.066,391.5,298.811,391.078Zm-32.568-12.053c0,.408-.038.832-.065,1.266l-.147.223-.272-.228-.331.516-.1.049c-.717-.369-1.087-2.483-1.6-2.027l-.071.06c-.114-.13-.228-.168-.348-.06l-.109.092v-.484a12.223,12.223,0,0,0,3.043.386C266.248,378.889,266.243,378.959,266.243,379.025Zm24.4,48.083h.158l-.261.685C290.572,427.564,290.6,427.341,290.643,427.108ZM263.857,550.342l-1-.25L263.4,550l.505.331.06.043Zm10.217-1.462c-.332-.174-.668-.375-.994-.581C273.188,548.359,273.617,548.582,274.074,548.88Z" transform="translate(-96.76 -204.886)" fill="url(#b)"/><path d="M354.043,390.03l-6.581,17.151h1.6l-6.19,4.934,11.173,1.391Z" transform="translate(-156.552 -178.074)" fill="#f86d70"/><path d="M354.043,390.03l-6.581,17.151-1.658-.446-2.935,5.38,11.173,1.391Z" transform="translate(-156.552 -178.074)" opacity="0.1"/><path d="M344.44,384.036h10.32l3.788-31.166H344.44Z" transform="translate(-157.269 -161.108)" fill="#f86d70"/><path d="M344.44,384.036h10.32l3.788-31.166H344.44Z" transform="translate(-157.269 -161.108)" opacity="0.1"/><path d="M334.467,461.56l2.228-.375,5.119-.869s15.374-3.467,18.547-3.75a19.818,19.818,0,0,0,5.565-1.587c.831-.359,1.359-.63,1.359-.63l-5.538-10.113-8.592-6.369s-5.434-1.158-7.733-4.32a5.092,5.092,0,0,1-.712-4.826c1.4-4.348-8.374,4.157-8.374,4.157s.092,2.038,0,4.635c0,.511-.049,1.043-.087,1.587a10.7,10.7,0,0,1-.087,1.087c-.239,2.581-.728,5.239-1.7,6.826C332.1,450.893,334.467,461.56,334.467,461.56Z" transform="translate(-167.452 -262.418)" fill="#fbbebe"/><path d="M338.79,437.913h.217c.391,0,.706-.831,1.087-.869,3.06-.293,5.853-.935,7.793-3.1a5.1,5.1,0,0,1-.712-4.82c1.4-4.347-8.374,4.152-8.374,4.152S338.9,435.315,338.79,437.913Z" transform="translate(-169.905 -262.6)" opacity="0.1"/><path d="M316.89,413.654A11.907,11.907,0,0,0,328.8,425.566a8.3,8.3,0,0,0,1.163-.054,11.912,11.912,0,1,0-13.075-11.858Z" transform="translate(-159.906 -250.667)" fill="#fbbebe"/><path d="M282.319,388.163a14.652,14.652,0,0,0-.429,3.212c-.581,3.864-4.511,6.179-8.065,7.8s-7.565,3.538-8.695,7.271c-1.239,4.038,1.467,8.086,3.348,11.874,3.663,7.38,4.185,16.792-.543,23.542-4.2,5.978-11.521,8.815-18.412,11.3a18.151,18.151,0,0,0,11.657,3.88c-1.581,4.6-7.206,6.13-12,6.978,2.516,2.424,6.119,3.3,9.57,3.837a21.7,21.7,0,0,0,7.608.141,9.14,9.14,0,0,0,6.184-4.076c1.087-1.886,1.456-4.456,3.418-5.407a6.184,6.184,0,0,1,2.788-.408l8.152.087c2.538,0,5.543-.2,6.853-2.364a6.521,6.521,0,0,0,.739-3c.353-5.347-.674-11,1.527-15.879.663-1.473-3.592-3.8-3.146-5.364a50.1,50.1,0,0,0,1.9-15.167c0-4.32,2.81-8.043,5.13-11.689s4.26-8.249,2.429-12.162C300.268,388.207,284.759,381.865,282.319,388.163Z" transform="translate(-128.992 -243.256)" fill="#3f3d56"/><path d="M330.13,754.231l2.076,1.375.321.212.06.038,2.462,1.63,5.75.967,5.054-.348s1.456-3.043-.831-2.973a4.762,4.762,0,0,1-2.087-.6l-.315-.158h0c-.331-.174-.663-.37-.989-.576h0c-.679-.429-1.321-.9-1.837-1.293-.761-.587-1.266-1.033-1.266-1.033Z" transform="translate(-165.951 -410.339)" fill="#fbbebe"/><path d="M334,758.176l.321.212.06.038,2.462,1.63,5.75.967,5.054-.348s1.456-3.043-.831-2.973a4.76,4.76,0,0,1-2.087-.6c.4.315.739.658.772.946.092.777-3.739,2.174-3.739,2.174l-5.4-1.429s-.918-.261-2.174-.587l-.12-.033Z" transform="translate(-167.718 -412.91)" opacity="0.1"/><path d="M317,758.863a30.584,30.584,0,0,0,7.407.69c2.978-.277,8.108,2.288,8.108,2.288s1.734.815,7.065,1.163,5.331-2.359,5.331-2.359c-.609-3.679-9.032-4.891-9.293-4.945h0a10.324,10.324,0,0,1,.989.576h0c.6.391,1.245.9,1.293,1.315.092.772-3.739,2.174-3.739,2.174l-5.4-1.424s-.918-.266-2.174-.592h-.12a46.347,46.347,0,0,0-5.663-1.169,3.931,3.931,0,0,0-3.761,2.174A.647.647,0,0,0,317,758.863Z" transform="translate(-159.957 -412.271)" fill="#3f3d56"/><path d="M188.54,576.471l2.353,1.8s.685-.033,1.706-.065h.326c1.462-.054,3.478-.109,5.19-.109a16.474,16.474,0,0,1,3.31.185c1.174.413,3.261-6.717,3.261-6.717l-2.359-.543-.783-.185-.543-.13-1.918-.451-5.815.663-4.087,2.63Z" transform="translate(-101.306 -327.605)" fill="#fbbebe"/><path d="M188.54,576.471l2.353,1.8s.685-.033,1.706-.065a2.059,2.059,0,0,1-1.087-.973c-1.522-4.222,6.027-6.027,6.027-6.027l3.516-.152.685-.033h.543l-.783-.185-.543-.13-1.918-.451-5.815.663-4.087,2.63Z" transform="translate(-101.306 -327.605)" opacity="0.1"/><path d="M179.367,576.562c1.424,1.315,10.749,0,11.14-.033a5.867,5.867,0,0,1-2.114-.147,2.331,2.331,0,0,1-1.63-1.168c-1.522-4.228,6.027-6.027,6.027-6.027l3.516-.152.679-.033,8.548-.37.413-2.353s-2.777.261-7.135.609c-2.451.2-5.434.424-8.657.636-9,.6-11.146,6.44-11.146,6.44A1.806,1.806,0,0,0,179.367,576.562Z" transform="translate(-96.774 -325.788)" fill="#3f3d56"/><path d="M371.962,354.809a2.413,2.413,0,0,0,.207.369l2.076,3.043,5.4.543.06-2.141.908-32.215s3.739-21.607-3.326-20.363-2.63,20.363-2.63,20.363-.8,9.695-1.369,12.608C372.739,339.832,370.277,351.276,371.962,354.809Z" transform="translate(-184.785 -206.038)" fill="#fbbebe"/><path d="M350.14,542.914l1.538,2.63,3.44,5.885s6.239,2.288,7.836.543c.875-.951,1.821-4.271,2.483-7.065.543-2.261.908-4.168.908-4.168Z" transform="translate(-175.087 -314.127)" fill="#fbbebe"/><path d="M350.14,542.937l1.538,2.63a1.808,1.808,0,0,0,.261-.277c1.739-2.217,9.4-.473,13.5-.332.543-2.261.908-4.168.908-4.168Z" transform="translate(-175.087 -314.15)" opacity="0.1"/><path d="M206.16,576.274a16.483,16.483,0,0,1,3.31.185c1.174.413,3.261-6.717,3.261-6.717L209.589,569l8.548-.37.413-2.353s-2.777.261-7.135.609a8.964,8.964,0,0,0-2.375,1.984l-.13.163A14.243,14.243,0,0,0,206.16,576.274Z" transform="translate(-109.351 -325.788)" opacity="0.1"/><path d="M330.13,754.212l2.4,1.587c3.576-.647,6.842-1.663,7.228-3.261a.536.536,0,0,0,0-.076c-.761-.587-1.266-1.033-1.266-1.033Z" transform="translate(-165.951 -410.321)" opacity="0.1"/><path d="M317.09,759.492a82.945,82.945,0,0,0,9.423-1.011,46.341,46.341,0,0,0-5.668-1.179A3.909,3.909,0,0,0,317.09,759.492Z" transform="translate(-159.998 -412.992)" opacity="0.1"/><path d="M206.64,567.352c0,1.734,4.777,2.842,4.777,2.842l14.548,12.95s9.141,4.087,14.955,9.972,10.945.831,10.945.831c6.163-1.522,23.911-22.993,23.911-22.993s.413,24.52,1.245,26.319-.277,6.717-.761,8.8a24.459,24.459,0,0,0-.348,5.26s-6.646,25.416-6.092,27.634-3.6,12.608-3.6,12.608v8.657s16.276-.625,17.173-4.293-4.081-5.266-4.081-5.266v-.9c3.261-1.663,3.875-13.086,3.875-13.086s4.853-14.129,5.543-16.482a15.411,15.411,0,0,0,0-5.891l.484-3.043a15.191,15.191,0,0,0,1.038-2.494,6.162,6.162,0,0,1,1.179-2.907c.761-.9-.831-3.049-.831-3.049l1.386-3.6v-3.945l3.261-14.336s3.4-16.694,2.217-22.167,1.386-8.238,1.386-8.238c-5.559,2.913-8.363-3.57-9.282-6.358-.234-.717-.348-1.2-.348-1.2s-7.635-2.815-14.743-2.141a16.974,16.974,0,0,0-4.233.9c-7.9,2.842-9.141,14.613-9.141,14.613L254.1,567.01c-3.6,9.488-9,10.456-9,10.456s-12.673-8.516-13.042-8.934a50.765,50.765,0,0,0-5.2-2.494,5.488,5.488,0,0,0-2.494-2.282c-1.663-.7-1.8-3.261-1.8-3.261-.207-6.027-3.739-6.521-3.739-6.521C206.569,552.951,206.64,565.624,206.64,567.352Z" transform="translate(-109.57 -314.122)" fill="#3f3d56"/><rect width="7.478" height="23.199" transform="translate(175.053 219.369) rotate(180)" fill="#f86d70"/><rect width="7.478" height="23.199" transform="translate(175.053 219.369) rotate(180)" opacity="0.1"/><path d="M372.439,397.41a.312.312,0,0,0,0,.049,2.4,2.4,0,0,0,.207.37l2.076,3.043,5.4.543.06-2.141C378.5,399.144,374.662,398.682,372.439,397.41Z" transform="translate(-185.268 -248.688)" opacity="0.1"/><path d="M366.945,398.18s.277,12.184-2.772,13.847-4.233,10.325-4.233,10.325,9.238,6.076,11.3,8.749,6.787,9.043,5.815,10.564,2.359,8.45,2.359,8.45-6.1,12.466-4.712,17.178,1.522,17.173,1.522,17.173h2.636s-.831-10.249-.831-14.406,2.766-18.977,2.766-18.977,1.25-14.542,0-14.955-8.586-6.233-9.141-8.869,3.88-27.172,3.88-27.172S369.852,399.843,366.945,398.18Z" transform="translate(-179.561 -249.04)" fill="#f86d70"/><path d="M336.12,463.26a11.857,11.857,0,0,0,1.81,4.75l5.119-.87s15.374-3.467,18.547-3.75a19.82,19.82,0,0,0,5.565-1.587,24.541,24.541,0,0,0-6.874-11.276l-1.951-1.81a32.687,32.687,0,0,0-9.836-6.288c.228.19,16.357,13.961,12.825,16.662s-13.042-3.875-13.042-3.875l-10.814-9.293-.391-.337-.625.973a9.073,9.073,0,0,1,.929.446,15.912,15.912,0,0,1,7.608,9.456C347.212,463.934,336.12,463.26,336.12,463.26Z" transform="translate(-168.686 -269.242)" opacity="0.1"/><path d="M330,542.772s10.249,5.679,12.738,2.494c.543-.7,1.69-1.005,3.119-1.087-.234-.717-.348-1.2-.348-1.2s-7.635-2.815-14.743-2.141C330.3,542.016,330,542.772,330,542.772Z" transform="translate(-165.892 -314.127)" fill="#444053"/><path d="M334.717,445.612l11.206,9.641s9.472,6.6,13.042,3.875-12.831-16.667-12.831-16.667h0a33.149,33.149,0,0,1,9.831,6.271l1.951,1.81c5.13,4.755,6.288,4.755,6.461,11.744.043,1.723-.543,4.2-.994,4.641-1.663,1.63-2.826,13.472-2.57,14.857s-3.1,13.347-2.011,16.673-13.586-1.663-16.069,1.527S330,497.488,330,497.488s5.679-14.548,7.065-15.515,3.049-8.45,0-11.912a12.921,12.921,0,0,1-3.32-6.787s11.086.685,8.863-6.787a15.684,15.684,0,0,0-8.521-9.9Z" transform="translate(-165.892 -269.256)" fill="#e8e8f0"/><path d="M356.428,493.38s-4.3,8.1-9.858,10.206c-.179.065-.353.125-.543.179C340.223,505.531,356.863,495.891,356.428,493.38Z" transform="translate(-172.647 -292.504)" opacity="0.1"/><path d="M248.051,346.146s2.076,5.266,3.739,7.065,13.988,19.808,13.988,19.808l1.043,2.174.9,1.853,7.9-.831.543-3.185-.3-.369a37.305,37.305,0,0,0-4.407-4.619,51.054,51.054,0,0,1-5.4-5.951S254.828,350.45,254,347.265s-12.053-22.281-14.542-18.977S248.051,346.146,248.051,346.146Z" transform="translate(-124.386 -216.955)" fill="#fbbebe"/><g transform="translate(132.687 142.261)" opacity="0.1"><path d="M286.07,519.081a6.191,6.191,0,0,0-2.788.4c-1.956.951-2.326,3.521-3.413,5.407a9.139,9.139,0,0,1-6.19,4.076,13.835,13.835,0,0,1-1.5.207,17.035,17.035,0,0,0,4.76-.207,9.139,9.139,0,0,0,6.19-4.076c1.087-1.886,1.456-4.456,3.413-5.407a4.347,4.347,0,0,1,1.63-.38Z" transform="translate(-272.18 -446.489)"/><path d="M325.051,416.426c0-4.32,2.81-8.043,5.125-11.689s4.261-8.249,2.429-12.162c-1.565-3.342-11-7.825-16.444-6.94,5.331.69,11.9,4.2,13.184,6.94,1.831,3.913-.114,8.516-2.429,12.162s-5.135,7.369-5.125,11.689a50.732,50.732,0,0,1-1.907,15.167c-.44,1.549,3.8,3.891,3.152,5.358-2.206,4.891-1.174,10.532-1.527,15.879a6.6,6.6,0,0,1-.745,3c-1.087,1.788-3.315,2.25-5.483,2.348h1.9c2.532,0,5.538-.2,6.847-2.364a6.6,6.6,0,0,0,.745-3c.353-5.347-.679-10.994,1.527-15.879.663-1.467-3.592-3.8-3.152-5.358A50.126,50.126,0,0,0,325.051,416.426Z" transform="translate(-291.858 -385.521)"/></g><path d="M290.12,412.772l.9,1.853,7.9-.831.543-3.185-.3-.37C298.31,410.653,292,413.691,290.12,412.772Z" transform="translate(-147.684 -254.546)" opacity="0.1"/><path d="M319.654,433.913s-1.94-3.043-3.049-2.217-1.538-2.494-2.174-1.94-2.489,2.1-3.261-.06c-.6-1.717-7.168-12.58-9.831-16.95-.685-1.13-1.114-1.826-1.114-1.826s-7.478,3.739-9.276,2.494v2.63l1.522.141,8.152,15.216s2.565,4.081,2.391,5.5,3.288,7.657,3.842,8.07,6.521,7.342,6.521,7.342,3.049,14.961.413,19.118a28.362,28.362,0,0,1-7.2,7.2s-1.375,4.016-1.174,4.434-1.6,2.217-.766,2.772,1.94,4.429,1.94,4.429,3.88-6.233,5.978-7.2,4.782-13.716,4.782-13.716.766-7.51.826-12.358S317.991,433.913,319.654,433.913Z" transform="translate(-148.063 -254.856)" opacity="0.1"/><path d="M318.884,433.913s-1.935-3.043-3.043-2.217-1.543-2.494-2.174-1.94-2.484,2.1-3.261-.06c-.609-1.717-7.173-12.58-9.831-16.95l-1.114-1.826s-7.478,3.739-9.282,2.494v2.63l1.527.141,8.151,15.216s2.57,4.081,2.391,5.5,3.261,7.657,3.842,8.07,6.521,7.342,6.521,7.342,3.049,14.961.418,19.118a25.476,25.476,0,0,1-5.016,5.554,9.7,9.7,0,0,0-3.261,5.228,2.064,2.064,0,0,0-.1.87c.2.413-1.6,2.217-.766,2.772s1.951,4.445,1.951,4.445,3.88-6.233,5.978-7.2,4.788-13.716,4.788-13.716.761-7.51.826-12.358S317.254,433.913,318.884,433.913Z" transform="translate(-147.711 -254.856)" fill="#f86d70"/><path d="M307.482,569.21s5.82,1.087,8.152,2.766-8.863-2.63-8.863-2.63Z" transform="translate(-155.286 -327.126)" opacity="0.1"/><path d="M333.83,596.35s6.07,5.059,4.983,9.63-3.891,16.069-3.891,16.069Z" transform="translate(-167.641 -339.517)" opacity="0.1"/><path d="M229.4,578.45s-8.554.935-8,2.043,8-1.022,8-1.022Z" transform="translate(-116.296 -331.344)" opacity="0.1"/><path d="M353.392,653.5s.543.69-2.63,0-.831-2.82-.831-2.82Z" transform="translate(-174.612 -364.322)" opacity="0.1"/><path d="M349.065,673.2s-4.348.69-6.679,0S349.065,673.2,349.065,673.2Z" transform="translate(-171.371 -374.465)" opacity="0.1"/><path d="M329.23,742.09s-.761-.831-4.57.69-5.331,1.592-6.44,1.087S329.23,742.09,329.23,742.09Z" transform="translate(-160.481 -405.953)" opacity="0.1"/><path d="M341.782,576.28l-5.4,7.516S339.287,577.215,341.782,576.28Z" transform="translate(-168.805 -330.354)" opacity="0.1"/><path d="M320.393,449.15s-.234,2.494-3.717,3.467-4.146,1.761-4.146,1.761" transform="translate(-157.916 -272.311)" opacity="0.1"/><path d="M302.446,415.88s-4.6,3.261-9.4,2.57" transform="translate(-149.022 -257.121)" opacity="0.1"/><path d="M316.78,541.962s1.342.842,4.565-2.842" transform="translate(-159.856 -313.388)" opacity="0.1"/><path d="M374.946,468.73a2.36,2.36,0,0,0-.777-1.826l-.9-1.087a4.18,4.18,0,0,0-.592-.609c-.543-.418-1.239-.543-1.8-.918" transform="translate(-184.552 -279.223)" opacity="0.1"/><path d="M881,123.8s-45.752-2.761-40.372,29.3c0,0-1.087,5.668,4.065,8.238,0,0,.082-2.375,4.7-1.565a21.464,21.464,0,0,0,4.972.239,10.358,10.358,0,0,0,6.076-2.511h0s12.863-5.315,17.863-26.335c0,0,3.7-4.587,3.554-5.766l-7.722,3.3s2.641,5.57.543,10.2c0,0-.25-10-1.734-9.782-.3.049-4.011,1.929-4.011,1.929s4.538,9.7,1.114,16.754c0,0,1.3-11.956-2.532-16.053l-5.434,3.174s5.3,10.021,1.706,18.2c0,0,.924-12.542-2.853-17.428l-4.924,3.842s4.983,9.88,1.945,16.662c0,0-.4-14.6-3.011-15.705,0,0-4.31,3.8-4.967,5.358,0,0,3.413,7.173,1.293,10.956,0,0-1.3-9.728-2.364-9.782,0,0-4.293,6.445-4.739,10.869,0,0,.185-6.57,3.7-11.477,0,0-4.152.712-6.576,3.4,0,0,.668-4.554,7.635-4.951,0,0,3.549-4.891,4.494-5.19,0,0-6.923-.576-11.124,1.283,0,0,3.7-4.3,12.4-2.342l4.864-3.973s-9.119-1.244-12.988.13c0,0,4.451-3.8,14.3-1.033l5.293-3.163s-7.777-1.674-12.407-1.087c0,0,4.891-2.636,13.961.223l3.8-1.7s-5.7-1.119-7.364-1.3-1.755-.636-1.755-.636a19.754,19.754,0,0,1,10.7,1.19S881.144,124.305,881,123.8Z" transform="translate(-398.827 -123.74)" fill="#3e66ff" opacity="0.1"/><path d="M795.967,138.837s-20.65-1.25-18.232,13.238a3.543,3.543,0,0,0,1.831,3.728s.038-1.087,2.125-.712a9.516,9.516,0,0,0,2.244.109,4.658,4.658,0,0,0,2.744-1.136h0s5.815-2.4,8.075-11.9c0,0,1.668-2.076,1.6-2.608l-3.489,1.489s1.2,2.522.255,4.614c0,0-.114-4.521-.782-4.413-.136,0-1.815.87-1.815.87s2.054,4.386.505,7.575c0,0,.587-5.4-1.147-7.255l-2.456,1.435s2.4,4.527.772,8.222c0,0,.419-5.668-1.288-7.874l-2.223,1.755s2.25,4.467.88,7.527c0,0-.179-6.6-1.364-7.092a13.629,13.629,0,0,0-2.244,2.424s1.543,3.261.587,4.945c0,0-.587-4.4-1.087-4.413,0,0-1.935,2.913-2.141,4.891A10.624,10.624,0,0,1,781,149.07a5.847,5.847,0,0,0-2.973,1.538s.3-2.054,3.451-2.239a14.854,14.854,0,0,1,2.032-2.342,12.743,12.743,0,0,0-5.027.581s1.668-1.945,5.6-1.087l2.174-1.793s-4.119-.543-5.869.06c0,0,2.011-1.717,6.461-.467l2.391-1.429a21.49,21.49,0,0,0-5.608-.484s2.212-1.2,6.309.1l1.712-.766s-2.576-.511-3.331-.587-.793-.288-.793-.288a8.907,8.907,0,0,1,4.836.543S796.032,139.065,795.967,138.837Z" transform="translate(-370.222 -130.62)" fill="#3e66ff" opacity="0.1"/><ellipse cx="21.852" cy="3.695" rx="21.852" ry="3.695" transform="translate(476.029 346.255)" fill="#3e66ff"/><path d="M943.842,748.118a6.325,6.325,0,0,0,2.081-3.146,2.806,2.806,0,0,0-1.456-3.2c-1.337-.511-2.766.419-3.847,1.353s-2.326,2.005-3.739,1.8a5.706,5.706,0,0,0,1.761-5.331,2.238,2.238,0,0,0-.489-1.087c-.744-.793-2.087-.457-2.978.168-2.826,1.989-3.614,5.831-3.63,9.282a17.447,17.447,0,0,1-.049-3.8,3.92,3.92,0,0,0-1.44-3.386,4.3,4.3,0,0,0-2.174-.511,4.513,4.513,0,0,0-3.549,1.011c-1.087,1.152-.8,3.087.136,4.348a13.836,13.836,0,0,0,3.679,2.945,8.154,8.154,0,0,1,2.625,2.505,2.264,2.264,0,0,1,.2.451h7.967A22.156,22.156,0,0,0,943.842,748.118Z" transform="translate(-436.925 -404.211)" fill="#3e66ff"/></g></svg>